%TF.GenerationSoftware,KiCad,Pcbnew,(6.0.5)*%
%TF.CreationDate,2022-06-13T10:30:57+10:00*%
%TF.ProjectId,1-Chip,312d4368-6970-42e6-9b69-6361645f7063,3.2*%
%TF.SameCoordinates,Original*%
%TF.FileFunction,Copper,L2,Bot*%
%TF.FilePolarity,Positive*%
%FSLAX46Y46*%
G04 Gerber Fmt 4.6, Leading zero omitted, Abs format (unit mm)*
G04 Created by KiCad (PCBNEW (6.0.5)) date 2022-06-13 10:30:57*
%MOMM*%
%LPD*%
G01*
G04 APERTURE LIST*
%TA.AperFunction,ComponentPad*%
%ADD10C,1.700000*%
%TD*%
%TA.AperFunction,ComponentPad*%
%ADD11O,1.700000X1.700000*%
%TD*%
%TA.AperFunction,ViaPad*%
%ADD12C,0.550000*%
%TD*%
%TA.AperFunction,Conductor*%
%ADD13C,0.500000*%
%TD*%
%TA.AperFunction,Conductor*%
%ADD14C,0.250000*%
%TD*%
%TA.AperFunction,Conductor*%
%ADD15C,0.254000*%
%TD*%
G04 APERTURE END LIST*
D10*
X148082000Y-99060000D03*
X148082000Y-96520000D03*
D11*
X145542000Y-99060000D03*
X145542000Y-96520000D03*
X143002000Y-99060000D03*
X143002000Y-96520000D03*
X137922000Y-99060000D03*
X137922000Y-96520000D03*
D12*
X142740000Y-101120000D03*
X149050000Y-100110000D03*
X136360000Y-96680000D03*
X145330000Y-105910000D03*
X139192000Y-102108000D03*
X136630000Y-103470000D03*
X134620000Y-104050000D03*
X143764000Y-103124000D03*
X143764000Y-103886000D03*
X143764000Y-104648000D03*
X138176000Y-101841000D03*
X136652000Y-101854000D03*
X138176000Y-104648000D03*
X136652000Y-104648000D03*
X135382000Y-104648000D03*
X140462000Y-105918000D03*
X143764000Y-105918000D03*
X141986000Y-105918000D03*
X147580000Y-100860000D03*
X135128000Y-101841000D03*
D13*
X142740000Y-100510000D02*
X142740000Y-101120000D01*
X143002000Y-100248000D02*
X142740000Y-100510000D01*
X143002000Y-99060000D02*
X143002000Y-100248000D01*
D14*
X139192000Y-102108000D02*
X140208000Y-103124000D01*
X140208000Y-103124000D02*
X143764000Y-103124000D01*
X140334282Y-103886000D02*
X143764000Y-103886000D01*
X140034141Y-103585859D02*
X140334282Y-103886000D01*
X136745859Y-103585859D02*
X140034141Y-103585859D01*
X136630000Y-103470000D02*
X136745859Y-103585859D01*
D13*
X148300000Y-100860000D02*
X147580000Y-100860000D01*
X149050000Y-100110000D02*
X148300000Y-100860000D01*
D14*
X136400000Y-96680000D02*
X137550000Y-97830000D01*
X136360000Y-96680000D02*
X136400000Y-96680000D01*
D15*
X137550000Y-97830000D02*
X136450000Y-96730000D01*
X137603489Y-97883489D02*
X137550000Y-97830000D01*
X144365489Y-97883489D02*
X137603489Y-97883489D01*
X145542000Y-99060000D02*
X144365489Y-97883489D01*
D14*
X139861053Y-104048489D02*
X134621511Y-104048489D01*
X140228013Y-104415449D02*
X139861053Y-104048489D01*
X143129718Y-104648000D02*
X142897167Y-104415449D01*
X143764000Y-104648000D02*
X143129718Y-104648000D01*
X142897167Y-104415449D02*
X140228013Y-104415449D01*
X144592530Y-101670480D02*
X140256198Y-101670480D01*
X139644687Y-101058969D02*
X137447031Y-101058969D01*
X146716511Y-99546499D02*
X144592530Y-101670480D01*
X140256198Y-101670480D02*
X139644687Y-101058969D01*
X137447031Y-101058969D02*
X136652000Y-101854000D01*
X146716511Y-97885489D02*
X146716511Y-99546499D01*
X148082000Y-96520000D02*
X146716511Y-97885489D01*
X134507479Y-101220479D02*
X135128000Y-101841000D01*
X144367489Y-95345489D02*
X135319750Y-95345489D01*
X135319750Y-95345489D02*
X134507479Y-96157760D01*
X134507479Y-96157760D02*
X134507479Y-101220479D01*
X145542000Y-96520000D02*
X144367489Y-95345489D01*
X140070000Y-102120000D02*
X145022000Y-102120000D01*
X139458489Y-101508489D02*
X140070000Y-102120000D01*
X138508511Y-101508489D02*
X139458489Y-101508489D01*
X145022000Y-102120000D02*
X148082000Y-99060000D01*
X138176000Y-101841000D02*
X138508511Y-101508489D01*
X134620000Y-104050000D02*
X134621511Y-104048489D01*
X136078489Y-104048489D02*
X136090000Y-104060000D01*
X135390000Y-104048489D02*
X136078489Y-104048489D01*
X134621511Y-104048489D02*
X135390000Y-104048489D01*
X138176000Y-104648000D02*
X138392969Y-104864969D01*
X138392969Y-104864969D02*
X138684000Y-104864969D01*
X136652000Y-105918000D02*
X140462000Y-105918000D01*
X135382000Y-104648000D02*
X136652000Y-105918000D01*
D15*
X137320489Y-105316489D02*
X136652000Y-104648000D01*
D14*
X143764000Y-105918000D02*
X142710969Y-104864969D01*
X142710969Y-104864969D02*
X138646969Y-104864969D01*
D15*
X141384489Y-105316489D02*
X137320489Y-105316489D01*
X141986000Y-105918000D02*
X141384489Y-105316489D01*
%TA.AperFunction,Conductor*%
G36*
X148924519Y-100218289D02*
G01*
X148973551Y-100269635D01*
X148987571Y-100330191D01*
X148852656Y-106540505D01*
X148828543Y-107650481D01*
X148827073Y-107667128D01*
X148822309Y-107697724D01*
X148823473Y-107706626D01*
X148823489Y-107706750D01*
X148823760Y-107737193D01*
X148816766Y-107799264D01*
X148810487Y-107826771D01*
X148783515Y-107903853D01*
X148771273Y-107929274D01*
X148727822Y-107998426D01*
X148710230Y-108020485D01*
X148652485Y-108078230D01*
X148630426Y-108095822D01*
X148561274Y-108139273D01*
X148535853Y-108151515D01*
X148458772Y-108178487D01*
X148431264Y-108184766D01*
X148375774Y-108191018D01*
X148360132Y-108190923D01*
X148360121Y-108191800D01*
X148351149Y-108191690D01*
X148342276Y-108190309D01*
X148333374Y-108191473D01*
X148333372Y-108191473D01*
X148322381Y-108192910D01*
X148310330Y-108194486D01*
X148294152Y-108195550D01*
X140098015Y-108205479D01*
X135177135Y-108211440D01*
X135157599Y-108209940D01*
X135143149Y-108207690D01*
X135143146Y-108207690D01*
X135134276Y-108206309D01*
X135125374Y-108207473D01*
X135125250Y-108207489D01*
X135094808Y-108207760D01*
X135074130Y-108205430D01*
X135032736Y-108200766D01*
X135005229Y-108194487D01*
X134928147Y-108167515D01*
X134902726Y-108155273D01*
X134833574Y-108111822D01*
X134811515Y-108094230D01*
X134753770Y-108036485D01*
X134736178Y-108014426D01*
X134692727Y-107945274D01*
X134680485Y-107919853D01*
X134653513Y-107842772D01*
X134647234Y-107815266D01*
X134641170Y-107761451D01*
X134640888Y-107736640D01*
X134641576Y-107732552D01*
X134641729Y-107720000D01*
X134637680Y-107691724D01*
X134636408Y-107674120D01*
X134634117Y-106551500D01*
X134631586Y-105310998D01*
X134651449Y-105242837D01*
X134705010Y-105196234D01*
X134775263Y-105185987D01*
X134839904Y-105215348D01*
X134848222Y-105223214D01*
X134874519Y-105250445D01*
X134874524Y-105250449D01*
X134879418Y-105255517D01*
X135026502Y-105351766D01*
X135033106Y-105354222D01*
X135184653Y-105410582D01*
X135184655Y-105410583D01*
X135191255Y-105413037D01*
X135218078Y-105416616D01*
X135282955Y-105445451D01*
X135290510Y-105452414D01*
X136148343Y-106310247D01*
X136155887Y-106318537D01*
X136160000Y-106325018D01*
X136165777Y-106330443D01*
X136209667Y-106371658D01*
X136212509Y-106374413D01*
X136232230Y-106394134D01*
X136235425Y-106396612D01*
X136244447Y-106404318D01*
X136276679Y-106434586D01*
X136283628Y-106438406D01*
X136294432Y-106444346D01*
X136310956Y-106455199D01*
X136326959Y-106467613D01*
X136367543Y-106485176D01*
X136378173Y-106490383D01*
X136416940Y-106511695D01*
X136424617Y-106513666D01*
X136424622Y-106513668D01*
X136436558Y-106516732D01*
X136455266Y-106523137D01*
X136473855Y-106531181D01*
X136481683Y-106532421D01*
X136481690Y-106532423D01*
X136517524Y-106538099D01*
X136529144Y-106540505D01*
X136564289Y-106549528D01*
X136571970Y-106551500D01*
X136592224Y-106551500D01*
X136611934Y-106553051D01*
X136631943Y-106556220D01*
X136639835Y-106555474D01*
X136675961Y-106552059D01*
X136687819Y-106551500D01*
X139961562Y-106551500D01*
X140030553Y-106572066D01*
X140106502Y-106621766D01*
X140113106Y-106624222D01*
X140264653Y-106680582D01*
X140264655Y-106680583D01*
X140271255Y-106683037D01*
X140278236Y-106683968D01*
X140278238Y-106683969D01*
X140438507Y-106705354D01*
X140438511Y-106705354D01*
X140445488Y-106706285D01*
X140452499Y-106705647D01*
X140452503Y-106705647D01*
X140613520Y-106690993D01*
X140620541Y-106690354D01*
X140627243Y-106688176D01*
X140627245Y-106688176D01*
X140781016Y-106638213D01*
X140781019Y-106638212D01*
X140787715Y-106636036D01*
X140938701Y-106546030D01*
X140943795Y-106541179D01*
X140943799Y-106541176D01*
X141034083Y-106455199D01*
X141065994Y-106424811D01*
X141118769Y-106345378D01*
X141173126Y-106299707D01*
X141243546Y-106290675D01*
X141307670Y-106321148D01*
X141331490Y-106349831D01*
X141361313Y-106399074D01*
X141366202Y-106404137D01*
X141366203Y-106404138D01*
X141405032Y-106444346D01*
X141483418Y-106525517D01*
X141630502Y-106621766D01*
X141637106Y-106624222D01*
X141788653Y-106680582D01*
X141788655Y-106680583D01*
X141795255Y-106683037D01*
X141802236Y-106683968D01*
X141802238Y-106683969D01*
X141962507Y-106705354D01*
X141962511Y-106705354D01*
X141969488Y-106706285D01*
X141976499Y-106705647D01*
X141976503Y-106705647D01*
X142137520Y-106690993D01*
X142144541Y-106690354D01*
X142151243Y-106688176D01*
X142151245Y-106688176D01*
X142305016Y-106638213D01*
X142305019Y-106638212D01*
X142311715Y-106636036D01*
X142462701Y-106546030D01*
X142467795Y-106541179D01*
X142467799Y-106541176D01*
X142558083Y-106455199D01*
X142589994Y-106424811D01*
X142687267Y-106278403D01*
X142749687Y-106114082D01*
X142750667Y-106107110D01*
X142752420Y-106100282D01*
X142754359Y-106100780D01*
X142779577Y-106045080D01*
X142839178Y-106006502D01*
X142910174Y-106006271D01*
X142970025Y-106044460D01*
X142994628Y-106087510D01*
X143003570Y-106114390D01*
X143048256Y-106248720D01*
X143051903Y-106254742D01*
X143051904Y-106254744D01*
X143123522Y-106372999D01*
X143139313Y-106399074D01*
X143144202Y-106404137D01*
X143144203Y-106404138D01*
X143183032Y-106444346D01*
X143261418Y-106525517D01*
X143408502Y-106621766D01*
X143415106Y-106624222D01*
X143566653Y-106680582D01*
X143566655Y-106680583D01*
X143573255Y-106683037D01*
X143580236Y-106683968D01*
X143580238Y-106683969D01*
X143740507Y-106705354D01*
X143740511Y-106705354D01*
X143747488Y-106706285D01*
X143754499Y-106705647D01*
X143754503Y-106705647D01*
X143915520Y-106690993D01*
X143922541Y-106690354D01*
X143929243Y-106688176D01*
X143929245Y-106688176D01*
X144083016Y-106638213D01*
X144083019Y-106638212D01*
X144089715Y-106636036D01*
X144240701Y-106546030D01*
X144245795Y-106541179D01*
X144245799Y-106541176D01*
X144336083Y-106455199D01*
X144367994Y-106424811D01*
X144465267Y-106278403D01*
X144527687Y-106114082D01*
X144537472Y-106044460D01*
X144551600Y-105943938D01*
X144551600Y-105943932D01*
X144552151Y-105940015D01*
X144552458Y-105918000D01*
X144532864Y-105743318D01*
X144475057Y-105577319D01*
X144381909Y-105428251D01*
X144370355Y-105416616D01*
X144326248Y-105372199D01*
X144292442Y-105309768D01*
X144297754Y-105238971D01*
X144328763Y-105192170D01*
X144335256Y-105185987D01*
X144367994Y-105154811D01*
X144465267Y-105008403D01*
X144527687Y-104844082D01*
X144552151Y-104670015D01*
X144552458Y-104648000D01*
X144532864Y-104473318D01*
X144475057Y-104307319D01*
X144477636Y-104306421D01*
X144468248Y-104248588D01*
X144475482Y-104219514D01*
X144525186Y-104088668D01*
X144525188Y-104088662D01*
X144527687Y-104082082D01*
X144552151Y-103908015D01*
X144552458Y-103886000D01*
X144532864Y-103711318D01*
X144475057Y-103545319D01*
X144477636Y-103544421D01*
X144468248Y-103486588D01*
X144475482Y-103457514D01*
X144525186Y-103326668D01*
X144525188Y-103326662D01*
X144527687Y-103320082D01*
X144552151Y-103146015D01*
X144552458Y-103124000D01*
X144532864Y-102949318D01*
X144522980Y-102920935D01*
X144519468Y-102850026D01*
X144554849Y-102788474D01*
X144617892Y-102755822D01*
X144641972Y-102753500D01*
X144943233Y-102753500D01*
X144954416Y-102754027D01*
X144961909Y-102755702D01*
X144969835Y-102755453D01*
X144969836Y-102755453D01*
X145029986Y-102753562D01*
X145033945Y-102753500D01*
X145061856Y-102753500D01*
X145065791Y-102753003D01*
X145065856Y-102752995D01*
X145077693Y-102752062D01*
X145109951Y-102751048D01*
X145113970Y-102750922D01*
X145121889Y-102750673D01*
X145141343Y-102745021D01*
X145160700Y-102741013D01*
X145172930Y-102739468D01*
X145172931Y-102739468D01*
X145180797Y-102738474D01*
X145188168Y-102735555D01*
X145188170Y-102735555D01*
X145221912Y-102722196D01*
X145233142Y-102718351D01*
X145267983Y-102708229D01*
X145267984Y-102708229D01*
X145275593Y-102706018D01*
X145282412Y-102701985D01*
X145282417Y-102701983D01*
X145293028Y-102695707D01*
X145310776Y-102687012D01*
X145329617Y-102679552D01*
X145340143Y-102671905D01*
X145365387Y-102653564D01*
X145375307Y-102647048D01*
X145406535Y-102628580D01*
X145406538Y-102628578D01*
X145413362Y-102624542D01*
X145427683Y-102610221D01*
X145442717Y-102597380D01*
X145452694Y-102590131D01*
X145459107Y-102585472D01*
X145487298Y-102551395D01*
X145495288Y-102542616D01*
X147626549Y-100411355D01*
X147688861Y-100377329D01*
X147740762Y-100376979D01*
X147920597Y-100413567D01*
X147925772Y-100413757D01*
X147925774Y-100413757D01*
X148138673Y-100421564D01*
X148138677Y-100421564D01*
X148143837Y-100421753D01*
X148148957Y-100421097D01*
X148148959Y-100421097D01*
X148360288Y-100394025D01*
X148360289Y-100394025D01*
X148365416Y-100393368D01*
X148370366Y-100391883D01*
X148574429Y-100330661D01*
X148574434Y-100330659D01*
X148579384Y-100329174D01*
X148779994Y-100230896D01*
X148784201Y-100227895D01*
X148784208Y-100227891D01*
X148788436Y-100224875D01*
X148855511Y-100201603D01*
X148924519Y-100218289D01*
G37*
%TD.AperFunction*%
%TA.AperFunction,Conductor*%
G36*
X143198121Y-98538991D02*
G01*
X143244614Y-98592647D01*
X143256000Y-98644989D01*
X143256000Y-100378517D01*
X143260064Y-100392359D01*
X143273478Y-100394393D01*
X143280184Y-100393534D01*
X143290262Y-100391392D01*
X143494255Y-100330191D01*
X143503842Y-100326433D01*
X143695095Y-100232739D01*
X143703945Y-100227464D01*
X143877328Y-100103792D01*
X143885200Y-100097139D01*
X144036052Y-99946812D01*
X144042730Y-99938965D01*
X144170022Y-99761819D01*
X144171279Y-99762722D01*
X144218373Y-99719362D01*
X144288311Y-99707145D01*
X144353751Y-99734678D01*
X144381579Y-99766511D01*
X144441987Y-99865088D01*
X144588250Y-100033938D01*
X144760126Y-100176632D01*
X144847115Y-100227464D01*
X144890741Y-100252957D01*
X144939464Y-100304596D01*
X144952535Y-100374379D01*
X144925803Y-100440151D01*
X144916265Y-100450840D01*
X144367030Y-101000075D01*
X144304718Y-101034101D01*
X144277935Y-101036980D01*
X140570793Y-101036980D01*
X140502672Y-101016978D01*
X140481697Y-101000075D01*
X140148334Y-100666711D01*
X140140800Y-100658432D01*
X140136687Y-100651951D01*
X140087035Y-100605325D01*
X140084194Y-100602571D01*
X140064457Y-100582834D01*
X140061260Y-100580354D01*
X140052238Y-100572649D01*
X140048084Y-100568748D01*
X140020008Y-100542383D01*
X140013062Y-100538564D01*
X140013059Y-100538562D01*
X140002253Y-100532621D01*
X139985734Y-100521770D01*
X139985270Y-100521410D01*
X139969728Y-100509355D01*
X139962459Y-100506210D01*
X139962455Y-100506207D01*
X139929150Y-100491795D01*
X139918500Y-100486578D01*
X139879747Y-100465274D01*
X139860124Y-100460236D01*
X139841421Y-100453832D01*
X139830107Y-100448936D01*
X139830106Y-100448936D01*
X139822832Y-100445788D01*
X139815009Y-100444549D01*
X139814999Y-100444546D01*
X139779163Y-100438870D01*
X139767543Y-100436464D01*
X139732398Y-100427441D01*
X139732397Y-100427441D01*
X139724717Y-100425469D01*
X139704463Y-100425469D01*
X139684752Y-100423918D01*
X139672573Y-100421989D01*
X139664744Y-100420749D01*
X139656852Y-100421495D01*
X139620726Y-100424910D01*
X139608868Y-100425469D01*
X138740837Y-100425469D01*
X138672716Y-100405467D01*
X138626223Y-100351811D01*
X138616119Y-100281537D01*
X138645613Y-100216957D01*
X138667669Y-100196890D01*
X138701279Y-100172916D01*
X138801860Y-100101173D01*
X138833225Y-100069918D01*
X138914803Y-99988624D01*
X138960096Y-99943489D01*
X139019594Y-99860689D01*
X139087435Y-99766277D01*
X139090453Y-99762077D01*
X139103995Y-99734678D01*
X139187136Y-99566453D01*
X139187137Y-99566451D01*
X139189430Y-99561811D01*
X139254325Y-99348217D01*
X139293266Y-99288853D01*
X139358120Y-99259966D01*
X139428296Y-99270727D01*
X139481514Y-99317721D01*
X139496002Y-99350116D01*
X139519783Y-99433050D01*
X139522602Y-99438535D01*
X139583412Y-99556857D01*
X139610187Y-99608956D01*
X139733035Y-99763953D01*
X139737728Y-99767947D01*
X139737729Y-99767948D01*
X139856112Y-99868699D01*
X139883650Y-99892136D01*
X140056294Y-99988624D01*
X140244392Y-100049740D01*
X140440777Y-100073158D01*
X140446912Y-100072686D01*
X140446914Y-100072686D01*
X140631830Y-100058457D01*
X140631834Y-100058456D01*
X140637972Y-100057984D01*
X140828463Y-100004798D01*
X140833967Y-100002018D01*
X140833969Y-100002017D01*
X140999495Y-99918404D01*
X140999497Y-99918403D01*
X141004996Y-99915625D01*
X141160847Y-99793861D01*
X141290078Y-99644145D01*
X141387769Y-99472179D01*
X141428374Y-99350116D01*
X141432619Y-99337355D01*
X141473100Y-99279031D01*
X141538688Y-99251851D01*
X141608559Y-99264446D01*
X141660529Y-99312816D01*
X141675094Y-99349426D01*
X141700565Y-99462446D01*
X141703645Y-99472275D01*
X141783770Y-99669603D01*
X141788413Y-99678794D01*
X141899694Y-99860388D01*
X141905777Y-99868699D01*
X142045213Y-100029667D01*
X142052580Y-100036883D01*
X142216434Y-100172916D01*
X142224881Y-100178831D01*
X142408756Y-100286279D01*
X142418042Y-100290729D01*
X142617001Y-100366703D01*
X142626899Y-100369579D01*
X142730250Y-100390606D01*
X142744299Y-100389410D01*
X142748000Y-100379065D01*
X142748000Y-98644989D01*
X142768002Y-98576868D01*
X142821658Y-98530375D01*
X142874000Y-98518989D01*
X143130000Y-98518989D01*
X143198121Y-98538991D01*
G37*
%TD.AperFunction*%
%TA.AperFunction,Conductor*%
G36*
X143198121Y-96286002D02*
G01*
X143244614Y-96339658D01*
X143256000Y-96392000D01*
X143256000Y-97121989D01*
X143235998Y-97190110D01*
X143182342Y-97236603D01*
X143130000Y-97247989D01*
X142874000Y-97247989D01*
X142805879Y-97227987D01*
X142759386Y-97174331D01*
X142748000Y-97121989D01*
X142748000Y-96392000D01*
X142768002Y-96323879D01*
X142821658Y-96277386D01*
X142874000Y-96266000D01*
X143130000Y-96266000D01*
X143198121Y-96286002D01*
G37*
%TD.AperFunction*%
M02*
