%TF.GenerationSoftware,KiCad,Pcbnew,(6.0.5)*%
%TF.CreationDate,2022-06-13T10:30:57+10:00*%
%TF.ProjectId,1-Chip,312d4368-6970-42e6-9b69-6361645f7063,3.2*%
%TF.SameCoordinates,Original*%
%TF.FileFunction,Legend,Top*%
%TF.FilePolarity,Positive*%
%FSLAX46Y46*%
G04 Gerber Fmt 4.6, Leading zero omitted, Abs format (unit mm)*
G04 Created by KiCad (PCBNEW (6.0.5)) date 2022-06-13 10:30:57*
%MOMM*%
%LPD*%
G01*
G04 APERTURE LIST*
%ADD10C,0.150000*%
%ADD11C,0.160000*%
%ADD12C,0.120000*%
%ADD13C,0.152400*%
G04 APERTURE END LIST*
D10*
D11*
X149012000Y-99060000D02*
G75*
G03*
X149012000Y-99060000I-930000J0D01*
G01*
X149168002Y-99060000D02*
G75*
G03*
X149168002Y-99060000I-1086002J0D01*
G01*
D12*
X137162000Y-106031420D02*
X137162000Y-106312580D01*
X136142000Y-106031420D02*
X136142000Y-106312580D01*
X137666000Y-101700420D02*
X137666000Y-101981580D01*
X138686000Y-101700420D02*
X138686000Y-101981580D01*
X136142000Y-101713420D02*
X136142000Y-101994580D01*
X137162000Y-101713420D02*
X137162000Y-101994580D01*
X146810000Y-106539420D02*
X146810000Y-106820580D01*
X147830000Y-106539420D02*
X147830000Y-106820580D01*
X134618000Y-101700420D02*
X134618000Y-101981580D01*
X135638000Y-101700420D02*
X135638000Y-101981580D01*
D13*
X148310600Y-105747400D02*
X148310600Y-107220600D01*
X149377400Y-105747400D02*
X148310600Y-105747400D01*
X149377400Y-107220600D02*
X148310600Y-107220600D01*
X149377400Y-105747400D02*
X149377400Y-107220600D01*
D12*
X146014000Y-102991500D02*
X146014000Y-103791500D01*
X146014000Y-102991500D02*
X146014000Y-102191500D01*
X149134000Y-102991500D02*
X149134000Y-101191500D01*
X149134000Y-102991500D02*
X149134000Y-103791500D01*
X144412580Y-100582000D02*
X144131420Y-100582000D01*
X144412580Y-101602000D02*
X144131420Y-101602000D01*
D13*
X135590400Y-98323400D02*
X137063600Y-98323400D01*
X135590400Y-97256600D02*
X135590400Y-98323400D01*
X137063600Y-97256600D02*
X137063600Y-98323400D01*
X135590400Y-97256600D02*
X137063600Y-97256600D01*
D12*
X135638000Y-106057420D02*
X135638000Y-106338580D01*
X134618000Y-106057420D02*
X134618000Y-106338580D01*
X141069420Y-101610000D02*
X141350580Y-101610000D01*
X141069420Y-100590000D02*
X141350580Y-100590000D01*
X138686000Y-106044420D02*
X138686000Y-106325580D01*
X137666000Y-106044420D02*
X137666000Y-106325580D01*
X142582000Y-102060000D02*
X139707000Y-102060000D01*
X142582000Y-105280000D02*
X144082000Y-105280000D01*
X142582000Y-105280000D02*
X141082000Y-105280000D01*
X142582000Y-102060000D02*
X144082000Y-102060000D01*
M02*
