%TF.GenerationSoftware,KiCad,Pcbnew,(6.0.5)*%
%TF.CreationDate,2022-06-13T10:30:57+10:00*%
%TF.ProjectId,1-Chip,312d4368-6970-42e6-9b69-6361645f7063,3.2*%
%TF.SameCoordinates,Original*%
%TF.FileFunction,Legend,Bot*%
%TF.FilePolarity,Positive*%
%FSLAX46Y46*%
G04 Gerber Fmt 4.6, Leading zero omitted, Abs format (unit mm)*
G04 Created by KiCad (PCBNEW (6.0.5)) date 2022-06-13 10:30:57*
%MOMM*%
%LPD*%
G01*
G04 APERTURE LIST*
%ADD10C,0.125000*%
G04 APERTURE END LIST*
D10*
X148810000Y-107816190D02*
X148643333Y-108316190D01*
X148476666Y-107816190D01*
X148333809Y-107863809D02*
X148310000Y-107840000D01*
X148262380Y-107816190D01*
X148143333Y-107816190D01*
X148095714Y-107840000D01*
X148071904Y-107863809D01*
X148048095Y-107911428D01*
X148048095Y-107959047D01*
X148071904Y-108030476D01*
X148357619Y-108316190D01*
X148048095Y-108316190D01*
X147833809Y-108268571D02*
X147810000Y-108292380D01*
X147833809Y-108316190D01*
X147857619Y-108292380D01*
X147833809Y-108268571D01*
X147833809Y-108316190D01*
X147500476Y-107816190D02*
X147452857Y-107816190D01*
X147405238Y-107840000D01*
X147381428Y-107863809D01*
X147357619Y-107911428D01*
X147333809Y-108006666D01*
X147333809Y-108125714D01*
X147357619Y-108220952D01*
X147381428Y-108268571D01*
X147405238Y-108292380D01*
X147452857Y-108316190D01*
X147500476Y-108316190D01*
X147548095Y-108292380D01*
X147571904Y-108268571D01*
X147595714Y-108220952D01*
X147619523Y-108125714D01*
X147619523Y-108006666D01*
X147595714Y-107911428D01*
X147571904Y-107863809D01*
X147548095Y-107840000D01*
X147500476Y-107816190D01*
X147024285Y-107816190D02*
X146976666Y-107816190D01*
X146929047Y-107840000D01*
X146905238Y-107863809D01*
X146881428Y-107911428D01*
X146857619Y-108006666D01*
X146857619Y-108125714D01*
X146881428Y-108220952D01*
X146905238Y-108268571D01*
X146929047Y-108292380D01*
X146976666Y-108316190D01*
X147024285Y-108316190D01*
X147071904Y-108292380D01*
X147095714Y-108268571D01*
X147119523Y-108220952D01*
X147143333Y-108125714D01*
X147143333Y-108006666D01*
X147119523Y-107911428D01*
X147095714Y-107863809D01*
X147071904Y-107840000D01*
X147024285Y-107816190D01*
X148870476Y-107493809D02*
X148756190Y-107531904D01*
X148565714Y-107531904D01*
X148489523Y-107493809D01*
X148451428Y-107455714D01*
X148413333Y-107379523D01*
X148413333Y-107303333D01*
X148451428Y-107227142D01*
X148489523Y-107189047D01*
X148565714Y-107150952D01*
X148718095Y-107112857D01*
X148794285Y-107074761D01*
X148832380Y-107036666D01*
X148870476Y-106960476D01*
X148870476Y-106884285D01*
X148832380Y-106808095D01*
X148794285Y-106770000D01*
X148718095Y-106731904D01*
X148527619Y-106731904D01*
X148413333Y-106770000D01*
X148070476Y-106731904D02*
X148070476Y-107379523D01*
X148032380Y-107455714D01*
X147994285Y-107493809D01*
X147918095Y-107531904D01*
X147765714Y-107531904D01*
X147689523Y-107493809D01*
X147651428Y-107455714D01*
X147613333Y-107379523D01*
X147613333Y-106731904D01*
X147232380Y-107531904D02*
X147232380Y-106731904D01*
X146927619Y-106731904D01*
X146851428Y-106770000D01*
X146813333Y-106808095D01*
X146775238Y-106884285D01*
X146775238Y-106998571D01*
X146813333Y-107074761D01*
X146851428Y-107112857D01*
X146927619Y-107150952D01*
X147232380Y-107150952D01*
X146432380Y-107112857D02*
X146165714Y-107112857D01*
X146051428Y-107531904D02*
X146432380Y-107531904D01*
X146432380Y-106731904D01*
X146051428Y-106731904D01*
X145251428Y-107531904D02*
X145518095Y-107150952D01*
X145708571Y-107531904D02*
X145708571Y-106731904D01*
X145403809Y-106731904D01*
X145327619Y-106770000D01*
X145289523Y-106808095D01*
X145251428Y-106884285D01*
X145251428Y-106998571D01*
X145289523Y-107074761D01*
X145327619Y-107112857D01*
X145403809Y-107150952D01*
X145708571Y-107150952D01*
X144908571Y-107227142D02*
X144299047Y-107227142D01*
X143499047Y-107531904D02*
X143956190Y-107531904D01*
X143727619Y-107531904D02*
X143727619Y-106731904D01*
X143803809Y-106846190D01*
X143880000Y-106922380D01*
X143956190Y-106960476D01*
X142089523Y-107531904D02*
X142356190Y-107150952D01*
X142546666Y-107531904D02*
X142546666Y-106731904D01*
X142241904Y-106731904D01*
X142165714Y-106770000D01*
X142127619Y-106808095D01*
X142089523Y-106884285D01*
X142089523Y-106998571D01*
X142127619Y-107074761D01*
X142165714Y-107112857D01*
X142241904Y-107150952D01*
X142546666Y-107150952D01*
X141327619Y-106770000D02*
X141403809Y-106731904D01*
X141518095Y-106731904D01*
X141632380Y-106770000D01*
X141708571Y-106846190D01*
X141746666Y-106922380D01*
X141784761Y-107074761D01*
X141784761Y-107189047D01*
X141746666Y-107341428D01*
X141708571Y-107417619D01*
X141632380Y-107493809D01*
X141518095Y-107531904D01*
X141441904Y-107531904D01*
X141327619Y-107493809D01*
X141289523Y-107455714D01*
X141289523Y-107189047D01*
X141441904Y-107189047D01*
X140680000Y-107112857D02*
X140565714Y-107150952D01*
X140527619Y-107189047D01*
X140489523Y-107265238D01*
X140489523Y-107379523D01*
X140527619Y-107455714D01*
X140565714Y-107493809D01*
X140641904Y-107531904D01*
X140946666Y-107531904D01*
X140946666Y-106731904D01*
X140680000Y-106731904D01*
X140603809Y-106770000D01*
X140565714Y-106808095D01*
X140527619Y-106884285D01*
X140527619Y-106960476D01*
X140565714Y-107036666D01*
X140603809Y-107074761D01*
X140680000Y-107112857D01*
X140946666Y-107112857D01*
X140000952Y-107821190D02*
X139834285Y-108321190D01*
X139667619Y-107821190D01*
X139286666Y-108321190D02*
X139286666Y-108059285D01*
X139310476Y-108011666D01*
X139358095Y-107987857D01*
X139453333Y-107987857D01*
X139500952Y-108011666D01*
X139286666Y-108297380D02*
X139334285Y-108321190D01*
X139453333Y-108321190D01*
X139500952Y-108297380D01*
X139524761Y-108249761D01*
X139524761Y-108202142D01*
X139500952Y-108154523D01*
X139453333Y-108130714D01*
X139334285Y-108130714D01*
X139286666Y-108106904D01*
X139048571Y-107987857D02*
X139048571Y-108416428D01*
X139072380Y-108464047D01*
X139120000Y-108487857D01*
X139143809Y-108487857D01*
X139048571Y-107821190D02*
X139072380Y-107845000D01*
X139048571Y-107868809D01*
X139024761Y-107845000D01*
X139048571Y-107821190D01*
X139048571Y-107868809D01*
X138834285Y-108297380D02*
X138786666Y-108321190D01*
X138691428Y-108321190D01*
X138643809Y-108297380D01*
X138620000Y-108249761D01*
X138620000Y-108225952D01*
X138643809Y-108178333D01*
X138691428Y-108154523D01*
X138762857Y-108154523D01*
X138810476Y-108130714D01*
X138834285Y-108083095D01*
X138834285Y-108059285D01*
X138810476Y-108011666D01*
X138762857Y-107987857D01*
X138691428Y-107987857D01*
X138643809Y-108011666D01*
X138405714Y-108321190D02*
X138405714Y-107821190D01*
X138358095Y-108130714D02*
X138215238Y-108321190D01*
X138215238Y-107987857D02*
X138405714Y-108178333D01*
X138000952Y-108321190D02*
X138000952Y-107987857D01*
X138000952Y-107821190D02*
X138024761Y-107845000D01*
X138000952Y-107868809D01*
X137977142Y-107845000D01*
X138000952Y-107821190D01*
X138000952Y-107868809D01*
X137762857Y-108321190D02*
X137762857Y-107821190D01*
X137643809Y-107821190D01*
X137572380Y-107845000D01*
X137524761Y-107892619D01*
X137500952Y-107940238D01*
X137477142Y-108035476D01*
X137477142Y-108106904D01*
X137500952Y-108202142D01*
X137524761Y-108249761D01*
X137572380Y-108297380D01*
X137643809Y-108321190D01*
X137762857Y-108321190D01*
X137286666Y-108297380D02*
X137239047Y-108321190D01*
X137143809Y-108321190D01*
X137096190Y-108297380D01*
X137072380Y-108249761D01*
X137072380Y-108225952D01*
X137096190Y-108178333D01*
X137143809Y-108154523D01*
X137215238Y-108154523D01*
X137262857Y-108130714D01*
X137286666Y-108083095D01*
X137286666Y-108059285D01*
X137262857Y-108011666D01*
X137215238Y-107987857D01*
X137143809Y-107987857D01*
X137096190Y-108011666D01*
X136500952Y-107868809D02*
X136477142Y-107845000D01*
X136429523Y-107821190D01*
X136310476Y-107821190D01*
X136262857Y-107845000D01*
X136239047Y-107868809D01*
X136215238Y-107916428D01*
X136215238Y-107964047D01*
X136239047Y-108035476D01*
X136524761Y-108321190D01*
X136215238Y-108321190D01*
X135905714Y-107821190D02*
X135858095Y-107821190D01*
X135810476Y-107845000D01*
X135786666Y-107868809D01*
X135762857Y-107916428D01*
X135739047Y-108011666D01*
X135739047Y-108130714D01*
X135762857Y-108225952D01*
X135786666Y-108273571D01*
X135810476Y-108297380D01*
X135858095Y-108321190D01*
X135905714Y-108321190D01*
X135953333Y-108297380D01*
X135977142Y-108273571D01*
X136000952Y-108225952D01*
X136024761Y-108130714D01*
X136024761Y-108011666D01*
X136000952Y-107916428D01*
X135977142Y-107868809D01*
X135953333Y-107845000D01*
X135905714Y-107821190D01*
X135548571Y-107868809D02*
X135524761Y-107845000D01*
X135477142Y-107821190D01*
X135358095Y-107821190D01*
X135310476Y-107845000D01*
X135286666Y-107868809D01*
X135262857Y-107916428D01*
X135262857Y-107964047D01*
X135286666Y-108035476D01*
X135572380Y-108321190D01*
X135262857Y-108321190D01*
X135072380Y-107868809D02*
X135048571Y-107845000D01*
X135000952Y-107821190D01*
X134881904Y-107821190D01*
X134834285Y-107845000D01*
X134810476Y-107868809D01*
X134786666Y-107916428D01*
X134786666Y-107964047D01*
X134810476Y-108035476D01*
X135096190Y-108321190D01*
X134786666Y-108321190D01*
M02*
