%FSLAX45Y45*%
G04 Gerber Fmt 4.5, Leading zero omitted, Abs format (unit mm)*
G04 Created by KiCad (PCBNEW (6.0.5)) date 2022-06-13 10:30:56*
%MOMM*%
%LPD*%
G01*
G04 APERTURE LIST*
%TA.AperFunction,Profile*%
%ADD10C,0.050000*%
%TD*%
%TA.AperFunction,Profile*%
%ADD11C,0.010000*%
%TD*%
%ADD12C,0.200000*%
%ADD13C,0.030000*%
%ADD14C,0.100000*%
G04 APERTURE END LIST*
D10*
X13410400Y-9595711D02*
X13412800Y-10772000D01*
X14959000Y-9601200D02*
X14933600Y-10770400D01*
X13512800Y-10872000D02*
X14833600Y-10870400D01*
X14859000Y-9501200D02*
X13510400Y-9495711D01*
D11*
X13510400Y-9495710D02*
G75*
G03*
X13410400Y-9595711I0J-100000D01*
G01*
X13412800Y-10772000D02*
G75*
G03*
X13512800Y-10872000I100000J0D01*
G01*
X14833600Y-10870400D02*
G75*
G03*
X14933600Y-10770400I0J100000D01*
G01*
X14959000Y-9601200D02*
G75*
G03*
X14859000Y-9501200I-100000J0D01*
G01*
D12*
D13*
X13447000Y-10390000D02*
X13477000Y-10420000D01*
X13477000Y-10390000D02*
X13447000Y-10420000D01*
X13497800Y-10169100D02*
X13527800Y-10199100D01*
X13527800Y-10169100D02*
X13497800Y-10199100D01*
X13523200Y-10449800D02*
X13553200Y-10479800D01*
X13553200Y-10449800D02*
X13523200Y-10479800D01*
X13621000Y-9653000D02*
X13651000Y-9683000D01*
X13651000Y-9653000D02*
X13621000Y-9683000D01*
X13648000Y-10332000D02*
X13678000Y-10362000D01*
X13678000Y-10332000D02*
X13648000Y-10362000D01*
X13650200Y-10170400D02*
X13680200Y-10200400D01*
X13680200Y-10170400D02*
X13650200Y-10200400D01*
X13650200Y-10449800D02*
X13680200Y-10479800D01*
X13680200Y-10449800D02*
X13650200Y-10479800D01*
X13802600Y-10169100D02*
X13832600Y-10199100D01*
X13832600Y-10169100D02*
X13802600Y-10199100D01*
X13802600Y-10449800D02*
X13832600Y-10479800D01*
X13832600Y-10449800D02*
X13802600Y-10479800D01*
X13904200Y-10195800D02*
X13934200Y-10225800D01*
X13934200Y-10195800D02*
X13904200Y-10225800D01*
X14031200Y-10576800D02*
X14061200Y-10606800D01*
X14061200Y-10576800D02*
X14031200Y-10606800D01*
X14183600Y-10576800D02*
X14213600Y-10606800D01*
X14213600Y-10576800D02*
X14183600Y-10606800D01*
X14259000Y-10097000D02*
X14289000Y-10127000D01*
X14289000Y-10097000D02*
X14259000Y-10127000D01*
X14361400Y-10297400D02*
X14391400Y-10327400D01*
X14391400Y-10297400D02*
X14361400Y-10327400D01*
X14361400Y-10373600D02*
X14391400Y-10403600D01*
X14391400Y-10373600D02*
X14361400Y-10403600D01*
X14361400Y-10449800D02*
X14391400Y-10479800D01*
X14391400Y-10449800D02*
X14361400Y-10479800D01*
X14361400Y-10576800D02*
X14391400Y-10606800D01*
X14391400Y-10576800D02*
X14361400Y-10606800D01*
X14518000Y-10576000D02*
X14548000Y-10606000D01*
X14548000Y-10576000D02*
X14518000Y-10606000D01*
X14743000Y-10071000D02*
X14773000Y-10101000D01*
X14773000Y-10071000D02*
X14743000Y-10101000D01*
X14890000Y-9996000D02*
X14920000Y-10026000D01*
X14920000Y-9996000D02*
X14890000Y-10026000D01*
D14*
X13842200Y-9652000D02*
G75*
G03*
X13842200Y-9652000I-50000J0D01*
G01*
X13842200Y-9906000D02*
G75*
G03*
X13842200Y-9906000I-50000J0D01*
G01*
X14350200Y-9652000D02*
G75*
G03*
X14350200Y-9652000I-50000J0D01*
G01*
X14350200Y-9906000D02*
G75*
G03*
X14350200Y-9906000I-50000J0D01*
G01*
X14604200Y-9652000D02*
G75*
G03*
X14604200Y-9652000I-50000J0D01*
G01*
X14604200Y-9906000D02*
G75*
G03*
X14604200Y-9906000I-50000J0D01*
G01*
X14858200Y-9652000D02*
G75*
G03*
X14858200Y-9652000I-50000J0D01*
G01*
X14858200Y-9906000D02*
G75*
G03*
X14858200Y-9906000I-50000J0D01*
G01*
D12*
X13665519Y-11184976D02*
X13665519Y-10984976D01*
X13713138Y-10984976D01*
X13741709Y-10994500D01*
X13760757Y-11013548D01*
X13770281Y-11032595D01*
X13779805Y-11070690D01*
X13779805Y-11099262D01*
X13770281Y-11137357D01*
X13760757Y-11156405D01*
X13741709Y-11175452D01*
X13713138Y-11184976D01*
X13665519Y-11184976D01*
X13865519Y-11184976D02*
X13865519Y-11051643D01*
X13865519Y-11089738D02*
X13875043Y-11070690D01*
X13884567Y-11061167D01*
X13903614Y-11051643D01*
X13922662Y-11051643D01*
X13989328Y-11184976D02*
X13989328Y-11051643D01*
X13989328Y-10984976D02*
X13979805Y-10994500D01*
X13989328Y-11004024D01*
X13998852Y-10994500D01*
X13989328Y-10984976D01*
X13989328Y-11004024D01*
X14113138Y-11184976D02*
X14094090Y-11175452D01*
X14084567Y-11156405D01*
X14084567Y-10984976D01*
X14217900Y-11184976D02*
X14198852Y-11175452D01*
X14189328Y-11156405D01*
X14189328Y-10984976D01*
X14446471Y-11184976D02*
X14446471Y-10984976D01*
X14513138Y-11127833D01*
X14579805Y-10984976D01*
X14579805Y-11184976D01*
X14760757Y-11184976D02*
X14760757Y-11080214D01*
X14751233Y-11061167D01*
X14732186Y-11051643D01*
X14694090Y-11051643D01*
X14675043Y-11061167D01*
X14760757Y-11175452D02*
X14741709Y-11184976D01*
X14694090Y-11184976D01*
X14675043Y-11175452D01*
X14665519Y-11156405D01*
X14665519Y-11137357D01*
X14675043Y-11118310D01*
X14694090Y-11108786D01*
X14741709Y-11108786D01*
X14760757Y-11099262D01*
X14855995Y-11051643D02*
X14855995Y-11251643D01*
X14855995Y-11061167D02*
X14875043Y-11051643D01*
X14913138Y-11051643D01*
X14932186Y-11061167D01*
X14941709Y-11070690D01*
X14951233Y-11089738D01*
X14951233Y-11146881D01*
X14941709Y-11165929D01*
X14932186Y-11175452D01*
X14913138Y-11184976D01*
X14875043Y-11184976D01*
X14855995Y-11175452D01*
X15036948Y-11165929D02*
X15046471Y-11175452D01*
X15036948Y-11184976D01*
X15027424Y-11175452D01*
X15036948Y-11165929D01*
X15036948Y-11184976D01*
X15036948Y-11061167D02*
X15046471Y-11070690D01*
X15036948Y-11080214D01*
X15027424Y-11070690D01*
X15036948Y-11061167D01*
X15036948Y-11080214D01*
D13*
X13377900Y-11499500D02*
X13407900Y-11529500D01*
X13407900Y-11499500D02*
X13377900Y-11529500D01*
D12*
X13703614Y-11404976D02*
X13722662Y-11404976D01*
X13741709Y-11414500D01*
X13751233Y-11424024D01*
X13760757Y-11443071D01*
X13770281Y-11481167D01*
X13770281Y-11528786D01*
X13760757Y-11566881D01*
X13751233Y-11585928D01*
X13741709Y-11595452D01*
X13722662Y-11604976D01*
X13703614Y-11604976D01*
X13684567Y-11595452D01*
X13675043Y-11585928D01*
X13665519Y-11566881D01*
X13655995Y-11528786D01*
X13655995Y-11481167D01*
X13665519Y-11443071D01*
X13675043Y-11424024D01*
X13684567Y-11414500D01*
X13703614Y-11404976D01*
X13855995Y-11585928D02*
X13865519Y-11595452D01*
X13855995Y-11604976D01*
X13846471Y-11595452D01*
X13855995Y-11585928D01*
X13855995Y-11604976D01*
X13932186Y-11404976D02*
X14055995Y-11404976D01*
X13989328Y-11481167D01*
X14017900Y-11481167D01*
X14036948Y-11490690D01*
X14046471Y-11500214D01*
X14055995Y-11519262D01*
X14055995Y-11566881D01*
X14046471Y-11585928D01*
X14036948Y-11595452D01*
X14017900Y-11604976D01*
X13960757Y-11604976D01*
X13941709Y-11595452D01*
X13932186Y-11585928D01*
X14179805Y-11404976D02*
X14198852Y-11404976D01*
X14217900Y-11414500D01*
X14227424Y-11424024D01*
X14236948Y-11443071D01*
X14246471Y-11481167D01*
X14246471Y-11528786D01*
X14236948Y-11566881D01*
X14227424Y-11585928D01*
X14217900Y-11595452D01*
X14198852Y-11604976D01*
X14179805Y-11604976D01*
X14160757Y-11595452D01*
X14151233Y-11585928D01*
X14141709Y-11566881D01*
X14132186Y-11528786D01*
X14132186Y-11481167D01*
X14141709Y-11443071D01*
X14151233Y-11424024D01*
X14160757Y-11414500D01*
X14179805Y-11404976D01*
X14370281Y-11404976D02*
X14389328Y-11404976D01*
X14408376Y-11414500D01*
X14417900Y-11424024D01*
X14427424Y-11443071D01*
X14436948Y-11481167D01*
X14436948Y-11528786D01*
X14427424Y-11566881D01*
X14417900Y-11585928D01*
X14408376Y-11595452D01*
X14389328Y-11604976D01*
X14370281Y-11604976D01*
X14351233Y-11595452D01*
X14341709Y-11585928D01*
X14332186Y-11566881D01*
X14322662Y-11528786D01*
X14322662Y-11481167D01*
X14332186Y-11443071D01*
X14341709Y-11424024D01*
X14351233Y-11414500D01*
X14370281Y-11404976D01*
X14522662Y-11604976D02*
X14522662Y-11471643D01*
X14522662Y-11490690D02*
X14532186Y-11481167D01*
X14551233Y-11471643D01*
X14579805Y-11471643D01*
X14598852Y-11481167D01*
X14608376Y-11500214D01*
X14608376Y-11604976D01*
X14608376Y-11500214D02*
X14617900Y-11481167D01*
X14636948Y-11471643D01*
X14665519Y-11471643D01*
X14684567Y-11481167D01*
X14694090Y-11500214D01*
X14694090Y-11604976D01*
X14789328Y-11604976D02*
X14789328Y-11471643D01*
X14789328Y-11490690D02*
X14798852Y-11481167D01*
X14817900Y-11471643D01*
X14846471Y-11471643D01*
X14865519Y-11481167D01*
X14875043Y-11500214D01*
X14875043Y-11604976D01*
X14875043Y-11500214D02*
X14884567Y-11481167D01*
X14903614Y-11471643D01*
X14932186Y-11471643D01*
X14951233Y-11481167D01*
X14960757Y-11500214D01*
X14960757Y-11604976D01*
X15351233Y-11395452D02*
X15179805Y-11652595D01*
X15608376Y-11404976D02*
X15627424Y-11404976D01*
X15646471Y-11414500D01*
X15655995Y-11424024D01*
X15665519Y-11443071D01*
X15675043Y-11481167D01*
X15675043Y-11528786D01*
X15665519Y-11566881D01*
X15655995Y-11585928D01*
X15646471Y-11595452D01*
X15627424Y-11604976D01*
X15608376Y-11604976D01*
X15589328Y-11595452D01*
X15579805Y-11585928D01*
X15570281Y-11566881D01*
X15560757Y-11528786D01*
X15560757Y-11481167D01*
X15570281Y-11443071D01*
X15579805Y-11424024D01*
X15589328Y-11414500D01*
X15608376Y-11404976D01*
X15760757Y-11585928D02*
X15770281Y-11595452D01*
X15760757Y-11604976D01*
X15751233Y-11595452D01*
X15760757Y-11585928D01*
X15760757Y-11604976D01*
X15894090Y-11404976D02*
X15913138Y-11404976D01*
X15932186Y-11414500D01*
X15941709Y-11424024D01*
X15951233Y-11443071D01*
X15960757Y-11481167D01*
X15960757Y-11528786D01*
X15951233Y-11566881D01*
X15941709Y-11585928D01*
X15932186Y-11595452D01*
X15913138Y-11604976D01*
X15894090Y-11604976D01*
X15875043Y-11595452D01*
X15865519Y-11585928D01*
X15855995Y-11566881D01*
X15846471Y-11528786D01*
X15846471Y-11481167D01*
X15855995Y-11443071D01*
X15865519Y-11424024D01*
X15875043Y-11414500D01*
X15894090Y-11404976D01*
X16151233Y-11604976D02*
X16036948Y-11604976D01*
X16094090Y-11604976D02*
X16094090Y-11404976D01*
X16075043Y-11433548D01*
X16055995Y-11452595D01*
X16036948Y-11462119D01*
X16341709Y-11604976D02*
X16227424Y-11604976D01*
X16284567Y-11604976D02*
X16284567Y-11404976D01*
X16265519Y-11433548D01*
X16246471Y-11452595D01*
X16227424Y-11462119D01*
X16455995Y-11490690D02*
X16436948Y-11481167D01*
X16427424Y-11471643D01*
X16417900Y-11452595D01*
X16417900Y-11443071D01*
X16427424Y-11424024D01*
X16436948Y-11414500D01*
X16455995Y-11404976D01*
X16494090Y-11404976D01*
X16513138Y-11414500D01*
X16522662Y-11424024D01*
X16532186Y-11443071D01*
X16532186Y-11452595D01*
X16522662Y-11471643D01*
X16513138Y-11481167D01*
X16494090Y-11490690D01*
X16455995Y-11490690D01*
X16436948Y-11500214D01*
X16427424Y-11509738D01*
X16417900Y-11528786D01*
X16417900Y-11566881D01*
X16427424Y-11585928D01*
X16436948Y-11595452D01*
X16455995Y-11604976D01*
X16494090Y-11604976D01*
X16513138Y-11595452D01*
X16522662Y-11585928D01*
X16532186Y-11566881D01*
X16532186Y-11528786D01*
X16522662Y-11509738D01*
X16513138Y-11500214D01*
X16494090Y-11490690D01*
X16608376Y-11404976D02*
X16608376Y-11443071D01*
X16684567Y-11404976D02*
X16684567Y-11443071D01*
X16979805Y-11681167D02*
X16970281Y-11671643D01*
X16951233Y-11643071D01*
X16941710Y-11624024D01*
X16932186Y-11595452D01*
X16922662Y-11547833D01*
X16922662Y-11509738D01*
X16932186Y-11462119D01*
X16941710Y-11433548D01*
X16951233Y-11414500D01*
X16970281Y-11385928D01*
X16979805Y-11376405D01*
X17046471Y-11424024D02*
X17055995Y-11414500D01*
X17075043Y-11404976D01*
X17122662Y-11404976D01*
X17141710Y-11414500D01*
X17151233Y-11424024D01*
X17160757Y-11443071D01*
X17160757Y-11462119D01*
X17151233Y-11490690D01*
X17036948Y-11604976D01*
X17160757Y-11604976D01*
X17284567Y-11404976D02*
X17303614Y-11404976D01*
X17322662Y-11414500D01*
X17332186Y-11424024D01*
X17341710Y-11443071D01*
X17351233Y-11481167D01*
X17351233Y-11528786D01*
X17341710Y-11566881D01*
X17332186Y-11585928D01*
X17322662Y-11595452D01*
X17303614Y-11604976D01*
X17284567Y-11604976D01*
X17265519Y-11595452D01*
X17255995Y-11585928D01*
X17246471Y-11566881D01*
X17236948Y-11528786D01*
X17236948Y-11481167D01*
X17246471Y-11443071D01*
X17255995Y-11424024D01*
X17265519Y-11414500D01*
X17284567Y-11404976D01*
X17589329Y-11604976D02*
X17589329Y-11404976D01*
X17675043Y-11604976D02*
X17675043Y-11500214D01*
X17665519Y-11481167D01*
X17646471Y-11471643D01*
X17617900Y-11471643D01*
X17598852Y-11481167D01*
X17589329Y-11490690D01*
X17798852Y-11604976D02*
X17779805Y-11595452D01*
X17770281Y-11585928D01*
X17760757Y-11566881D01*
X17760757Y-11509738D01*
X17770281Y-11490690D01*
X17779805Y-11481167D01*
X17798852Y-11471643D01*
X17827424Y-11471643D01*
X17846471Y-11481167D01*
X17855995Y-11490690D01*
X17865519Y-11509738D01*
X17865519Y-11566881D01*
X17855995Y-11585928D01*
X17846471Y-11595452D01*
X17827424Y-11604976D01*
X17798852Y-11604976D01*
X17979805Y-11604976D02*
X17960757Y-11595452D01*
X17951233Y-11576405D01*
X17951233Y-11404976D01*
X18132186Y-11595452D02*
X18113138Y-11604976D01*
X18075043Y-11604976D01*
X18055995Y-11595452D01*
X18046471Y-11576405D01*
X18046471Y-11500214D01*
X18055995Y-11481167D01*
X18075043Y-11471643D01*
X18113138Y-11471643D01*
X18132186Y-11481167D01*
X18141710Y-11500214D01*
X18141710Y-11519262D01*
X18046471Y-11538309D01*
X18217900Y-11595452D02*
X18236948Y-11604976D01*
X18275043Y-11604976D01*
X18294090Y-11595452D01*
X18303614Y-11576405D01*
X18303614Y-11566881D01*
X18294090Y-11547833D01*
X18275043Y-11538309D01*
X18246471Y-11538309D01*
X18227424Y-11528786D01*
X18217900Y-11509738D01*
X18217900Y-11500214D01*
X18227424Y-11481167D01*
X18246471Y-11471643D01*
X18275043Y-11471643D01*
X18294090Y-11481167D01*
X18370281Y-11681167D02*
X18379805Y-11671643D01*
X18398852Y-11643071D01*
X18408376Y-11624024D01*
X18417900Y-11595452D01*
X18427424Y-11547833D01*
X18427424Y-11509738D01*
X18417900Y-11462119D01*
X18408376Y-11433548D01*
X18398852Y-11414500D01*
X18379805Y-11385928D01*
X18370281Y-11376405D01*
D14*
X13407900Y-11778500D02*
G75*
G03*
X13407900Y-11778500I-50000J0D01*
G01*
D12*
X13770281Y-11868976D02*
X13655995Y-11868976D01*
X13713138Y-11868976D02*
X13713138Y-11668976D01*
X13694090Y-11697548D01*
X13675043Y-11716595D01*
X13655995Y-11726119D01*
X13855995Y-11849928D02*
X13865519Y-11859452D01*
X13855995Y-11868976D01*
X13846471Y-11859452D01*
X13855995Y-11849928D01*
X13855995Y-11868976D01*
X13989328Y-11668976D02*
X14008376Y-11668976D01*
X14027424Y-11678500D01*
X14036948Y-11688024D01*
X14046471Y-11707071D01*
X14055995Y-11745167D01*
X14055995Y-11792786D01*
X14046471Y-11830881D01*
X14036948Y-11849928D01*
X14027424Y-11859452D01*
X14008376Y-11868976D01*
X13989328Y-11868976D01*
X13970281Y-11859452D01*
X13960757Y-11849928D01*
X13951233Y-11830881D01*
X13941709Y-11792786D01*
X13941709Y-11745167D01*
X13951233Y-11707071D01*
X13960757Y-11688024D01*
X13970281Y-11678500D01*
X13989328Y-11668976D01*
X14179805Y-11668976D02*
X14198852Y-11668976D01*
X14217900Y-11678500D01*
X14227424Y-11688024D01*
X14236948Y-11707071D01*
X14246471Y-11745167D01*
X14246471Y-11792786D01*
X14236948Y-11830881D01*
X14227424Y-11849928D01*
X14217900Y-11859452D01*
X14198852Y-11868976D01*
X14179805Y-11868976D01*
X14160757Y-11859452D01*
X14151233Y-11849928D01*
X14141709Y-11830881D01*
X14132186Y-11792786D01*
X14132186Y-11745167D01*
X14141709Y-11707071D01*
X14151233Y-11688024D01*
X14160757Y-11678500D01*
X14179805Y-11668976D01*
X14370281Y-11668976D02*
X14389328Y-11668976D01*
X14408376Y-11678500D01*
X14417900Y-11688024D01*
X14427424Y-11707071D01*
X14436948Y-11745167D01*
X14436948Y-11792786D01*
X14427424Y-11830881D01*
X14417900Y-11849928D01*
X14408376Y-11859452D01*
X14389328Y-11868976D01*
X14370281Y-11868976D01*
X14351233Y-11859452D01*
X14341709Y-11849928D01*
X14332186Y-11830881D01*
X14322662Y-11792786D01*
X14322662Y-11745167D01*
X14332186Y-11707071D01*
X14341709Y-11688024D01*
X14351233Y-11678500D01*
X14370281Y-11668976D01*
X14522662Y-11868976D02*
X14522662Y-11735643D01*
X14522662Y-11754690D02*
X14532186Y-11745167D01*
X14551233Y-11735643D01*
X14579805Y-11735643D01*
X14598852Y-11745167D01*
X14608376Y-11764214D01*
X14608376Y-11868976D01*
X14608376Y-11764214D02*
X14617900Y-11745167D01*
X14636948Y-11735643D01*
X14665519Y-11735643D01*
X14684567Y-11745167D01*
X14694090Y-11764214D01*
X14694090Y-11868976D01*
X14789328Y-11868976D02*
X14789328Y-11735643D01*
X14789328Y-11754690D02*
X14798852Y-11745167D01*
X14817900Y-11735643D01*
X14846471Y-11735643D01*
X14865519Y-11745167D01*
X14875043Y-11764214D01*
X14875043Y-11868976D01*
X14875043Y-11764214D02*
X14884567Y-11745167D01*
X14903614Y-11735643D01*
X14932186Y-11735643D01*
X14951233Y-11745167D01*
X14960757Y-11764214D01*
X14960757Y-11868976D01*
X15351233Y-11659452D02*
X15179805Y-11916595D01*
X15608376Y-11668976D02*
X15627424Y-11668976D01*
X15646471Y-11678500D01*
X15655995Y-11688024D01*
X15665519Y-11707071D01*
X15675043Y-11745167D01*
X15675043Y-11792786D01*
X15665519Y-11830881D01*
X15655995Y-11849928D01*
X15646471Y-11859452D01*
X15627424Y-11868976D01*
X15608376Y-11868976D01*
X15589328Y-11859452D01*
X15579805Y-11849928D01*
X15570281Y-11830881D01*
X15560757Y-11792786D01*
X15560757Y-11745167D01*
X15570281Y-11707071D01*
X15579805Y-11688024D01*
X15589328Y-11678500D01*
X15608376Y-11668976D01*
X15760757Y-11849928D02*
X15770281Y-11859452D01*
X15760757Y-11868976D01*
X15751233Y-11859452D01*
X15760757Y-11849928D01*
X15760757Y-11868976D01*
X15894090Y-11668976D02*
X15913138Y-11668976D01*
X15932186Y-11678500D01*
X15941709Y-11688024D01*
X15951233Y-11707071D01*
X15960757Y-11745167D01*
X15960757Y-11792786D01*
X15951233Y-11830881D01*
X15941709Y-11849928D01*
X15932186Y-11859452D01*
X15913138Y-11868976D01*
X15894090Y-11868976D01*
X15875043Y-11859452D01*
X15865519Y-11849928D01*
X15855995Y-11830881D01*
X15846471Y-11792786D01*
X15846471Y-11745167D01*
X15855995Y-11707071D01*
X15865519Y-11688024D01*
X15875043Y-11678500D01*
X15894090Y-11668976D01*
X16027424Y-11668976D02*
X16151233Y-11668976D01*
X16084567Y-11745167D01*
X16113138Y-11745167D01*
X16132186Y-11754690D01*
X16141709Y-11764214D01*
X16151233Y-11783262D01*
X16151233Y-11830881D01*
X16141709Y-11849928D01*
X16132186Y-11859452D01*
X16113138Y-11868976D01*
X16055995Y-11868976D01*
X16036948Y-11859452D01*
X16027424Y-11849928D01*
X16246471Y-11868976D02*
X16284567Y-11868976D01*
X16303614Y-11859452D01*
X16313138Y-11849928D01*
X16332186Y-11821357D01*
X16341709Y-11783262D01*
X16341709Y-11707071D01*
X16332186Y-11688024D01*
X16322662Y-11678500D01*
X16303614Y-11668976D01*
X16265519Y-11668976D01*
X16246471Y-11678500D01*
X16236948Y-11688024D01*
X16227424Y-11707071D01*
X16227424Y-11754690D01*
X16236948Y-11773738D01*
X16246471Y-11783262D01*
X16265519Y-11792786D01*
X16303614Y-11792786D01*
X16322662Y-11783262D01*
X16332186Y-11773738D01*
X16341709Y-11754690D01*
X16513138Y-11735643D02*
X16513138Y-11868976D01*
X16465519Y-11659452D02*
X16417900Y-11802309D01*
X16541709Y-11802309D01*
X16608376Y-11668976D02*
X16608376Y-11707071D01*
X16684567Y-11668976D02*
X16684567Y-11707071D01*
X16979805Y-11945167D02*
X16970281Y-11935643D01*
X16951233Y-11907071D01*
X16941710Y-11888024D01*
X16932186Y-11859452D01*
X16922662Y-11811833D01*
X16922662Y-11773738D01*
X16932186Y-11726119D01*
X16941710Y-11697548D01*
X16951233Y-11678500D01*
X16970281Y-11649928D01*
X16979805Y-11640405D01*
X17084567Y-11754690D02*
X17065519Y-11745167D01*
X17055995Y-11735643D01*
X17046471Y-11716595D01*
X17046471Y-11707071D01*
X17055995Y-11688024D01*
X17065519Y-11678500D01*
X17084567Y-11668976D01*
X17122662Y-11668976D01*
X17141710Y-11678500D01*
X17151233Y-11688024D01*
X17160757Y-11707071D01*
X17160757Y-11716595D01*
X17151233Y-11735643D01*
X17141710Y-11745167D01*
X17122662Y-11754690D01*
X17084567Y-11754690D01*
X17065519Y-11764214D01*
X17055995Y-11773738D01*
X17046471Y-11792786D01*
X17046471Y-11830881D01*
X17055995Y-11849928D01*
X17065519Y-11859452D01*
X17084567Y-11868976D01*
X17122662Y-11868976D01*
X17141710Y-11859452D01*
X17151233Y-11849928D01*
X17160757Y-11830881D01*
X17160757Y-11792786D01*
X17151233Y-11773738D01*
X17141710Y-11764214D01*
X17122662Y-11754690D01*
X17398852Y-11868976D02*
X17398852Y-11668976D01*
X17484567Y-11868976D02*
X17484567Y-11764214D01*
X17475043Y-11745167D01*
X17455995Y-11735643D01*
X17427424Y-11735643D01*
X17408376Y-11745167D01*
X17398852Y-11754690D01*
X17608376Y-11868976D02*
X17589329Y-11859452D01*
X17579805Y-11849928D01*
X17570281Y-11830881D01*
X17570281Y-11773738D01*
X17579805Y-11754690D01*
X17589329Y-11745167D01*
X17608376Y-11735643D01*
X17636948Y-11735643D01*
X17655995Y-11745167D01*
X17665519Y-11754690D01*
X17675043Y-11773738D01*
X17675043Y-11830881D01*
X17665519Y-11849928D01*
X17655995Y-11859452D01*
X17636948Y-11868976D01*
X17608376Y-11868976D01*
X17789329Y-11868976D02*
X17770281Y-11859452D01*
X17760757Y-11840405D01*
X17760757Y-11668976D01*
X17941710Y-11859452D02*
X17922662Y-11868976D01*
X17884567Y-11868976D01*
X17865519Y-11859452D01*
X17855995Y-11840405D01*
X17855995Y-11764214D01*
X17865519Y-11745167D01*
X17884567Y-11735643D01*
X17922662Y-11735643D01*
X17941710Y-11745167D01*
X17951233Y-11764214D01*
X17951233Y-11783262D01*
X17855995Y-11802309D01*
X18027424Y-11859452D02*
X18046471Y-11868976D01*
X18084567Y-11868976D01*
X18103614Y-11859452D01*
X18113138Y-11840405D01*
X18113138Y-11830881D01*
X18103614Y-11811833D01*
X18084567Y-11802309D01*
X18055995Y-11802309D01*
X18036948Y-11792786D01*
X18027424Y-11773738D01*
X18027424Y-11764214D01*
X18036948Y-11745167D01*
X18055995Y-11735643D01*
X18084567Y-11735643D01*
X18103614Y-11745167D01*
X18179805Y-11945167D02*
X18189329Y-11935643D01*
X18208376Y-11907071D01*
X18217900Y-11888024D01*
X18227424Y-11859452D01*
X18236948Y-11811833D01*
X18236948Y-11773738D01*
X18227424Y-11726119D01*
X18217900Y-11697548D01*
X18208376Y-11678500D01*
X18189329Y-11649928D01*
X18179805Y-11640405D01*
M02*
