%TF.GenerationSoftware,KiCad,Pcbnew,(6.0.10)*%
%TF.CreationDate,2023-12-30T01:12:33+11:00*%
%TF.ProjectId,1-Chip,312d4368-6970-42e6-9b69-6361645f7063,3.2*%
%TF.SameCoordinates,Original*%
%TF.FileFunction,Legend,Bot*%
%TF.FilePolarity,Positive*%
%FSLAX46Y46*%
G04 Gerber Fmt 4.6, Leading zero omitted, Abs format (unit mm)*
G04 Created by KiCad (PCBNEW (6.0.10)) date 2023-12-30 01:12:33*
%MOMM*%
%LPD*%
G01*
G04 APERTURE LIST*
%ADD10C,0.125000*%
G04 APERTURE END LIST*
D10*
X152966666Y-106849809D02*
X152866666Y-106887904D01*
X152700000Y-106887904D01*
X152633333Y-106849809D01*
X152600000Y-106811714D01*
X152566666Y-106735523D01*
X152566666Y-106659333D01*
X152600000Y-106583142D01*
X152633333Y-106545047D01*
X152700000Y-106506952D01*
X152833333Y-106468857D01*
X152900000Y-106430761D01*
X152933333Y-106392666D01*
X152966666Y-106316476D01*
X152966666Y-106240285D01*
X152933333Y-106164095D01*
X152900000Y-106126000D01*
X152833333Y-106087904D01*
X152666666Y-106087904D01*
X152566666Y-106126000D01*
X152266666Y-106087904D02*
X152266666Y-106735523D01*
X152233333Y-106811714D01*
X152200000Y-106849809D01*
X152133333Y-106887904D01*
X152000000Y-106887904D01*
X151933333Y-106849809D01*
X151900000Y-106811714D01*
X151866666Y-106735523D01*
X151866666Y-106087904D01*
X151533333Y-106887904D02*
X151533333Y-106087904D01*
X151266666Y-106087904D01*
X151200000Y-106126000D01*
X151166666Y-106164095D01*
X151133333Y-106240285D01*
X151133333Y-106354571D01*
X151166666Y-106430761D01*
X151200000Y-106468857D01*
X151266666Y-106506952D01*
X151533333Y-106506952D01*
X150833333Y-106468857D02*
X150600000Y-106468857D01*
X150500000Y-106887904D02*
X150833333Y-106887904D01*
X150833333Y-106087904D01*
X150500000Y-106087904D01*
X149800000Y-106887904D02*
X150033333Y-106506952D01*
X150200000Y-106887904D02*
X150200000Y-106087904D01*
X149933333Y-106087904D01*
X149866666Y-106126000D01*
X149833333Y-106164095D01*
X149800000Y-106240285D01*
X149800000Y-106354571D01*
X149833333Y-106430761D01*
X149866666Y-106468857D01*
X149933333Y-106506952D01*
X150200000Y-106506952D01*
X149500000Y-106583142D02*
X148966666Y-106583142D01*
X148266666Y-106887904D02*
X148666666Y-106887904D01*
X148466666Y-106887904D02*
X148466666Y-106087904D01*
X148533333Y-106202190D01*
X148600000Y-106278380D01*
X148666666Y-106316476D01*
X147033333Y-106887904D02*
X147266666Y-106506952D01*
X147433333Y-106887904D02*
X147433333Y-106087904D01*
X147166666Y-106087904D01*
X147100000Y-106126000D01*
X147066666Y-106164095D01*
X147033333Y-106240285D01*
X147033333Y-106354571D01*
X147066666Y-106430761D01*
X147100000Y-106468857D01*
X147166666Y-106506952D01*
X147433333Y-106506952D01*
X146366666Y-106126000D02*
X146433333Y-106087904D01*
X146533333Y-106087904D01*
X146633333Y-106126000D01*
X146700000Y-106202190D01*
X146733333Y-106278380D01*
X146766666Y-106430761D01*
X146766666Y-106545047D01*
X146733333Y-106697428D01*
X146700000Y-106773619D01*
X146633333Y-106849809D01*
X146533333Y-106887904D01*
X146466666Y-106887904D01*
X146366666Y-106849809D01*
X146333333Y-106811714D01*
X146333333Y-106545047D01*
X146466666Y-106545047D01*
X145800000Y-106468857D02*
X145700000Y-106506952D01*
X145666666Y-106545047D01*
X145633333Y-106621238D01*
X145633333Y-106735523D01*
X145666666Y-106811714D01*
X145700000Y-106849809D01*
X145766666Y-106887904D01*
X146033333Y-106887904D01*
X146033333Y-106087904D01*
X145800000Y-106087904D01*
X145733333Y-106126000D01*
X145700000Y-106164095D01*
X145666666Y-106240285D01*
X145666666Y-106316476D01*
X145700000Y-106392666D01*
X145733333Y-106430761D01*
X145800000Y-106468857D01*
X146033333Y-106468857D01*
X144300000Y-106049809D02*
X144900000Y-107078380D01*
X143566666Y-106849809D02*
X143466666Y-106887904D01*
X143300000Y-106887904D01*
X143233333Y-106849809D01*
X143200000Y-106811714D01*
X143166666Y-106735523D01*
X143166666Y-106659333D01*
X143200000Y-106583142D01*
X143233333Y-106545047D01*
X143300000Y-106506952D01*
X143433333Y-106468857D01*
X143500000Y-106430761D01*
X143533333Y-106392666D01*
X143566666Y-106316476D01*
X143566666Y-106240285D01*
X143533333Y-106164095D01*
X143500000Y-106126000D01*
X143433333Y-106087904D01*
X143266666Y-106087904D01*
X143166666Y-106126000D01*
X142866666Y-106583142D02*
X142333333Y-106583142D01*
X142100000Y-106087904D02*
X141866666Y-106887904D01*
X141633333Y-106087904D01*
X141400000Y-106887904D02*
X141400000Y-106354571D01*
X141400000Y-106087904D02*
X141433333Y-106126000D01*
X141400000Y-106164095D01*
X141366666Y-106126000D01*
X141400000Y-106087904D01*
X141400000Y-106164095D01*
X140766666Y-106887904D02*
X140766666Y-106087904D01*
X140766666Y-106849809D02*
X140833333Y-106887904D01*
X140966666Y-106887904D01*
X141033333Y-106849809D01*
X141066666Y-106811714D01*
X141100000Y-106735523D01*
X141100000Y-106506952D01*
X141066666Y-106430761D01*
X141033333Y-106392666D01*
X140966666Y-106354571D01*
X140833333Y-106354571D01*
X140766666Y-106392666D01*
X140166666Y-106849809D02*
X140233333Y-106887904D01*
X140366666Y-106887904D01*
X140433333Y-106849809D01*
X140466666Y-106773619D01*
X140466666Y-106468857D01*
X140433333Y-106392666D01*
X140366666Y-106354571D01*
X140233333Y-106354571D01*
X140166666Y-106392666D01*
X140133333Y-106468857D01*
X140133333Y-106545047D01*
X140466666Y-106621238D01*
X139733333Y-106887904D02*
X139800000Y-106849809D01*
X139833333Y-106811714D01*
X139866666Y-106735523D01*
X139866666Y-106506952D01*
X139833333Y-106430761D01*
X139800000Y-106392666D01*
X139733333Y-106354571D01*
X139633333Y-106354571D01*
X139566666Y-106392666D01*
X139533333Y-106430761D01*
X139500000Y-106506952D01*
X139500000Y-106735523D01*
X139533333Y-106811714D01*
X139566666Y-106849809D01*
X139633333Y-106887904D01*
X139733333Y-106887904D01*
X138266666Y-106887904D02*
X138500000Y-106506952D01*
X138666666Y-106887904D02*
X138666666Y-106087904D01*
X138400000Y-106087904D01*
X138333333Y-106126000D01*
X138300000Y-106164095D01*
X138266666Y-106240285D01*
X138266666Y-106354571D01*
X138300000Y-106430761D01*
X138333333Y-106468857D01*
X138400000Y-106506952D01*
X138666666Y-106506952D01*
X137700000Y-106849809D02*
X137766666Y-106887904D01*
X137900000Y-106887904D01*
X137966666Y-106849809D01*
X138000000Y-106773619D01*
X138000000Y-106468857D01*
X137966666Y-106392666D01*
X137900000Y-106354571D01*
X137766666Y-106354571D01*
X137700000Y-106392666D01*
X137666666Y-106468857D01*
X137666666Y-106545047D01*
X138000000Y-106621238D01*
X137400000Y-106849809D02*
X137333333Y-106887904D01*
X137200000Y-106887904D01*
X137133333Y-106849809D01*
X137100000Y-106773619D01*
X137100000Y-106735523D01*
X137133333Y-106659333D01*
X137200000Y-106621238D01*
X137300000Y-106621238D01*
X137366666Y-106583142D01*
X137400000Y-106506952D01*
X137400000Y-106468857D01*
X137366666Y-106392666D01*
X137300000Y-106354571D01*
X137200000Y-106354571D01*
X137133333Y-106392666D01*
X136900000Y-106354571D02*
X136633333Y-106354571D01*
X136800000Y-106087904D02*
X136800000Y-106773619D01*
X136766666Y-106849809D01*
X136700000Y-106887904D01*
X136633333Y-106887904D01*
X136300000Y-106887904D02*
X136366666Y-106849809D01*
X136400000Y-106811714D01*
X136433333Y-106735523D01*
X136433333Y-106506952D01*
X136400000Y-106430761D01*
X136366666Y-106392666D01*
X136300000Y-106354571D01*
X136200000Y-106354571D01*
X136133333Y-106392666D01*
X136100000Y-106430761D01*
X136066666Y-106506952D01*
X136066666Y-106735523D01*
X136100000Y-106811714D01*
X136133333Y-106849809D01*
X136200000Y-106887904D01*
X136300000Y-106887904D01*
X135766666Y-106887904D02*
X135766666Y-106354571D01*
X135766666Y-106506952D02*
X135733333Y-106430761D01*
X135700000Y-106392666D01*
X135633333Y-106354571D01*
X135566666Y-106354571D01*
X135066666Y-106849809D02*
X135133333Y-106887904D01*
X135266666Y-106887904D01*
X135333333Y-106849809D01*
X135366666Y-106773619D01*
X135366666Y-106468857D01*
X135333333Y-106392666D01*
X135266666Y-106354571D01*
X135133333Y-106354571D01*
X135066666Y-106392666D01*
X135033333Y-106468857D01*
X135033333Y-106545047D01*
X135366666Y-106621238D01*
X148810000Y-107816190D02*
X148643333Y-108316190D01*
X148476666Y-107816190D01*
X148333809Y-107863809D02*
X148310000Y-107840000D01*
X148262380Y-107816190D01*
X148143333Y-107816190D01*
X148095714Y-107840000D01*
X148071904Y-107863809D01*
X148048095Y-107911428D01*
X148048095Y-107959047D01*
X148071904Y-108030476D01*
X148357619Y-108316190D01*
X148048095Y-108316190D01*
X147833809Y-108268571D02*
X147810000Y-108292380D01*
X147833809Y-108316190D01*
X147857619Y-108292380D01*
X147833809Y-108268571D01*
X147833809Y-108316190D01*
X147500476Y-107816190D02*
X147452857Y-107816190D01*
X147405238Y-107840000D01*
X147381428Y-107863809D01*
X147357619Y-107911428D01*
X147333809Y-108006666D01*
X147333809Y-108125714D01*
X147357619Y-108220952D01*
X147381428Y-108268571D01*
X147405238Y-108292380D01*
X147452857Y-108316190D01*
X147500476Y-108316190D01*
X147548095Y-108292380D01*
X147571904Y-108268571D01*
X147595714Y-108220952D01*
X147619523Y-108125714D01*
X147619523Y-108006666D01*
X147595714Y-107911428D01*
X147571904Y-107863809D01*
X147548095Y-107840000D01*
X147500476Y-107816190D01*
X147024285Y-107816190D02*
X146976666Y-107816190D01*
X146929047Y-107840000D01*
X146905238Y-107863809D01*
X146881428Y-107911428D01*
X146857619Y-108006666D01*
X146857619Y-108125714D01*
X146881428Y-108220952D01*
X146905238Y-108268571D01*
X146929047Y-108292380D01*
X146976666Y-108316190D01*
X147024285Y-108316190D01*
X147071904Y-108292380D01*
X147095714Y-108268571D01*
X147119523Y-108220952D01*
X147143333Y-108125714D01*
X147143333Y-108006666D01*
X147119523Y-107911428D01*
X147095714Y-107863809D01*
X147071904Y-107840000D01*
X147024285Y-107816190D01*
X142120952Y-107811190D02*
X141954285Y-108311190D01*
X141787619Y-107811190D01*
X141406666Y-108311190D02*
X141406666Y-108049285D01*
X141430476Y-108001666D01*
X141478095Y-107977857D01*
X141573333Y-107977857D01*
X141620952Y-108001666D01*
X141406666Y-108287380D02*
X141454285Y-108311190D01*
X141573333Y-108311190D01*
X141620952Y-108287380D01*
X141644761Y-108239761D01*
X141644761Y-108192142D01*
X141620952Y-108144523D01*
X141573333Y-108120714D01*
X141454285Y-108120714D01*
X141406666Y-108096904D01*
X141168571Y-107977857D02*
X141168571Y-108406428D01*
X141192380Y-108454047D01*
X141240000Y-108477857D01*
X141263809Y-108477857D01*
X141168571Y-107811190D02*
X141192380Y-107835000D01*
X141168571Y-107858809D01*
X141144761Y-107835000D01*
X141168571Y-107811190D01*
X141168571Y-107858809D01*
X140954285Y-108287380D02*
X140906666Y-108311190D01*
X140811428Y-108311190D01*
X140763809Y-108287380D01*
X140740000Y-108239761D01*
X140740000Y-108215952D01*
X140763809Y-108168333D01*
X140811428Y-108144523D01*
X140882857Y-108144523D01*
X140930476Y-108120714D01*
X140954285Y-108073095D01*
X140954285Y-108049285D01*
X140930476Y-108001666D01*
X140882857Y-107977857D01*
X140811428Y-107977857D01*
X140763809Y-108001666D01*
X140525714Y-108311190D02*
X140525714Y-107811190D01*
X140478095Y-108120714D02*
X140335238Y-108311190D01*
X140335238Y-107977857D02*
X140525714Y-108168333D01*
X140120952Y-108311190D02*
X140120952Y-107977857D01*
X140120952Y-107811190D02*
X140144761Y-107835000D01*
X140120952Y-107858809D01*
X140097142Y-107835000D01*
X140120952Y-107811190D01*
X140120952Y-107858809D01*
X139882857Y-108311190D02*
X139882857Y-107811190D01*
X139763809Y-107811190D01*
X139692380Y-107835000D01*
X139644761Y-107882619D01*
X139620952Y-107930238D01*
X139597142Y-108025476D01*
X139597142Y-108096904D01*
X139620952Y-108192142D01*
X139644761Y-108239761D01*
X139692380Y-108287380D01*
X139763809Y-108311190D01*
X139882857Y-108311190D01*
X139406666Y-108287380D02*
X139359047Y-108311190D01*
X139263809Y-108311190D01*
X139216190Y-108287380D01*
X139192380Y-108239761D01*
X139192380Y-108215952D01*
X139216190Y-108168333D01*
X139263809Y-108144523D01*
X139335238Y-108144523D01*
X139382857Y-108120714D01*
X139406666Y-108073095D01*
X139406666Y-108049285D01*
X139382857Y-108001666D01*
X139335238Y-107977857D01*
X139263809Y-107977857D01*
X139216190Y-108001666D01*
X138644761Y-107811190D02*
X138335238Y-107811190D01*
X138501904Y-108001666D01*
X138430476Y-108001666D01*
X138382857Y-108025476D01*
X138359047Y-108049285D01*
X138335238Y-108096904D01*
X138335238Y-108215952D01*
X138359047Y-108263571D01*
X138382857Y-108287380D01*
X138430476Y-108311190D01*
X138573333Y-108311190D01*
X138620952Y-108287380D01*
X138644761Y-108263571D01*
X138025714Y-107811190D02*
X137978095Y-107811190D01*
X137930476Y-107835000D01*
X137906666Y-107858809D01*
X137882857Y-107906428D01*
X137859047Y-108001666D01*
X137859047Y-108120714D01*
X137882857Y-108215952D01*
X137906666Y-108263571D01*
X137930476Y-108287380D01*
X137978095Y-108311190D01*
X138025714Y-108311190D01*
X138073333Y-108287380D01*
X138097142Y-108263571D01*
X138120952Y-108215952D01*
X138144761Y-108120714D01*
X138144761Y-108001666D01*
X138120952Y-107906428D01*
X138097142Y-107858809D01*
X138073333Y-107835000D01*
X138025714Y-107811190D01*
X137287619Y-107787380D02*
X137716190Y-108430238D01*
X136859047Y-108311190D02*
X137144761Y-108311190D01*
X137001904Y-108311190D02*
X137001904Y-107811190D01*
X137049523Y-107882619D01*
X137097142Y-107930238D01*
X137144761Y-107954047D01*
X136668571Y-107858809D02*
X136644761Y-107835000D01*
X136597142Y-107811190D01*
X136478095Y-107811190D01*
X136430476Y-107835000D01*
X136406666Y-107858809D01*
X136382857Y-107906428D01*
X136382857Y-107954047D01*
X136406666Y-108025476D01*
X136692380Y-108311190D01*
X136382857Y-108311190D01*
X135811428Y-107787380D02*
X136240000Y-108430238D01*
X135668571Y-107858809D02*
X135644761Y-107835000D01*
X135597142Y-107811190D01*
X135478095Y-107811190D01*
X135430476Y-107835000D01*
X135406666Y-107858809D01*
X135382857Y-107906428D01*
X135382857Y-107954047D01*
X135406666Y-108025476D01*
X135692380Y-108311190D01*
X135382857Y-108311190D01*
X135216190Y-107811190D02*
X134906666Y-107811190D01*
X135073333Y-108001666D01*
X135001904Y-108001666D01*
X134954285Y-108025476D01*
X134930476Y-108049285D01*
X134906666Y-108096904D01*
X134906666Y-108215952D01*
X134930476Y-108263571D01*
X134954285Y-108287380D01*
X135001904Y-108311190D01*
X135144761Y-108311190D01*
X135192380Y-108287380D01*
X135216190Y-108263571D01*
M02*
