%TF.GenerationSoftware,KiCad,Pcbnew,(6.0.10)*%
%TF.CreationDate,2023-12-30T01:12:33+11:00*%
%TF.ProjectId,1-Chip,312d4368-6970-42e6-9b69-6361645f7063,3.2*%
%TF.SameCoordinates,Original*%
%TF.FileFunction,Soldermask,Top*%
%TF.FilePolarity,Negative*%
%FSLAX46Y46*%
G04 Gerber Fmt 4.6, Leading zero omitted, Abs format (unit mm)*
G04 Created by KiCad (PCBNEW (6.0.10)) date 2023-12-30 01:12:33*
%MOMM*%
%LPD*%
G01*
G04 APERTURE LIST*
G04 Aperture macros list*
%AMRoundRect*
0 Rectangle with rounded corners*
0 $1 Rounding radius*
0 $2 $3 $4 $5 $6 $7 $8 $9 X,Y pos of 4 corners*
0 Add a 4 corners polygon primitive as box body*
4,1,4,$2,$3,$4,$5,$6,$7,$8,$9,$2,$3,0*
0 Add four circle primitives for the rounded corners*
1,1,$1+$1,$2,$3*
1,1,$1+$1,$4,$5*
1,1,$1+$1,$6,$7*
1,1,$1+$1,$8,$9*
0 Add four rect primitives between the rounded corners*
20,1,$1+$1,$2,$3,$4,$5,0*
20,1,$1+$1,$4,$5,$6,$7,0*
20,1,$1+$1,$6,$7,$8,$9,0*
20,1,$1+$1,$8,$9,$2,$3,0*%
G04 Aperture macros list end*
%ADD10RoundRect,0.275800X-0.250000X0.225000X-0.250000X-0.225000X0.250000X-0.225000X0.250000X0.225000X0*%
%ADD11C,1.101600*%
%ADD12C,1.801600*%
%ADD13O,1.801600X1.801600*%
%ADD14RoundRect,0.050800X-0.525000X-1.050000X0.525000X-1.050000X0.525000X1.050000X-0.525000X1.050000X0*%
%ADD15RoundRect,0.050800X-0.375000X0.250000X-0.375000X-0.250000X0.375000X-0.250000X0.375000X0.250000X0*%
%ADD16RoundRect,0.200800X-0.150000X0.512500X-0.150000X-0.512500X0.150000X-0.512500X0.150000X0.512500X0*%
%ADD17RoundRect,0.275800X0.225000X0.250000X-0.225000X0.250000X-0.225000X-0.250000X0.225000X-0.250000X0*%
%ADD18RoundRect,0.050800X-0.250000X-0.375000X0.250000X-0.375000X0.250000X0.375000X-0.250000X0.375000X0*%
%ADD19RoundRect,0.275800X-0.225000X-0.250000X0.225000X-0.250000X0.225000X0.250000X-0.225000X0.250000X0*%
%ADD20RoundRect,0.125800X-0.650000X-0.075000X0.650000X-0.075000X0.650000X0.075000X-0.650000X0.075000X0*%
%ADD21RoundRect,0.125800X-0.550000X-0.075000X0.550000X-0.075000X0.550000X0.075000X-0.550000X0.075000X0*%
%ADD22RoundRect,0.050800X-0.840000X-0.940000X0.840000X-0.940000X0.840000X0.940000X-0.840000X0.940000X0*%
%ADD23RoundRect,0.125800X-0.225000X-0.075000X0.225000X-0.075000X0.225000X0.075000X-0.225000X0.075000X0*%
G04 APERTURE END LIST*
D10*
X152250000Y-100975000D03*
X152250000Y-102525000D03*
X152250000Y-97725000D03*
X152250000Y-99275000D03*
D11*
X135380000Y-99070000D03*
X135380000Y-96530000D03*
D12*
X148080000Y-99070000D03*
X148080000Y-96530000D03*
D13*
X145540000Y-99070000D03*
X145540000Y-96530000D03*
X143000000Y-99070000D03*
X143000000Y-96530000D03*
X137920000Y-99070000D03*
X137920000Y-96530000D03*
D14*
X150490000Y-104700000D03*
X150490000Y-107420000D03*
D10*
X150550000Y-100975000D03*
X150550000Y-102525000D03*
X150550000Y-97725000D03*
X150550000Y-99275000D03*
D13*
X140460000Y-99070000D03*
X140460000Y-96530000D03*
D14*
X140409000Y-107401000D03*
X142009000Y-107401000D03*
X143609000Y-107401000D03*
D10*
X136652000Y-105397000D03*
X136652000Y-106947000D03*
X138176000Y-101066000D03*
X138176000Y-102616000D03*
X136652000Y-101079000D03*
X136652000Y-102629000D03*
X147320000Y-107455000D03*
X147320000Y-105905000D03*
X135128000Y-101066000D03*
X135128000Y-102616000D03*
D14*
X145288000Y-107442000D03*
D15*
X148844000Y-106159000D03*
X148844000Y-106809000D03*
D16*
X147574000Y-101854000D03*
X148524000Y-101854000D03*
X148524000Y-104129000D03*
X146624000Y-101854000D03*
X146624000Y-104129000D03*
D17*
X145047000Y-101092000D03*
X143497000Y-101092000D03*
D18*
X136002000Y-97790000D03*
X136652000Y-97790000D03*
D10*
X135128000Y-105423000D03*
X135128000Y-106973000D03*
D19*
X140435000Y-101100000D03*
X141985000Y-101100000D03*
D10*
X138176000Y-105410000D03*
X138176000Y-106960000D03*
D20*
X140432000Y-102670000D03*
X140432000Y-103170000D03*
X140432000Y-103670000D03*
X140432000Y-104170000D03*
D21*
X144732000Y-104170000D03*
X144732000Y-103670000D03*
X144732000Y-103170000D03*
D22*
X142582000Y-103670000D03*
D23*
X144732000Y-104670000D03*
D20*
X144732000Y-102670000D03*
X140432000Y-104670000D03*
G36*
X148436841Y-106445029D02*
G01*
X148450339Y-106454048D01*
X148469199Y-106457800D01*
X149218801Y-106457800D01*
X149237661Y-106454048D01*
X149251159Y-106445029D01*
X149253155Y-106444898D01*
X149254266Y-106446561D01*
X149253933Y-106447803D01*
X149252799Y-106449501D01*
X149243513Y-106496184D01*
X149252687Y-106518331D01*
X149253933Y-106520197D01*
X149254064Y-106522193D01*
X149252401Y-106523304D01*
X149251159Y-106522971D01*
X149237661Y-106513952D01*
X149218801Y-106510200D01*
X148469199Y-106510200D01*
X148450339Y-106513952D01*
X148436841Y-106522971D01*
X148434845Y-106523102D01*
X148433734Y-106521439D01*
X148434067Y-106520197D01*
X148435201Y-106518499D01*
X148444487Y-106471816D01*
X148435313Y-106449669D01*
X148434067Y-106447803D01*
X148433936Y-106445807D01*
X148435599Y-106444696D01*
X148436841Y-106445029D01*
G37*
G36*
X145052405Y-104369800D02*
G01*
X145052405Y-104371800D01*
X145051438Y-104372648D01*
X145007305Y-104390928D01*
X144989341Y-104434298D01*
X145007622Y-104478433D01*
X145007361Y-104480416D01*
X145005513Y-104481181D01*
X145004663Y-104480861D01*
X145004363Y-104480661D01*
X144956801Y-104471200D01*
X144507199Y-104471200D01*
X144459637Y-104480661D01*
X144451484Y-104486109D01*
X144449488Y-104486240D01*
X144448377Y-104484577D01*
X144448710Y-104483335D01*
X144473480Y-104446266D01*
X144464322Y-104400224D01*
X144425018Y-104373961D01*
X144413128Y-104372790D01*
X144411502Y-104371625D01*
X144411698Y-104369635D01*
X144413324Y-104368800D01*
X145050673Y-104368800D01*
X145052405Y-104369800D01*
G37*
G36*
X141128517Y-104360527D02*
G01*
X141128907Y-104362489D01*
X141128124Y-104363509D01*
X141121938Y-104367643D01*
X141123391Y-104369818D01*
X141123522Y-104371814D01*
X141122839Y-104372592D01*
X141102886Y-104385924D01*
X141093728Y-104431967D01*
X141119932Y-104471182D01*
X141120402Y-104471377D01*
X141120748Y-104471562D01*
X141128124Y-104476491D01*
X141129009Y-104478285D01*
X141127897Y-104479948D01*
X141126623Y-104480116D01*
X141081801Y-104471200D01*
X139782199Y-104471200D01*
X139737377Y-104480116D01*
X139735483Y-104479473D01*
X139735093Y-104477511D01*
X139735876Y-104476491D01*
X139742062Y-104472357D01*
X139740609Y-104470182D01*
X139740478Y-104468186D01*
X139741161Y-104467408D01*
X139761114Y-104454076D01*
X139770272Y-104408033D01*
X139744068Y-104368818D01*
X139743598Y-104368623D01*
X139743252Y-104368438D01*
X139735876Y-104363509D01*
X139734991Y-104361715D01*
X139736103Y-104360052D01*
X139737377Y-104359884D01*
X139782199Y-104368800D01*
X141081801Y-104368800D01*
X141126623Y-104359884D01*
X141128517Y-104360527D01*
G37*
G36*
X141128517Y-103860527D02*
G01*
X141128907Y-103862489D01*
X141128124Y-103863509D01*
X141121938Y-103867643D01*
X141123391Y-103869818D01*
X141123522Y-103871814D01*
X141122839Y-103872592D01*
X141102886Y-103885924D01*
X141093728Y-103931967D01*
X141119932Y-103971182D01*
X141120402Y-103971377D01*
X141120748Y-103971562D01*
X141128124Y-103976491D01*
X141129009Y-103978285D01*
X141127897Y-103979948D01*
X141126623Y-103980116D01*
X141081801Y-103971200D01*
X139782199Y-103971200D01*
X139737377Y-103980116D01*
X139735483Y-103979473D01*
X139735093Y-103977511D01*
X139735876Y-103976491D01*
X139742062Y-103972357D01*
X139740609Y-103970182D01*
X139740478Y-103968186D01*
X139741161Y-103967408D01*
X139761114Y-103954076D01*
X139770272Y-103908033D01*
X139744068Y-103868818D01*
X139743598Y-103868623D01*
X139743252Y-103868438D01*
X139735876Y-103863509D01*
X139734991Y-103861715D01*
X139736103Y-103860052D01*
X139737377Y-103859884D01*
X139782199Y-103868800D01*
X141081801Y-103868800D01*
X141126623Y-103859884D01*
X141128517Y-103860527D01*
G37*
G36*
X145328517Y-103860527D02*
G01*
X145328907Y-103862489D01*
X145328124Y-103863509D01*
X145321938Y-103867643D01*
X145323391Y-103869818D01*
X145323522Y-103871814D01*
X145322839Y-103872592D01*
X145302886Y-103885924D01*
X145293728Y-103931967D01*
X145319932Y-103971182D01*
X145320402Y-103971377D01*
X145320748Y-103971562D01*
X145328124Y-103976491D01*
X145329009Y-103978285D01*
X145327897Y-103979948D01*
X145326623Y-103980116D01*
X145281801Y-103971200D01*
X144182199Y-103971200D01*
X144137377Y-103980116D01*
X144135483Y-103979473D01*
X144135093Y-103977511D01*
X144135876Y-103976491D01*
X144142062Y-103972357D01*
X144140609Y-103970182D01*
X144140478Y-103968186D01*
X144141161Y-103967408D01*
X144161114Y-103954076D01*
X144170272Y-103908033D01*
X144144068Y-103868818D01*
X144143598Y-103868623D01*
X144143252Y-103868438D01*
X144135876Y-103863509D01*
X144134991Y-103861715D01*
X144136103Y-103860052D01*
X144137377Y-103859884D01*
X144182199Y-103868800D01*
X145281801Y-103868800D01*
X145326623Y-103859884D01*
X145328517Y-103860527D01*
G37*
G36*
X141128517Y-103360527D02*
G01*
X141128907Y-103362489D01*
X141128124Y-103363509D01*
X141121938Y-103367643D01*
X141123391Y-103369818D01*
X141123522Y-103371814D01*
X141122839Y-103372592D01*
X141102886Y-103385924D01*
X141093728Y-103431967D01*
X141119932Y-103471182D01*
X141120402Y-103471377D01*
X141120748Y-103471562D01*
X141128124Y-103476491D01*
X141129009Y-103478285D01*
X141127897Y-103479948D01*
X141126623Y-103480116D01*
X141081801Y-103471200D01*
X139782199Y-103471200D01*
X139737377Y-103480116D01*
X139735483Y-103479473D01*
X139735093Y-103477511D01*
X139735876Y-103476491D01*
X139742062Y-103472357D01*
X139740609Y-103470182D01*
X139740478Y-103468186D01*
X139741161Y-103467408D01*
X139761114Y-103454076D01*
X139770272Y-103408033D01*
X139744068Y-103368818D01*
X139743598Y-103368623D01*
X139743252Y-103368438D01*
X139735876Y-103363509D01*
X139734991Y-103361715D01*
X139736103Y-103360052D01*
X139737377Y-103359884D01*
X139782199Y-103368800D01*
X141081801Y-103368800D01*
X141126623Y-103359884D01*
X141128517Y-103360527D01*
G37*
G36*
X145328517Y-103360527D02*
G01*
X145328907Y-103362489D01*
X145328124Y-103363509D01*
X145321938Y-103367643D01*
X145323391Y-103369818D01*
X145323522Y-103371814D01*
X145322839Y-103372592D01*
X145302886Y-103385924D01*
X145293728Y-103431967D01*
X145319932Y-103471182D01*
X145320402Y-103471377D01*
X145320748Y-103471562D01*
X145328124Y-103476491D01*
X145329009Y-103478285D01*
X145327897Y-103479948D01*
X145326623Y-103480116D01*
X145281801Y-103471200D01*
X144182199Y-103471200D01*
X144137377Y-103480116D01*
X144135483Y-103479473D01*
X144135093Y-103477511D01*
X144135876Y-103476491D01*
X144142062Y-103472357D01*
X144140609Y-103470182D01*
X144140478Y-103468186D01*
X144141161Y-103467408D01*
X144161114Y-103454076D01*
X144170272Y-103408033D01*
X144144068Y-103368818D01*
X144143598Y-103368623D01*
X144143252Y-103368438D01*
X144135876Y-103363509D01*
X144134991Y-103361715D01*
X144136103Y-103360052D01*
X144137377Y-103359884D01*
X144182199Y-103368800D01*
X145281801Y-103368800D01*
X145326623Y-103359884D01*
X145328517Y-103360527D01*
G37*
G36*
X145377405Y-102869800D02*
G01*
X145377405Y-102871800D01*
X145376436Y-102872649D01*
X145376373Y-102872675D01*
X145376000Y-102872788D01*
X145371520Y-102873679D01*
X145371167Y-102874716D01*
X145370614Y-102875060D01*
X145332305Y-102890928D01*
X145314341Y-102934298D01*
X145332622Y-102978433D01*
X145332361Y-102980416D01*
X145330513Y-102981181D01*
X145329663Y-102980861D01*
X145329363Y-102980661D01*
X145281801Y-102971200D01*
X144182199Y-102971200D01*
X144134637Y-102980661D01*
X144126484Y-102986109D01*
X144124488Y-102986240D01*
X144123377Y-102984577D01*
X144123710Y-102983335D01*
X144148480Y-102946266D01*
X144139322Y-102900224D01*
X144100018Y-102873961D01*
X144088128Y-102872790D01*
X144086502Y-102871625D01*
X144086698Y-102869635D01*
X144088324Y-102868800D01*
X145375673Y-102868800D01*
X145377405Y-102869800D01*
G37*
G36*
X141128517Y-102860527D02*
G01*
X141128907Y-102862489D01*
X141128124Y-102863509D01*
X141121938Y-102867643D01*
X141123391Y-102869818D01*
X141123522Y-102871814D01*
X141122839Y-102872592D01*
X141102886Y-102885924D01*
X141093728Y-102931967D01*
X141119932Y-102971182D01*
X141120402Y-102971377D01*
X141120748Y-102971562D01*
X141128124Y-102976491D01*
X141129009Y-102978285D01*
X141127897Y-102979948D01*
X141126623Y-102980116D01*
X141081801Y-102971200D01*
X139782199Y-102971200D01*
X139737377Y-102980116D01*
X139735483Y-102979473D01*
X139735093Y-102977511D01*
X139735876Y-102976491D01*
X139742062Y-102972357D01*
X139740609Y-102970182D01*
X139740478Y-102968186D01*
X139741161Y-102967408D01*
X139761114Y-102954076D01*
X139770272Y-102908033D01*
X139744068Y-102868818D01*
X139743598Y-102868623D01*
X139743252Y-102868438D01*
X139735876Y-102863509D01*
X139734991Y-102861715D01*
X139736103Y-102860052D01*
X139737377Y-102859884D01*
X139782199Y-102868800D01*
X141081801Y-102868800D01*
X141126623Y-102859884D01*
X141128517Y-102860527D01*
G37*
G36*
X136290803Y-97380067D02*
G01*
X136292501Y-97381201D01*
X136339184Y-97390487D01*
X136361331Y-97381313D01*
X136363197Y-97380067D01*
X136365193Y-97379936D01*
X136366304Y-97381599D01*
X136365971Y-97382841D01*
X136356952Y-97396339D01*
X136353200Y-97415199D01*
X136353200Y-98164801D01*
X136356952Y-98183661D01*
X136365971Y-98197159D01*
X136366102Y-98199155D01*
X136364439Y-98200266D01*
X136363197Y-98199933D01*
X136361499Y-98198799D01*
X136314816Y-98189513D01*
X136292669Y-98198687D01*
X136290803Y-98199933D01*
X136288807Y-98200064D01*
X136287696Y-98198401D01*
X136288029Y-98197159D01*
X136297048Y-98183661D01*
X136300800Y-98164801D01*
X136300800Y-97415199D01*
X136297048Y-97396339D01*
X136288029Y-97382841D01*
X136287898Y-97380845D01*
X136289561Y-97379734D01*
X136290803Y-97380067D01*
G37*
M02*
