%TF.GenerationSoftware,KiCad,Pcbnew,(6.0.10)*%
%TF.CreationDate,2023-12-30T01:12:33+11:00*%
%TF.ProjectId,1-Chip,312d4368-6970-42e6-9b69-6361645f7063,3.2*%
%TF.SameCoordinates,Original*%
%TF.FileFunction,Legend,Top*%
%TF.FilePolarity,Positive*%
%FSLAX46Y46*%
G04 Gerber Fmt 4.6, Leading zero omitted, Abs format (unit mm)*
G04 Created by KiCad (PCBNEW (6.0.10)) date 2023-12-30 01:12:33*
%MOMM*%
%LPD*%
G01*
G04 APERTURE LIST*
%ADD10C,0.100000*%
%ADD11C,0.150000*%
%ADD12C,0.120000*%
%ADD13C,0.160000*%
%ADD14C,0.152400*%
G04 APERTURE END LIST*
D10*
X151357142Y-106354761D02*
X151338095Y-106335714D01*
X151319047Y-106278571D01*
X151319047Y-106240476D01*
X151338095Y-106183333D01*
X151376190Y-106145238D01*
X151414285Y-106126190D01*
X151490476Y-106107142D01*
X151547619Y-106107142D01*
X151623809Y-106126190D01*
X151661904Y-106145238D01*
X151700000Y-106183333D01*
X151719047Y-106240476D01*
X151719047Y-106278571D01*
X151700000Y-106335714D01*
X151680952Y-106354761D01*
X151319047Y-106526190D02*
X151719047Y-106526190D01*
X151528571Y-106526190D02*
X151528571Y-106754761D01*
X151319047Y-106754761D02*
X151719047Y-106754761D01*
X151319047Y-107173809D02*
X151509523Y-107040476D01*
X151319047Y-106945238D02*
X151719047Y-106945238D01*
X151719047Y-107097619D01*
X151700000Y-107135714D01*
X151680952Y-107154761D01*
X151642857Y-107173809D01*
X151585714Y-107173809D01*
X151547619Y-107154761D01*
X151528571Y-107135714D01*
X151509523Y-107097619D01*
X151509523Y-106945238D01*
X151719047Y-107421428D02*
X151719047Y-107497619D01*
X151700000Y-107535714D01*
X151661904Y-107573809D01*
X151585714Y-107592857D01*
X151452380Y-107592857D01*
X151376190Y-107573809D01*
X151338095Y-107535714D01*
X151319047Y-107497619D01*
X151319047Y-107421428D01*
X151338095Y-107383333D01*
X151376190Y-107345238D01*
X151452380Y-107326190D01*
X151585714Y-107326190D01*
X151661904Y-107345238D01*
X151700000Y-107383333D01*
X151719047Y-107421428D01*
X151319047Y-107764285D02*
X151719047Y-107764285D01*
X151433333Y-107897619D01*
X151719047Y-108030952D01*
X151319047Y-108030952D01*
X151433333Y-108202380D02*
X151433333Y-108392857D01*
X151319047Y-108164285D02*
X151719047Y-108297619D01*
X151319047Y-108430952D01*
X151319047Y-103764285D02*
X151319047Y-103573809D01*
X151719047Y-103573809D01*
X151719047Y-103897619D02*
X151395238Y-103897619D01*
X151357142Y-103916666D01*
X151338095Y-103935714D01*
X151319047Y-103973809D01*
X151319047Y-104050000D01*
X151338095Y-104088095D01*
X151357142Y-104107142D01*
X151395238Y-104126190D01*
X151719047Y-104126190D01*
X151319047Y-104316666D02*
X151719047Y-104316666D01*
X151433333Y-104450000D01*
X151719047Y-104583333D01*
X151319047Y-104583333D01*
X151433333Y-104754761D02*
X151433333Y-104945238D01*
X151319047Y-104716666D02*
X151719047Y-104850000D01*
X151319047Y-104983333D01*
D11*
D12*
X151740000Y-101609420D02*
X151740000Y-101890580D01*
X152760000Y-101609420D02*
X152760000Y-101890580D01*
X151740000Y-98359420D02*
X151740000Y-98640580D01*
X152760000Y-98359420D02*
X152760000Y-98640580D01*
D13*
X149010000Y-99070000D02*
G75*
G03*
X149010000Y-99070000I-930000J0D01*
G01*
X149166002Y-99070000D02*
G75*
G03*
X149166002Y-99070000I-1086002J0D01*
G01*
D12*
X150040000Y-101609420D02*
X150040000Y-101890580D01*
X151060000Y-101609420D02*
X151060000Y-101890580D01*
X150040000Y-98359420D02*
X150040000Y-98640580D01*
X151060000Y-98359420D02*
X151060000Y-98640580D01*
X137162000Y-106031420D02*
X137162000Y-106312580D01*
X136142000Y-106031420D02*
X136142000Y-106312580D01*
X138686000Y-101700420D02*
X138686000Y-101981580D01*
X137666000Y-101700420D02*
X137666000Y-101981580D01*
X136142000Y-101713420D02*
X136142000Y-101994580D01*
X137162000Y-101713420D02*
X137162000Y-101994580D01*
X146810000Y-106539420D02*
X146810000Y-106820580D01*
X147830000Y-106539420D02*
X147830000Y-106820580D01*
X134618000Y-101700420D02*
X134618000Y-101981580D01*
X135638000Y-101700420D02*
X135638000Y-101981580D01*
D14*
X149377400Y-105747400D02*
X149377400Y-107220600D01*
X149377400Y-107220600D02*
X148310600Y-107220600D01*
X149377400Y-105747400D02*
X148310600Y-105747400D01*
X148310600Y-105747400D02*
X148310600Y-107220600D01*
D12*
X146014000Y-102991500D02*
X146014000Y-103791500D01*
X146014000Y-102991500D02*
X146014000Y-102191500D01*
X149134000Y-102991500D02*
X149134000Y-101191500D01*
X149134000Y-102991500D02*
X149134000Y-103791500D01*
X144412580Y-101602000D02*
X144131420Y-101602000D01*
X144412580Y-100582000D02*
X144131420Y-100582000D01*
D14*
X135590400Y-98323400D02*
X137063600Y-98323400D01*
X135590400Y-97256600D02*
X137063600Y-97256600D01*
X135590400Y-97256600D02*
X135590400Y-98323400D01*
X137063600Y-97256600D02*
X137063600Y-98323400D01*
D12*
X134618000Y-106057420D02*
X134618000Y-106338580D01*
X135638000Y-106057420D02*
X135638000Y-106338580D01*
X141069420Y-100590000D02*
X141350580Y-100590000D01*
X141069420Y-101610000D02*
X141350580Y-101610000D01*
X137666000Y-106044420D02*
X137666000Y-106325580D01*
X138686000Y-106044420D02*
X138686000Y-106325580D01*
X142582000Y-102060000D02*
X144082000Y-102060000D01*
X142582000Y-105280000D02*
X141082000Y-105280000D01*
X142582000Y-105280000D02*
X144082000Y-105280000D01*
X142582000Y-102060000D02*
X139707000Y-102060000D01*
M02*
