  0
SECTION
  2
HEADER
  9
$ANGBASE
  50
0.0
  9
$ANGDIR
  70
1
  9
$MEASUREMENT
  70
0
  0
ENDSEC
  0
SECTION
  2
TABLES
  0
TABLE
  2
LTYPE
  70
4
  0
LTYPE
  5
40F
  2
CONTINUOUS
  70
0
  3
Solid line
  72
65
  73
0
  40
0.0
  0
LTYPE
  5
410
  2
DASHDOT
 70
0
  3
Dash Dot ____ _ ____ _
 72
65
 73
4
 40
2.0
 49
1.25
 49
-0.25
 49
0.25
 49
-0.25
  0
LTYPE
  5
411
  2
DASHED
 70
0
  3
Dashed __ __ __ __ __
 72
65
 73
2
 40
0.75
 49
0.5
 49
-0.25
  0
LTYPE
  5
43B
  2
DOTTED
 70
0
  3
Dotted .  .  .  .
 72
65
 73
2
 40
0.2
 49
0.0
 49
-0.2
  0
ENDTAB
  0
TABLE
  2
STYLE
  70
4
  0
STYLE
  2
KICAD
  70
0
  40
0
  41
1
  42
1
  50
0
  71
0
  3
isocp.shx
  0
STYLE
  2
KICADB
  70
0
  40
0
  41
1
  42
1
  50
0
  71
0
  3
isocp.shx
  0
STYLE
  2
KICADI
  70
0
  40
0
  41
1
  42
1
  50
15
  71
0
  3
isocp.shx
  0
STYLE
  2
KICADBI
  70
0
  40
0
  41
1
  42
1
  50
15
  71
0
  3
isocp.shx
  0
ENDTAB
  0
TABLE
  2
LAYER
  70
1
  0
LAYER
  2
BLACK
  70
0
  62
7
  6
CONTINUOUS
  0
ENDTAB
  0
ENDSEC
  0
SECTION
  2
ENTITIES
0
LINE
8
BLACK
6
CONTINUOUS
10
5.31906
20
-3.72087
11
5.99578
21
-3.72047
0
LINE
8
BLACK
6
CONTINUOUS
10
5.27969
20
-3.76024
11
5.28063
21
-4.24094
0
LINE
8
BLACK
6
CONTINUOUS
10
5.32
20
-4.28031
11
5.99578
21
-4.28318
0
LINE
8
BLACK
6
CONTINUOUS
10
6.03515
20
-3.75984
11
6.03515
21
-4.24381
0
ARC
8
BLACK
10
5.31906
20
-3.76024
40
0.0393701
50
-270
51
-180
0
ARC
8
BLACK
10
5.32
20
-4.24094
40
0.0393701
50
-180
51
-90
0
ARC
8
BLACK
10
5.99578
20
-4.24381
40
0.0393701
50
-90
51
-0
0
ARC
8
BLACK
10
5.99578
20
-3.75984
40
0.0393701
50
-0
51
90
0
LINE
8
BLACK
6
CONTINUOUS
10
5.31024
20
-3.78071
11
5.34961
21
-3.82008
0
LINE
8
BLACK
6
CONTINUOUS
10
5.34961
20
-3.78071
11
5.31024
21
-3.82008
0
LINE
8
BLACK
6
CONTINUOUS
10
5.31024
20
-3.88071
11
5.34961
21
-3.92008
0
LINE
8
BLACK
6
CONTINUOUS
10
5.34961
20
-3.88071
11
5.31024
21
-3.92008
0
LINE
8
BLACK
6
CONTINUOUS
10
5.38013
20
-4.4064
11
5.38013
21
-4.32766
0
LINE
8
BLACK
6
CONTINUOUS
10
5.38013
20
-4.32766
11
5.39887
21
-4.32766
0
LINE
8
BLACK
6
CONTINUOUS
10
5.39887
20
-4.32766
11
5.41012
21
-4.33141
0
LINE
8
BLACK
6
CONTINUOUS
10
5.41012
20
-4.33141
11
5.41762
21
-4.33891
0
LINE
8
BLACK
6
CONTINUOUS
10
5.41762
20
-4.33891
11
5.42137
21
-4.34641
0
LINE
8
BLACK
6
CONTINUOUS
10
5.42137
20
-4.34641
11
5.42512
21
-4.36141
0
LINE
8
BLACK
6
CONTINUOUS
10
5.42512
20
-4.36141
11
5.42512
21
-4.37266
0
LINE
8
BLACK
6
CONTINUOUS
10
5.42512
20
-4.37266
11
5.42137
21
-4.38766
0
LINE
8
BLACK
6
CONTINUOUS
10
5.42137
20
-4.38766
11
5.41762
21
-4.39516
0
LINE
8
BLACK
6
CONTINUOUS
10
5.41762
20
-4.39516
11
5.41012
21
-4.40265
0
LINE
8
BLACK
6
CONTINUOUS
10
5.41012
20
-4.40265
11
5.39887
21
-4.4064
0
LINE
8
BLACK
6
CONTINUOUS
10
5.39887
20
-4.4064
11
5.38013
21
-4.4064
0
LINE
8
BLACK
6
CONTINUOUS
10
5.45887
20
-4.4064
11
5.45887
21
-4.35391
0
LINE
8
BLACK
6
CONTINUOUS
10
5.45887
20
-4.36891
11
5.46262
21
-4.36141
0
LINE
8
BLACK
6
CONTINUOUS
10
5.46262
20
-4.36141
11
5.46636
21
-4.35766
0
LINE
8
BLACK
6
CONTINUOUS
10
5.46636
20
-4.35766
11
5.47386
21
-4.35391
0
LINE
8
BLACK
6
CONTINUOUS
10
5.47386
20
-4.35391
11
5.48136
21
-4.35391
0
LINE
8
BLACK
6
CONTINUOUS
10
5.50761
20
-4.4064
11
5.50761
21
-4.35391
0
LINE
8
BLACK
6
CONTINUOUS
10
5.50761
20
-4.32766
11
5.50386
21
-4.33141
0
LINE
8
BLACK
6
CONTINUOUS
10
5.50386
20
-4.33141
11
5.50761
21
-4.33516
0
LINE
8
BLACK
6
CONTINUOUS
10
5.50761
20
-4.33516
11
5.51136
21
-4.33141
0
LINE
8
BLACK
6
CONTINUOUS
10
5.51136
20
-4.33141
11
5.50761
21
-4.32766
0
LINE
8
BLACK
6
CONTINUOUS
10
5.50761
20
-4.32766
11
5.50761
21
-4.33516
0
LINE
8
BLACK
6
CONTINUOUS
10
5.55635
20
-4.4064
11
5.54885
21
-4.40265
0
LINE
8
BLACK
6
CONTINUOUS
10
5.54885
20
-4.40265
11
5.5451
21
-4.39516
0
LINE
8
BLACK
6
CONTINUOUS
10
5.5451
20
-4.39516
11
5.5451
21
-4.32766
0
LINE
8
BLACK
6
CONTINUOUS
10
5.5976
20
-4.4064
11
5.5901
21
-4.40265
0
LINE
8
BLACK
6
CONTINUOUS
10
5.5901
20
-4.40265
11
5.58635
21
-4.39516
0
LINE
8
BLACK
6
CONTINUOUS
10
5.58635
20
-4.39516
11
5.58635
21
-4.32766
0
LINE
8
BLACK
6
CONTINUOUS
10
5.68759
20
-4.4064
11
5.68759
21
-4.32766
0
LINE
8
BLACK
6
CONTINUOUS
10
5.68759
20
-4.32766
11
5.71383
21
-4.38391
0
LINE
8
BLACK
6
CONTINUOUS
10
5.71383
20
-4.38391
11
5.74008
21
-4.32766
0
LINE
8
BLACK
6
CONTINUOUS
10
5.74008
20
-4.32766
11
5.74008
21
-4.4064
0
LINE
8
BLACK
6
CONTINUOUS
10
5.81132
20
-4.4064
11
5.81132
21
-4.36516
0
LINE
8
BLACK
6
CONTINUOUS
10
5.81132
20
-4.36516
11
5.80757
21
-4.35766
0
LINE
8
BLACK
6
CONTINUOUS
10
5.80757
20
-4.35766
11
5.80007
21
-4.35391
0
LINE
8
BLACK
6
CONTINUOUS
10
5.80007
20
-4.35391
11
5.78507
21
-4.35391
0
LINE
8
BLACK
6
CONTINUOUS
10
5.78507
20
-4.35391
11
5.77758
21
-4.35766
0
LINE
8
BLACK
6
CONTINUOUS
10
5.81132
20
-4.40265
11
5.80382
21
-4.4064
0
LINE
8
BLACK
6
CONTINUOUS
10
5.80382
20
-4.4064
11
5.78507
21
-4.4064
0
LINE
8
BLACK
6
CONTINUOUS
10
5.78507
20
-4.4064
11
5.77758
21
-4.40265
0
LINE
8
BLACK
6
CONTINUOUS
10
5.77758
20
-4.40265
11
5.77383
21
-4.39516
0
LINE
8
BLACK
6
CONTINUOUS
10
5.77383
20
-4.39516
11
5.77383
21
-4.38766
0
LINE
8
BLACK
6
CONTINUOUS
10
5.77383
20
-4.38766
11
5.77758
21
-4.38016
0
LINE
8
BLACK
6
CONTINUOUS
10
5.77758
20
-4.38016
11
5.78507
21
-4.37641
0
LINE
8
BLACK
6
CONTINUOUS
10
5.78507
20
-4.37641
11
5.80382
21
-4.37641
0
LINE
8
BLACK
6
CONTINUOUS
10
5.80382
20
-4.37641
11
5.81132
21
-4.37266
0
LINE
8
BLACK
6
CONTINUOUS
10
5.84882
20
-4.35391
11
5.84882
21
-4.43265
0
LINE
8
BLACK
6
CONTINUOUS
10
5.84882
20
-4.35766
11
5.85632
21
-4.35391
0
LINE
8
BLACK
6
CONTINUOUS
10
5.85632
20
-4.35391
11
5.87131
21
-4.35391
0
LINE
8
BLACK
6
CONTINUOUS
10
5.87131
20
-4.35391
11
5.87881
21
-4.35766
0
LINE
8
BLACK
6
CONTINUOUS
10
5.87881
20
-4.35766
11
5.88256
21
-4.36141
0
LINE
8
BLACK
6
CONTINUOUS
10
5.88256
20
-4.36141
11
5.88631
21
-4.36891
0
LINE
8
BLACK
6
CONTINUOUS
10
5.88631
20
-4.36891
11
5.88631
21
-4.39141
0
LINE
8
BLACK
6
CONTINUOUS
10
5.88631
20
-4.39141
11
5.88256
21
-4.3989
0
LINE
8
BLACK
6
CONTINUOUS
10
5.88256
20
-4.3989
11
5.87881
21
-4.40265
0
LINE
8
BLACK
6
CONTINUOUS
10
5.87881
20
-4.40265
11
5.87131
21
-4.4064
0
LINE
8
BLACK
6
CONTINUOUS
10
5.87131
20
-4.4064
11
5.85632
21
-4.4064
0
LINE
8
BLACK
6
CONTINUOUS
10
5.85632
20
-4.4064
11
5.84882
21
-4.40265
0
LINE
8
BLACK
6
CONTINUOUS
10
5.92006
20
-4.3989
11
5.92381
21
-4.40265
0
LINE
8
BLACK
6
CONTINUOUS
10
5.92381
20
-4.40265
11
5.92006
21
-4.4064
0
LINE
8
BLACK
6
CONTINUOUS
10
5.92006
20
-4.4064
11
5.91631
21
-4.40265
0
LINE
8
BLACK
6
CONTINUOUS
10
5.91631
20
-4.40265
11
5.92006
21
-4.3989
0
LINE
8
BLACK
6
CONTINUOUS
10
5.92006
20
-4.3989
11
5.92006
21
-4.4064
0
LINE
8
BLACK
6
CONTINUOUS
10
5.92006
20
-4.35766
11
5.92381
21
-4.36141
0
LINE
8
BLACK
6
CONTINUOUS
10
5.92381
20
-4.36141
11
5.92006
21
-4.36516
0
LINE
8
BLACK
6
CONTINUOUS
10
5.92006
20
-4.36516
11
5.91631
21
-4.36141
0
LINE
8
BLACK
6
CONTINUOUS
10
5.91631
20
-4.36141
11
5.92006
21
-4.35766
0
LINE
8
BLACK
6
CONTINUOUS
10
5.92006
20
-4.35766
11
5.92006
21
-4.36516
0
LINE
8
BLACK
6
CONTINUOUS
10
5.23933
20
-4.51645
11
5.2787
21
-4.55582
0
LINE
8
BLACK
6
CONTINUOUS
10
5.2787
20
-4.51645
11
5.23933
21
-4.55582
0
LINE
8
BLACK
6
CONTINUOUS
10
5.42137
20
-4.57176
11
5.37638
21
-4.57176
0
LINE
8
BLACK
6
CONTINUOUS
10
5.39887
20
-4.57176
11
5.39887
21
-4.49302
0
LINE
8
BLACK
6
CONTINUOUS
10
5.39887
20
-4.49302
11
5.39137
21
-4.50427
0
LINE
8
BLACK
6
CONTINUOUS
10
5.39137
20
-4.50427
11
5.38388
21
-4.51177
0
LINE
8
BLACK
6
CONTINUOUS
10
5.38388
20
-4.51177
11
5.37638
21
-4.51552
0
LINE
8
BLACK
6
CONTINUOUS
10
5.45512
20
-4.56426
11
5.45887
21
-4.56801
0
LINE
8
BLACK
6
CONTINUOUS
10
5.45887
20
-4.56801
11
5.45512
21
-4.57176
0
LINE
8
BLACK
6
CONTINUOUS
10
5.45512
20
-4.57176
11
5.45137
21
-4.56801
0
LINE
8
BLACK
6
CONTINUOUS
10
5.45137
20
-4.56801
11
5.45512
21
-4.56426
0
LINE
8
BLACK
6
CONTINUOUS
10
5.45512
20
-4.56426
11
5.45512
21
-4.57176
0
LINE
8
BLACK
6
CONTINUOUS
10
5.50761
20
-4.49302
11
5.51511
21
-4.49302
0
LINE
8
BLACK
6
CONTINUOUS
10
5.51511
20
-4.49302
11
5.52261
21
-4.49677
0
LINE
8
BLACK
6
CONTINUOUS
10
5.52261
20
-4.49677
11
5.52636
21
-4.50052
0
LINE
8
BLACK
6
CONTINUOUS
10
5.52636
20
-4.50052
11
5.53011
21
-4.50802
0
LINE
8
BLACK
6
CONTINUOUS
10
5.53011
20
-4.50802
11
5.53386
21
-4.52301
0
LINE
8
BLACK
6
CONTINUOUS
10
5.53386
20
-4.52301
11
5.53386
21
-4.54176
0
LINE
8
BLACK
6
CONTINUOUS
10
5.53386
20
-4.54176
11
5.53011
21
-4.55676
0
LINE
8
BLACK
6
CONTINUOUS
10
5.53011
20
-4.55676
11
5.52636
21
-4.56426
0
LINE
8
BLACK
6
CONTINUOUS
10
5.52636
20
-4.56426
11
5.52261
21
-4.56801
0
LINE
8
BLACK
6
CONTINUOUS
10
5.52261
20
-4.56801
11
5.51511
21
-4.57176
0
LINE
8
BLACK
6
CONTINUOUS
10
5.51511
20
-4.57176
11
5.50761
21
-4.57176
0
LINE
8
BLACK
6
CONTINUOUS
10
5.50761
20
-4.57176
11
5.50011
21
-4.56801
0
LINE
8
BLACK
6
CONTINUOUS
10
5.50011
20
-4.56801
11
5.49636
21
-4.56426
0
LINE
8
BLACK
6
CONTINUOUS
10
5.49636
20
-4.56426
11
5.49261
21
-4.55676
0
LINE
8
BLACK
6
CONTINUOUS
10
5.49261
20
-4.55676
11
5.48886
21
-4.54176
0
LINE
8
BLACK
6
CONTINUOUS
10
5.48886
20
-4.54176
11
5.48886
21
-4.52301
0
LINE
8
BLACK
6
CONTINUOUS
10
5.48886
20
-4.52301
11
5.49261
21
-4.50802
0
LINE
8
BLACK
6
CONTINUOUS
10
5.49261
20
-4.50802
11
5.49636
21
-4.50052
0
LINE
8
BLACK
6
CONTINUOUS
10
5.49636
20
-4.50052
11
5.50011
21
-4.49677
0
LINE
8
BLACK
6
CONTINUOUS
10
5.50011
20
-4.49677
11
5.50761
21
-4.49302
0
LINE
8
BLACK
6
CONTINUOUS
10
5.5826
20
-4.49302
11
5.5901
21
-4.49302
0
LINE
8
BLACK
6
CONTINUOUS
10
5.5901
20
-4.49302
11
5.5976
21
-4.49677
0
LINE
8
BLACK
6
CONTINUOUS
10
5.5976
20
-4.49677
11
5.60135
21
-4.50052
0
LINE
8
BLACK
6
CONTINUOUS
10
5.60135
20
-4.50052
11
5.6051
21
-4.50802
0
LINE
8
BLACK
6
CONTINUOUS
10
5.6051
20
-4.50802
11
5.60885
21
-4.52301
0
LINE
8
BLACK
6
CONTINUOUS
10
5.60885
20
-4.52301
11
5.60885
21
-4.54176
0
LINE
8
BLACK
6
CONTINUOUS
10
5.60885
20
-4.54176
11
5.6051
21
-4.55676
0
LINE
8
BLACK
6
CONTINUOUS
10
5.6051
20
-4.55676
11
5.60135
21
-4.56426
0
LINE
8
BLACK
6
CONTINUOUS
10
5.60135
20
-4.56426
11
5.5976
21
-4.56801
0
LINE
8
BLACK
6
CONTINUOUS
10
5.5976
20
-4.56801
11
5.5901
21
-4.57176
0
LINE
8
BLACK
6
CONTINUOUS
10
5.5901
20
-4.57176
11
5.5826
21
-4.57176
0
LINE
8
BLACK
6
CONTINUOUS
10
5.5826
20
-4.57176
11
5.5751
21
-4.56801
0
LINE
8
BLACK
6
CONTINUOUS
10
5.5751
20
-4.56801
11
5.57135
21
-4.56426
0
LINE
8
BLACK
6
CONTINUOUS
10
5.57135
20
-4.56426
11
5.5676
21
-4.55676
0
LINE
8
BLACK
6
CONTINUOUS
10
5.5676
20
-4.55676
11
5.56385
21
-4.54176
0
LINE
8
BLACK
6
CONTINUOUS
10
5.56385
20
-4.54176
11
5.56385
21
-4.52301
0
LINE
8
BLACK
6
CONTINUOUS
10
5.56385
20
-4.52301
11
5.5676
21
-4.50802
0
LINE
8
BLACK
6
CONTINUOUS
10
5.5676
20
-4.50802
11
5.57135
21
-4.50052
0
LINE
8
BLACK
6
CONTINUOUS
10
5.57135
20
-4.50052
11
5.5751
21
-4.49677
0
LINE
8
BLACK
6
CONTINUOUS
10
5.5751
20
-4.49677
11
5.5826
21
-4.49302
0
LINE
8
BLACK
6
CONTINUOUS
10
5.65759
20
-4.49302
11
5.66509
21
-4.49302
0
LINE
8
BLACK
6
CONTINUOUS
10
5.66509
20
-4.49302
11
5.67259
21
-4.49677
0
LINE
8
BLACK
6
CONTINUOUS
10
5.67259
20
-4.49677
11
5.67634
21
-4.50052
0
LINE
8
BLACK
6
CONTINUOUS
10
5.67634
20
-4.50052
11
5.68009
21
-4.50802
0
LINE
8
BLACK
6
CONTINUOUS
10
5.68009
20
-4.50802
11
5.68384
21
-4.52301
0
LINE
8
BLACK
6
CONTINUOUS
10
5.68384
20
-4.52301
11
5.68384
21
-4.54176
0
LINE
8
BLACK
6
CONTINUOUS
10
5.68384
20
-4.54176
11
5.68009
21
-4.55676
0
LINE
8
BLACK
6
CONTINUOUS
10
5.68009
20
-4.55676
11
5.67634
21
-4.56426
0
LINE
8
BLACK
6
CONTINUOUS
10
5.67634
20
-4.56426
11
5.67259
21
-4.56801
0
LINE
8
BLACK
6
CONTINUOUS
10
5.67259
20
-4.56801
11
5.66509
21
-4.57176
0
LINE
8
BLACK
6
CONTINUOUS
10
5.66509
20
-4.57176
11
5.65759
21
-4.57176
0
LINE
8
BLACK
6
CONTINUOUS
10
5.65759
20
-4.57176
11
5.65009
21
-4.56801
0
LINE
8
BLACK
6
CONTINUOUS
10
5.65009
20
-4.56801
11
5.64634
21
-4.56426
0
LINE
8
BLACK
6
CONTINUOUS
10
5.64634
20
-4.56426
11
5.64259
21
-4.55676
0
LINE
8
BLACK
6
CONTINUOUS
10
5.64259
20
-4.55676
11
5.63884
21
-4.54176
0
LINE
8
BLACK
6
CONTINUOUS
10
5.63884
20
-4.54176
11
5.63884
21
-4.52301
0
LINE
8
BLACK
6
CONTINUOUS
10
5.63884
20
-4.52301
11
5.64259
21
-4.50802
0
LINE
8
BLACK
6
CONTINUOUS
10
5.64259
20
-4.50802
11
5.64634
21
-4.50052
0
LINE
8
BLACK
6
CONTINUOUS
10
5.64634
20
-4.50052
11
5.65009
21
-4.49677
0
LINE
8
BLACK
6
CONTINUOUS
10
5.65009
20
-4.49677
11
5.65759
21
-4.49302
0
LINE
8
BLACK
6
CONTINUOUS
10
5.71758
20
-4.57176
11
5.71758
21
-4.51926
0
LINE
8
BLACK
6
CONTINUOUS
10
5.71758
20
-4.52676
11
5.72133
21
-4.52301
0
LINE
8
BLACK
6
CONTINUOUS
10
5.72133
20
-4.52301
11
5.72883
21
-4.51926
0
LINE
8
BLACK
6
CONTINUOUS
10
5.72883
20
-4.51926
11
5.74008
21
-4.51926
0
LINE
8
BLACK
6
CONTINUOUS
10
5.74008
20
-4.51926
11
5.74758
21
-4.52301
0
LINE
8
BLACK
6
CONTINUOUS
10
5.74758
20
-4.52301
11
5.75133
21
-4.53051
0
LINE
8
BLACK
6
CONTINUOUS
10
5.75133
20
-4.53051
11
5.75133
21
-4.57176
0
LINE
8
BLACK
6
CONTINUOUS
10
5.75133
20
-4.53051
11
5.75508
21
-4.52301
0
LINE
8
BLACK
6
CONTINUOUS
10
5.75508
20
-4.52301
11
5.76258
21
-4.51926
0
LINE
8
BLACK
6
CONTINUOUS
10
5.76258
20
-4.51926
11
5.77383
21
-4.51926
0
LINE
8
BLACK
6
CONTINUOUS
10
5.77383
20
-4.51926
11
5.78133
21
-4.52301
0
LINE
8
BLACK
6
CONTINUOUS
10
5.78133
20
-4.52301
11
5.78507
21
-4.53051
0
LINE
8
BLACK
6
CONTINUOUS
10
5.78507
20
-4.53051
11
5.78507
21
-4.57176
0
LINE
8
BLACK
6
CONTINUOUS
10
5.82257
20
-4.57176
11
5.82257
21
-4.51926
0
LINE
8
BLACK
6
CONTINUOUS
10
5.82257
20
-4.52676
11
5.82632
21
-4.52301
0
LINE
8
BLACK
6
CONTINUOUS
10
5.82632
20
-4.52301
11
5.83382
21
-4.51926
0
LINE
8
BLACK
6
CONTINUOUS
10
5.83382
20
-4.51926
11
5.84507
21
-4.51926
0
LINE
8
BLACK
6
CONTINUOUS
10
5.84507
20
-4.51926
11
5.85257
21
-4.52301
0
LINE
8
BLACK
6
CONTINUOUS
10
5.85257
20
-4.52301
11
5.85632
21
-4.53051
0
LINE
8
BLACK
6
CONTINUOUS
10
5.85632
20
-4.53051
11
5.85632
21
-4.57176
0
LINE
8
BLACK
6
CONTINUOUS
10
5.85632
20
-4.53051
11
5.86007
21
-4.52301
0
LINE
8
BLACK
6
CONTINUOUS
10
5.86007
20
-4.52301
11
5.86756
21
-4.51926
0
LINE
8
BLACK
6
CONTINUOUS
10
5.86756
20
-4.51926
11
5.87881
21
-4.51926
0
LINE
8
BLACK
6
CONTINUOUS
10
5.87881
20
-4.51926
11
5.88631
21
-4.52301
0
LINE
8
BLACK
6
CONTINUOUS
10
5.88631
20
-4.52301
11
5.89006
21
-4.53051
0
LINE
8
BLACK
6
CONTINUOUS
10
5.89006
20
-4.53051
11
5.89006
21
-4.57176
0
LINE
8
BLACK
6
CONTINUOUS
10
6.04379
20
-4.48927
11
5.9763
21
-4.59051
0
LINE
8
BLACK
6
CONTINUOUS
10
6.14503
20
-4.49302
11
6.15253
21
-4.49302
0
LINE
8
BLACK
6
CONTINUOUS
10
6.15253
20
-4.49302
11
6.16003
21
-4.49677
0
LINE
8
BLACK
6
CONTINUOUS
10
6.16003
20
-4.49677
11
6.16378
21
-4.50052
0
LINE
8
BLACK
6
CONTINUOUS
10
6.16378
20
-4.50052
11
6.16753
21
-4.50802
0
LINE
8
BLACK
6
CONTINUOUS
10
6.16753
20
-4.50802
11
6.17128
21
-4.52301
0
LINE
8
BLACK
6
CONTINUOUS
10
6.17128
20
-4.52301
11
6.17128
21
-4.54176
0
LINE
8
BLACK
6
CONTINUOUS
10
6.17128
20
-4.54176
11
6.16753
21
-4.55676
0
LINE
8
BLACK
6
CONTINUOUS
10
6.16753
20
-4.55676
11
6.16378
21
-4.56426
0
LINE
8
BLACK
6
CONTINUOUS
10
6.16378
20
-4.56426
11
6.16003
21
-4.56801
0
LINE
8
BLACK
6
CONTINUOUS
10
6.16003
20
-4.56801
11
6.15253
21
-4.57176
0
LINE
8
BLACK
6
CONTINUOUS
10
6.15253
20
-4.57176
11
6.14503
21
-4.57176
0
LINE
8
BLACK
6
CONTINUOUS
10
6.14503
20
-4.57176
11
6.13753
21
-4.56801
0
LINE
8
BLACK
6
CONTINUOUS
10
6.13753
20
-4.56801
11
6.13378
21
-4.56426
0
LINE
8
BLACK
6
CONTINUOUS
10
6.13378
20
-4.56426
11
6.13003
21
-4.55676
0
LINE
8
BLACK
6
CONTINUOUS
10
6.13003
20
-4.55676
11
6.12628
21
-4.54176
0
LINE
8
BLACK
6
CONTINUOUS
10
6.12628
20
-4.54176
11
6.12628
21
-4.52301
0
LINE
8
BLACK
6
CONTINUOUS
10
6.12628
20
-4.52301
11
6.13003
21
-4.50802
0
LINE
8
BLACK
6
CONTINUOUS
10
6.13003
20
-4.50802
11
6.13378
21
-4.50052
0
LINE
8
BLACK
6
CONTINUOUS
10
6.13378
20
-4.50052
11
6.13753
21
-4.49677
0
LINE
8
BLACK
6
CONTINUOUS
10
6.13753
20
-4.49677
11
6.14503
21
-4.49302
0
LINE
8
BLACK
6
CONTINUOUS
10
6.20502
20
-4.56426
11
6.20877
21
-4.56801
0
LINE
8
BLACK
6
CONTINUOUS
10
6.20877
20
-4.56801
11
6.20502
21
-4.57176
0
LINE
8
BLACK
6
CONTINUOUS
10
6.20502
20
-4.57176
11
6.20127
21
-4.56801
0
LINE
8
BLACK
6
CONTINUOUS
10
6.20127
20
-4.56801
11
6.20502
21
-4.56426
0
LINE
8
BLACK
6
CONTINUOUS
10
6.20502
20
-4.56426
11
6.20502
21
-4.57176
0
LINE
8
BLACK
6
CONTINUOUS
10
6.25752
20
-4.49302
11
6.26501
21
-4.49302
0
LINE
8
BLACK
6
CONTINUOUS
10
6.26501
20
-4.49302
11
6.27251
21
-4.49677
0
LINE
8
BLACK
6
CONTINUOUS
10
6.27251
20
-4.49677
11
6.27626
21
-4.50052
0
LINE
8
BLACK
6
CONTINUOUS
10
6.27626
20
-4.50052
11
6.28001
21
-4.50802
0
LINE
8
BLACK
6
CONTINUOUS
10
6.28001
20
-4.50802
11
6.28376
21
-4.52301
0
LINE
8
BLACK
6
CONTINUOUS
10
6.28376
20
-4.52301
11
6.28376
21
-4.54176
0
LINE
8
BLACK
6
CONTINUOUS
10
6.28376
20
-4.54176
11
6.28001
21
-4.55676
0
LINE
8
BLACK
6
CONTINUOUS
10
6.28001
20
-4.55676
11
6.27626
21
-4.56426
0
LINE
8
BLACK
6
CONTINUOUS
10
6.27626
20
-4.56426
11
6.27251
21
-4.56801
0
LINE
8
BLACK
6
CONTINUOUS
10
6.27251
20
-4.56801
11
6.26501
21
-4.57176
0
LINE
8
BLACK
6
CONTINUOUS
10
6.26501
20
-4.57176
11
6.25752
21
-4.57176
0
LINE
8
BLACK
6
CONTINUOUS
10
6.25752
20
-4.57176
11
6.25002
21
-4.56801
0
LINE
8
BLACK
6
CONTINUOUS
10
6.25002
20
-4.56801
11
6.24627
21
-4.56426
0
LINE
8
BLACK
6
CONTINUOUS
10
6.24627
20
-4.56426
11
6.24252
21
-4.55676
0
LINE
8
BLACK
6
CONTINUOUS
10
6.24252
20
-4.55676
11
6.23877
21
-4.54176
0
LINE
8
BLACK
6
CONTINUOUS
10
6.23877
20
-4.54176
11
6.23877
21
-4.52301
0
LINE
8
BLACK
6
CONTINUOUS
10
6.23877
20
-4.52301
11
6.24252
21
-4.50802
0
LINE
8
BLACK
6
CONTINUOUS
10
6.24252
20
-4.50802
11
6.24627
21
-4.50052
0
LINE
8
BLACK
6
CONTINUOUS
10
6.24627
20
-4.50052
11
6.25002
21
-4.49677
0
LINE
8
BLACK
6
CONTINUOUS
10
6.25002
20
-4.49677
11
6.25752
21
-4.49302
0
LINE
8
BLACK
6
CONTINUOUS
10
6.31001
20
-4.49302
11
6.35875
21
-4.49302
0
LINE
8
BLACK
6
CONTINUOUS
10
6.35875
20
-4.49302
11
6.33251
21
-4.52301
0
LINE
8
BLACK
6
CONTINUOUS
10
6.33251
20
-4.52301
11
6.34376
21
-4.52301
0
LINE
8
BLACK
6
CONTINUOUS
10
6.34376
20
-4.52301
11
6.35125
21
-4.52676
0
LINE
8
BLACK
6
CONTINUOUS
10
6.35125
20
-4.52676
11
6.355
21
-4.53051
0
LINE
8
BLACK
6
CONTINUOUS
10
6.355
20
-4.53051
11
6.35875
21
-4.53801
0
LINE
8
BLACK
6
CONTINUOUS
10
6.35875
20
-4.53801
11
6.35875
21
-4.55676
0
LINE
8
BLACK
6
CONTINUOUS
10
6.35875
20
-4.55676
11
6.355
21
-4.56426
0
LINE
8
BLACK
6
CONTINUOUS
10
6.355
20
-4.56426
11
6.35125
21
-4.56801
0
LINE
8
BLACK
6
CONTINUOUS
10
6.35125
20
-4.56801
11
6.34376
21
-4.57176
0
LINE
8
BLACK
6
CONTINUOUS
10
6.34376
20
-4.57176
11
6.32126
21
-4.57176
0
LINE
8
BLACK
6
CONTINUOUS
10
6.32126
20
-4.57176
11
6.31376
21
-4.56801
0
LINE
8
BLACK
6
CONTINUOUS
10
6.31376
20
-4.56801
11
6.31001
21
-4.56426
0
LINE
8
BLACK
6
CONTINUOUS
10
6.39625
20
-4.57176
11
6.41125
21
-4.57176
0
LINE
8
BLACK
6
CONTINUOUS
10
6.41125
20
-4.57176
11
6.41875
21
-4.56801
0
LINE
8
BLACK
6
CONTINUOUS
10
6.41875
20
-4.56801
11
6.4225
21
-4.56426
0
LINE
8
BLACK
6
CONTINUOUS
10
6.4225
20
-4.56426
11
6.42999
21
-4.55301
0
LINE
8
BLACK
6
CONTINUOUS
10
6.42999
20
-4.55301
11
6.43374
21
-4.53801
0
LINE
8
BLACK
6
CONTINUOUS
10
6.43374
20
-4.53801
11
6.43374
21
-4.50802
0
LINE
8
BLACK
6
CONTINUOUS
10
6.43374
20
-4.50802
11
6.42999
21
-4.50052
0
LINE
8
BLACK
6
CONTINUOUS
10
6.42999
20
-4.50052
11
6.42624
21
-4.49677
0
LINE
8
BLACK
6
CONTINUOUS
10
6.42624
20
-4.49677
11
6.41875
21
-4.49302
0
LINE
8
BLACK
6
CONTINUOUS
10
6.41875
20
-4.49302
11
6.40375
21
-4.49302
0
LINE
8
BLACK
6
CONTINUOUS
10
6.40375
20
-4.49302
11
6.39625
21
-4.49677
0
LINE
8
BLACK
6
CONTINUOUS
10
6.39625
20
-4.49677
11
6.3925
21
-4.50052
0
LINE
8
BLACK
6
CONTINUOUS
10
6.3925
20
-4.50052
11
6.38875
21
-4.50802
0
LINE
8
BLACK
6
CONTINUOUS
10
6.38875
20
-4.50802
11
6.38875
21
-4.52676
0
LINE
8
BLACK
6
CONTINUOUS
10
6.38875
20
-4.52676
11
6.3925
21
-4.53426
0
LINE
8
BLACK
6
CONTINUOUS
10
6.3925
20
-4.53426
11
6.39625
21
-4.53801
0
LINE
8
BLACK
6
CONTINUOUS
10
6.39625
20
-4.53801
11
6.40375
21
-4.54176
0
LINE
8
BLACK
6
CONTINUOUS
10
6.40375
20
-4.54176
11
6.41875
21
-4.54176
0
LINE
8
BLACK
6
CONTINUOUS
10
6.41875
20
-4.54176
11
6.42624
21
-4.53801
0
LINE
8
BLACK
6
CONTINUOUS
10
6.42624
20
-4.53801
11
6.42999
21
-4.53426
0
LINE
8
BLACK
6
CONTINUOUS
10
6.42999
20
-4.53426
11
6.43374
21
-4.52676
0
LINE
8
BLACK
6
CONTINUOUS
10
6.50124
20
-4.51926
11
6.50124
21
-4.57176
0
LINE
8
BLACK
6
CONTINUOUS
10
6.48249
20
-4.48927
11
6.46374
21
-4.54551
0
LINE
8
BLACK
6
CONTINUOUS
10
6.46374
20
-4.54551
11
6.51248
21
-4.54551
0
LINE
8
BLACK
6
CONTINUOUS
10
6.53873
20
-4.49302
11
6.53873
21
-4.50802
0
LINE
8
BLACK
6
CONTINUOUS
10
6.56873
20
-4.49302
11
6.56873
21
-4.50802
0
LINE
8
BLACK
6
CONTINUOUS
10
6.68496
20
-4.60175
11
6.68121
21
-4.598
0
LINE
8
BLACK
6
CONTINUOUS
10
6.68121
20
-4.598
11
6.67371
21
-4.58676
0
LINE
8
BLACK
6
CONTINUOUS
10
6.67371
20
-4.58676
11
6.66996
21
-4.57926
0
LINE
8
BLACK
6
CONTINUOUS
10
6.66996
20
-4.57926
11
6.66621
21
-4.56801
0
LINE
8
BLACK
6
CONTINUOUS
10
6.66621
20
-4.56801
11
6.66247
21
-4.54926
0
LINE
8
BLACK
6
CONTINUOUS
10
6.66247
20
-4.54926
11
6.66247
21
-4.53426
0
LINE
8
BLACK
6
CONTINUOUS
10
6.66247
20
-4.53426
11
6.66621
21
-4.51552
0
LINE
8
BLACK
6
CONTINUOUS
10
6.66621
20
-4.51552
11
6.66996
21
-4.50427
0
LINE
8
BLACK
6
CONTINUOUS
10
6.66996
20
-4.50427
11
6.67371
21
-4.49677
0
LINE
8
BLACK
6
CONTINUOUS
10
6.67371
20
-4.49677
11
6.68121
21
-4.48552
0
LINE
8
BLACK
6
CONTINUOUS
10
6.68121
20
-4.48552
11
6.68496
21
-4.48177
0
LINE
8
BLACK
6
CONTINUOUS
10
6.71121
20
-4.50052
11
6.71496
21
-4.49677
0
LINE
8
BLACK
6
CONTINUOUS
10
6.71496
20
-4.49677
11
6.72246
21
-4.49302
0
LINE
8
BLACK
6
CONTINUOUS
10
6.72246
20
-4.49302
11
6.74121
21
-4.49302
0
LINE
8
BLACK
6
CONTINUOUS
10
6.74121
20
-4.49302
11
6.7487
21
-4.49677
0
LINE
8
BLACK
6
CONTINUOUS
10
6.7487
20
-4.49677
11
6.75245
21
-4.50052
0
LINE
8
BLACK
6
CONTINUOUS
10
6.75245
20
-4.50052
11
6.7562
21
-4.50802
0
LINE
8
BLACK
6
CONTINUOUS
10
6.7562
20
-4.50802
11
6.7562
21
-4.51552
0
LINE
8
BLACK
6
CONTINUOUS
10
6.7562
20
-4.51552
11
6.75245
21
-4.52676
0
LINE
8
BLACK
6
CONTINUOUS
10
6.75245
20
-4.52676
11
6.70746
21
-4.57176
0
LINE
8
BLACK
6
CONTINUOUS
10
6.70746
20
-4.57176
11
6.7562
21
-4.57176
0
LINE
8
BLACK
6
CONTINUOUS
10
6.84994
20
-4.57176
11
6.84994
21
-4.49302
0
LINE
8
BLACK
6
CONTINUOUS
10
6.88369
20
-4.57176
11
6.88369
21
-4.53051
0
LINE
8
BLACK
6
CONTINUOUS
10
6.88369
20
-4.53051
11
6.87994
21
-4.52301
0
LINE
8
BLACK
6
CONTINUOUS
10
6.87994
20
-4.52301
11
6.87244
21
-4.51926
0
LINE
8
BLACK
6
CONTINUOUS
10
6.87244
20
-4.51926
11
6.86119
21
-4.51926
0
LINE
8
BLACK
6
CONTINUOUS
10
6.86119
20
-4.51926
11
6.85369
21
-4.52301
0
LINE
8
BLACK
6
CONTINUOUS
10
6.85369
20
-4.52301
11
6.84994
21
-4.52676
0
LINE
8
BLACK
6
CONTINUOUS
10
6.93243
20
-4.57176
11
6.92493
21
-4.56801
0
LINE
8
BLACK
6
CONTINUOUS
10
6.92493
20
-4.56801
11
6.92118
21
-4.56426
0
LINE
8
BLACK
6
CONTINUOUS
10
6.92118
20
-4.56426
11
6.91743
21
-4.55676
0
LINE
8
BLACK
6
CONTINUOUS
10
6.91743
20
-4.55676
11
6.91743
21
-4.53426
0
LINE
8
BLACK
6
CONTINUOUS
10
6.91743
20
-4.53426
11
6.92118
21
-4.52676
0
LINE
8
BLACK
6
CONTINUOUS
10
6.92118
20
-4.52676
11
6.92493
21
-4.52301
0
LINE
8
BLACK
6
CONTINUOUS
10
6.92493
20
-4.52301
11
6.93243
21
-4.51926
0
LINE
8
BLACK
6
CONTINUOUS
10
6.93243
20
-4.51926
11
6.94368
21
-4.51926
0
LINE
8
BLACK
6
CONTINUOUS
10
6.94368
20
-4.51926
11
6.95118
21
-4.52301
0
LINE
8
BLACK
6
CONTINUOUS
10
6.95118
20
-4.52301
11
6.95493
21
-4.52676
0
LINE
8
BLACK
6
CONTINUOUS
10
6.95493
20
-4.52676
11
6.95868
21
-4.53426
0
LINE
8
BLACK
6
CONTINUOUS
10
6.95868
20
-4.53426
11
6.95868
21
-4.55676
0
LINE
8
BLACK
6
CONTINUOUS
10
6.95868
20
-4.55676
11
6.95493
21
-4.56426
0
LINE
8
BLACK
6
CONTINUOUS
10
6.95493
20
-4.56426
11
6.95118
21
-4.56801
0
LINE
8
BLACK
6
CONTINUOUS
10
6.95118
20
-4.56801
11
6.94368
21
-4.57176
0
LINE
8
BLACK
6
CONTINUOUS
10
6.94368
20
-4.57176
11
6.93243
21
-4.57176
0
LINE
8
BLACK
6
CONTINUOUS
10
7.00367
20
-4.57176
11
6.99617
21
-4.56801
0
LINE
8
BLACK
6
CONTINUOUS
10
6.99617
20
-4.56801
11
6.99242
21
-4.56051
0
LINE
8
BLACK
6
CONTINUOUS
10
6.99242
20
-4.56051
11
6.99242
21
-4.49302
0
LINE
8
BLACK
6
CONTINUOUS
10
7.06367
20
-4.56801
11
7.05617
21
-4.57176
0
LINE
8
BLACK
6
CONTINUOUS
10
7.05617
20
-4.57176
11
7.04117
21
-4.57176
0
LINE
8
BLACK
6
CONTINUOUS
10
7.04117
20
-4.57176
11
7.03367
21
-4.56801
0
LINE
8
BLACK
6
CONTINUOUS
10
7.03367
20
-4.56801
11
7.02992
21
-4.56051
0
LINE
8
BLACK
6
CONTINUOUS
10
7.02992
20
-4.56051
11
7.02992
21
-4.53051
0
LINE
8
BLACK
6
CONTINUOUS
10
7.02992
20
-4.53051
11
7.03367
21
-4.52301
0
LINE
8
BLACK
6
CONTINUOUS
10
7.03367
20
-4.52301
11
7.04117
21
-4.51926
0
LINE
8
BLACK
6
CONTINUOUS
10
7.04117
20
-4.51926
11
7.05617
21
-4.51926
0
LINE
8
BLACK
6
CONTINUOUS
10
7.05617
20
-4.51926
11
7.06367
21
-4.52301
0
LINE
8
BLACK
6
CONTINUOUS
10
7.06367
20
-4.52301
11
7.06741
21
-4.53051
0
LINE
8
BLACK
6
CONTINUOUS
10
7.06741
20
-4.53051
11
7.06741
21
-4.53801
0
LINE
8
BLACK
6
CONTINUOUS
10
7.06741
20
-4.53801
11
7.02992
21
-4.54551
0
LINE
8
BLACK
6
CONTINUOUS
10
7.09741
20
-4.56801
11
7.10491
21
-4.57176
0
LINE
8
BLACK
6
CONTINUOUS
10
7.10491
20
-4.57176
11
7.11991
21
-4.57176
0
LINE
8
BLACK
6
CONTINUOUS
10
7.11991
20
-4.57176
11
7.12741
21
-4.56801
0
LINE
8
BLACK
6
CONTINUOUS
10
7.12741
20
-4.56801
11
7.13116
21
-4.56051
0
LINE
8
BLACK
6
CONTINUOUS
10
7.13116
20
-4.56051
11
7.13116
21
-4.55676
0
LINE
8
BLACK
6
CONTINUOUS
10
7.13116
20
-4.55676
11
7.12741
21
-4.54926
0
LINE
8
BLACK
6
CONTINUOUS
10
7.12741
20
-4.54926
11
7.11991
21
-4.54551
0
LINE
8
BLACK
6
CONTINUOUS
10
7.11991
20
-4.54551
11
7.10866
21
-4.54551
0
LINE
8
BLACK
6
CONTINUOUS
10
7.10866
20
-4.54551
11
7.10116
21
-4.54176
0
LINE
8
BLACK
6
CONTINUOUS
10
7.10116
20
-4.54176
11
7.09741
21
-4.53426
0
LINE
8
BLACK
6
CONTINUOUS
10
7.09741
20
-4.53426
11
7.09741
21
-4.53051
0
LINE
8
BLACK
6
CONTINUOUS
10
7.09741
20
-4.53051
11
7.10116
21
-4.52301
0
LINE
8
BLACK
6
CONTINUOUS
10
7.10116
20
-4.52301
11
7.10866
21
-4.51926
0
LINE
8
BLACK
6
CONTINUOUS
10
7.10866
20
-4.51926
11
7.11991
21
-4.51926
0
LINE
8
BLACK
6
CONTINUOUS
10
7.11991
20
-4.51926
11
7.12741
21
-4.52301
0
LINE
8
BLACK
6
CONTINUOUS
10
7.1574
20
-4.60175
11
7.16115
21
-4.598
0
LINE
8
BLACK
6
CONTINUOUS
10
7.16115
20
-4.598
11
7.16865
21
-4.58676
0
LINE
8
BLACK
6
CONTINUOUS
10
7.16865
20
-4.58676
11
7.1724
21
-4.57926
0
LINE
8
BLACK
6
CONTINUOUS
10
7.1724
20
-4.57926
11
7.17615
21
-4.56801
0
LINE
8
BLACK
6
CONTINUOUS
10
7.17615
20
-4.56801
11
7.1799
21
-4.54926
0
LINE
8
BLACK
6
CONTINUOUS
10
7.1799
20
-4.54926
11
7.1799
21
-4.53426
0
LINE
8
BLACK
6
CONTINUOUS
10
7.1799
20
-4.53426
11
7.17615
21
-4.51552
0
LINE
8
BLACK
6
CONTINUOUS
10
7.17615
20
-4.51552
11
7.1724
21
-4.50427
0
LINE
8
BLACK
6
CONTINUOUS
10
7.1724
20
-4.50427
11
7.16865
21
-4.49677
0
LINE
8
BLACK
6
CONTINUOUS
10
7.16865
20
-4.49677
11
7.16115
21
-4.48552
0
LINE
8
BLACK
6
CONTINUOUS
10
7.16115
20
-4.48552
11
7.1574
21
-4.48177
0
LINE
8
BLACK
6
CONTINUOUS
10
7.29989
20
-4.60175
11
7.29614
21
-4.598
0
LINE
8
BLACK
6
CONTINUOUS
10
7.29614
20
-4.598
11
7.28864
21
-4.58676
0
LINE
8
BLACK
6
CONTINUOUS
10
7.28864
20
-4.58676
11
7.28489
21
-4.57926
0
LINE
8
BLACK
6
CONTINUOUS
10
7.28489
20
-4.57926
11
7.28114
21
-4.56801
0
LINE
8
BLACK
6
CONTINUOUS
10
7.28114
20
-4.56801
11
7.27739
21
-4.54926
0
LINE
8
BLACK
6
CONTINUOUS
10
7.27739
20
-4.54926
11
7.27739
21
-4.53426
0
LINE
8
BLACK
6
CONTINUOUS
10
7.27739
20
-4.53426
11
7.28114
21
-4.51552
0
LINE
8
BLACK
6
CONTINUOUS
10
7.28114
20
-4.51552
11
7.28489
21
-4.50427
0
LINE
8
BLACK
6
CONTINUOUS
10
7.28489
20
-4.50427
11
7.28864
21
-4.49677
0
LINE
8
BLACK
6
CONTINUOUS
10
7.28864
20
-4.49677
11
7.29614
21
-4.48552
0
LINE
8
BLACK
6
CONTINUOUS
10
7.29614
20
-4.48552
11
7.29989
21
-4.48177
0
LINE
8
BLACK
6
CONTINUOUS
10
7.32988
20
-4.51926
11
7.32988
21
-4.57176
0
LINE
8
BLACK
6
CONTINUOUS
10
7.32988
20
-4.52676
11
7.33363
21
-4.52301
0
LINE
8
BLACK
6
CONTINUOUS
10
7.33363
20
-4.52301
11
7.34113
21
-4.51926
0
LINE
8
BLACK
6
CONTINUOUS
10
7.34113
20
-4.51926
11
7.35238
21
-4.51926
0
LINE
8
BLACK
6
CONTINUOUS
10
7.35238
20
-4.51926
11
7.35988
21
-4.52301
0
LINE
8
BLACK
6
CONTINUOUS
10
7.35988
20
-4.52301
11
7.36363
21
-4.53051
0
LINE
8
BLACK
6
CONTINUOUS
10
7.36363
20
-4.53051
11
7.36363
21
-4.57176
0
LINE
8
BLACK
6
CONTINUOUS
10
7.41237
20
-4.57176
11
7.40487
21
-4.56801
0
LINE
8
BLACK
6
CONTINUOUS
10
7.40487
20
-4.56801
11
7.40112
21
-4.56426
0
LINE
8
BLACK
6
CONTINUOUS
10
7.40112
20
-4.56426
11
7.39737
21
-4.55676
0
LINE
8
BLACK
6
CONTINUOUS
10
7.39737
20
-4.55676
11
7.39737
21
-4.53426
0
LINE
8
BLACK
6
CONTINUOUS
10
7.39737
20
-4.53426
11
7.40112
21
-4.52676
0
LINE
8
BLACK
6
CONTINUOUS
10
7.40112
20
-4.52676
11
7.40487
21
-4.52301
0
LINE
8
BLACK
6
CONTINUOUS
10
7.40487
20
-4.52301
11
7.41237
21
-4.51926
0
LINE
8
BLACK
6
CONTINUOUS
10
7.41237
20
-4.51926
11
7.42362
21
-4.51926
0
LINE
8
BLACK
6
CONTINUOUS
10
7.42362
20
-4.51926
11
7.43112
21
-4.52301
0
LINE
8
BLACK
6
CONTINUOUS
10
7.43112
20
-4.52301
11
7.43487
21
-4.52676
0
LINE
8
BLACK
6
CONTINUOUS
10
7.43487
20
-4.52676
11
7.43862
21
-4.53426
0
LINE
8
BLACK
6
CONTINUOUS
10
7.43862
20
-4.53426
11
7.43862
21
-4.55676
0
LINE
8
BLACK
6
CONTINUOUS
10
7.43862
20
-4.55676
11
7.43487
21
-4.56426
0
LINE
8
BLACK
6
CONTINUOUS
10
7.43487
20
-4.56426
11
7.43112
21
-4.56801
0
LINE
8
BLACK
6
CONTINUOUS
10
7.43112
20
-4.56801
11
7.42362
21
-4.57176
0
LINE
8
BLACK
6
CONTINUOUS
10
7.42362
20
-4.57176
11
7.41237
21
-4.57176
0
LINE
8
BLACK
6
CONTINUOUS
10
7.46112
20
-4.51926
11
7.49111
21
-4.51926
0
LINE
8
BLACK
6
CONTINUOUS
10
7.47236
20
-4.49302
11
7.47236
21
-4.56051
0
LINE
8
BLACK
6
CONTINUOUS
10
7.47236
20
-4.56051
11
7.47611
21
-4.56801
0
LINE
8
BLACK
6
CONTINUOUS
10
7.47611
20
-4.56801
11
7.48361
21
-4.57176
0
LINE
8
BLACK
6
CONTINUOUS
10
7.48361
20
-4.57176
11
7.49111
21
-4.57176
0
LINE
8
BLACK
6
CONTINUOUS
10
7.57735
20
-4.51926
11
7.57735
21
-4.598
0
LINE
8
BLACK
6
CONTINUOUS
10
7.57735
20
-4.52301
11
7.58485
21
-4.51926
0
LINE
8
BLACK
6
CONTINUOUS
10
7.58485
20
-4.51926
11
7.59985
21
-4.51926
0
LINE
8
BLACK
6
CONTINUOUS
10
7.59985
20
-4.51926
11
7.60735
21
-4.52301
0
LINE
8
BLACK
6
CONTINUOUS
10
7.60735
20
-4.52301
11
7.6111
21
-4.52676
0
LINE
8
BLACK
6
CONTINUOUS
10
7.6111
20
-4.52676
11
7.61485
21
-4.53426
0
LINE
8
BLACK
6
CONTINUOUS
10
7.61485
20
-4.53426
11
7.61485
21
-4.55676
0
LINE
8
BLACK
6
CONTINUOUS
10
7.61485
20
-4.55676
11
7.6111
21
-4.56426
0
LINE
8
BLACK
6
CONTINUOUS
10
7.6111
20
-4.56426
11
7.60735
21
-4.56801
0
LINE
8
BLACK
6
CONTINUOUS
10
7.60735
20
-4.56801
11
7.59985
21
-4.57176
0
LINE
8
BLACK
6
CONTINUOUS
10
7.59985
20
-4.57176
11
7.58485
21
-4.57176
0
LINE
8
BLACK
6
CONTINUOUS
10
7.58485
20
-4.57176
11
7.57735
21
-4.56801
0
LINE
8
BLACK
6
CONTINUOUS
10
7.65984
20
-4.57176
11
7.65234
21
-4.56801
0
LINE
8
BLACK
6
CONTINUOUS
10
7.65234
20
-4.56801
11
7.64859
21
-4.56051
0
LINE
8
BLACK
6
CONTINUOUS
10
7.64859
20
-4.56051
11
7.64859
21
-4.49302
0
LINE
8
BLACK
6
CONTINUOUS
10
7.72358
20
-4.57176
11
7.72358
21
-4.53051
0
LINE
8
BLACK
6
CONTINUOUS
10
7.72358
20
-4.53051
11
7.71983
21
-4.52301
0
LINE
8
BLACK
6
CONTINUOUS
10
7.71983
20
-4.52301
11
7.71233
21
-4.51926
0
LINE
8
BLACK
6
CONTINUOUS
10
7.71233
20
-4.51926
11
7.69734
21
-4.51926
0
LINE
8
BLACK
6
CONTINUOUS
10
7.69734
20
-4.51926
11
7.68984
21
-4.52301
0
LINE
8
BLACK
6
CONTINUOUS
10
7.72358
20
-4.56801
11
7.71608
21
-4.57176
0
LINE
8
BLACK
6
CONTINUOUS
10
7.71608
20
-4.57176
11
7.69734
21
-4.57176
0
LINE
8
BLACK
6
CONTINUOUS
10
7.69734
20
-4.57176
11
7.68984
21
-4.56801
0
LINE
8
BLACK
6
CONTINUOUS
10
7.68984
20
-4.56801
11
7.68609
21
-4.56051
0
LINE
8
BLACK
6
CONTINUOUS
10
7.68609
20
-4.56051
11
7.68609
21
-4.55301
0
LINE
8
BLACK
6
CONTINUOUS
10
7.68609
20
-4.55301
11
7.68984
21
-4.54551
0
LINE
8
BLACK
6
CONTINUOUS
10
7.68984
20
-4.54551
11
7.69734
21
-4.54176
0
LINE
8
BLACK
6
CONTINUOUS
10
7.69734
20
-4.54176
11
7.71608
21
-4.54176
0
LINE
8
BLACK
6
CONTINUOUS
10
7.71608
20
-4.54176
11
7.72358
21
-4.53801
0
LINE
8
BLACK
6
CONTINUOUS
10
7.74983
20
-4.51926
11
7.77983
21
-4.51926
0
LINE
8
BLACK
6
CONTINUOUS
10
7.76108
20
-4.49302
11
7.76108
21
-4.56051
0
LINE
8
BLACK
6
CONTINUOUS
10
7.76108
20
-4.56051
11
7.76483
21
-4.56801
0
LINE
8
BLACK
6
CONTINUOUS
10
7.76483
20
-4.56801
11
7.77233
21
-4.57176
0
LINE
8
BLACK
6
CONTINUOUS
10
7.77233
20
-4.57176
11
7.77983
21
-4.57176
0
LINE
8
BLACK
6
CONTINUOUS
10
7.83607
20
-4.56801
11
7.82857
21
-4.57176
0
LINE
8
BLACK
6
CONTINUOUS
10
7.82857
20
-4.57176
11
7.81357
21
-4.57176
0
LINE
8
BLACK
6
CONTINUOUS
10
7.81357
20
-4.57176
11
7.80607
21
-4.56801
0
LINE
8
BLACK
6
CONTINUOUS
10
7.80607
20
-4.56801
11
7.80232
21
-4.56051
0
LINE
8
BLACK
6
CONTINUOUS
10
7.80232
20
-4.56051
11
7.80232
21
-4.53051
0
LINE
8
BLACK
6
CONTINUOUS
10
7.80232
20
-4.53051
11
7.80607
21
-4.52301
0
LINE
8
BLACK
6
CONTINUOUS
10
7.80607
20
-4.52301
11
7.81357
21
-4.51926
0
LINE
8
BLACK
6
CONTINUOUS
10
7.81357
20
-4.51926
11
7.82857
21
-4.51926
0
LINE
8
BLACK
6
CONTINUOUS
10
7.82857
20
-4.51926
11
7.83607
21
-4.52301
0
LINE
8
BLACK
6
CONTINUOUS
10
7.83607
20
-4.52301
11
7.83982
21
-4.53051
0
LINE
8
BLACK
6
CONTINUOUS
10
7.83982
20
-4.53051
11
7.83982
21
-4.53801
0
LINE
8
BLACK
6
CONTINUOUS
10
7.83982
20
-4.53801
11
7.80232
21
-4.54551
0
LINE
8
BLACK
6
CONTINUOUS
10
7.90731
20
-4.57176
11
7.90731
21
-4.49302
0
LINE
8
BLACK
6
CONTINUOUS
10
7.90731
20
-4.56801
11
7.89981
21
-4.57176
0
LINE
8
BLACK
6
CONTINUOUS
10
7.89981
20
-4.57176
11
7.88481
21
-4.57176
0
LINE
8
BLACK
6
CONTINUOUS
10
7.88481
20
-4.57176
11
7.87731
21
-4.56801
0
LINE
8
BLACK
6
CONTINUOUS
10
7.87731
20
-4.56801
11
7.87356
21
-4.56426
0
LINE
8
BLACK
6
CONTINUOUS
10
7.87356
20
-4.56426
11
7.86981
21
-4.55676
0
LINE
8
BLACK
6
CONTINUOUS
10
7.86981
20
-4.55676
11
7.86981
21
-4.53426
0
LINE
8
BLACK
6
CONTINUOUS
10
7.86981
20
-4.53426
11
7.87356
21
-4.52676
0
LINE
8
BLACK
6
CONTINUOUS
10
7.87356
20
-4.52676
11
7.87731
21
-4.52301
0
LINE
8
BLACK
6
CONTINUOUS
10
7.87731
20
-4.52301
11
7.88481
21
-4.51926
0
LINE
8
BLACK
6
CONTINUOUS
10
7.88481
20
-4.51926
11
7.89981
21
-4.51926
0
LINE
8
BLACK
6
CONTINUOUS
10
7.89981
20
-4.51926
11
7.90731
21
-4.52301
0
LINE
8
BLACK
6
CONTINUOUS
10
7.93731
20
-4.60175
11
7.94106
21
-4.598
0
LINE
8
BLACK
6
CONTINUOUS
10
7.94106
20
-4.598
11
7.94855
21
-4.58676
0
LINE
8
BLACK
6
CONTINUOUS
10
7.94855
20
-4.58676
11
7.9523
21
-4.57926
0
LINE
8
BLACK
6
CONTINUOUS
10
7.9523
20
-4.57926
11
7.95605
21
-4.56801
0
LINE
8
BLACK
6
CONTINUOUS
10
7.95605
20
-4.56801
11
7.9598
21
-4.54926
0
LINE
8
BLACK
6
CONTINUOUS
10
7.9598
20
-4.54926
11
7.9598
21
-4.53426
0
LINE
8
BLACK
6
CONTINUOUS
10
7.9598
20
-4.53426
11
7.95605
21
-4.51552
0
LINE
8
BLACK
6
CONTINUOUS
10
7.95605
20
-4.51552
11
7.9523
21
-4.50427
0
LINE
8
BLACK
6
CONTINUOUS
10
7.9523
20
-4.50427
11
7.94855
21
-4.49677
0
LINE
8
BLACK
6
CONTINUOUS
10
7.94855
20
-4.49677
11
7.94106
21
-4.48552
0
LINE
8
BLACK
6
CONTINUOUS
10
7.94106
20
-4.48552
11
7.93731
21
-4.48177
  0
ENDSEC
  0
EOF
