  0
SECTION
  2
HEADER
  9
$ANGBASE
  50
0.0
  9
$ANGDIR
  70
1
  9
$MEASUREMENT
  70
0
  0
ENDSEC
  0
SECTION
  2
TABLES
  0
TABLE
  2
LTYPE
  70
4
  0
LTYPE
  5
40F
  2
CONTINUOUS
  70
0
  3
Solid line
  72
65
  73
0
  40
0.0
  0
LTYPE
  5
410
  2
DASHDOT
 70
0
  3
Dash Dot ____ _ ____ _
 72
65
 73
4
 40
2.0
 49
1.25
 49
-0.25
 49
0.25
 49
-0.25
  0
LTYPE
  5
411
  2
DASHED
 70
0
  3
Dashed __ __ __ __ __
 72
65
 73
2
 40
0.75
 49
0.5
 49
-0.25
  0
LTYPE
  5
43B
  2
DOTTED
 70
0
  3
Dotted .  .  .  .
 72
65
 73
2
 40
0.2
 49
0.0
 49
-0.2
  0
ENDTAB
  0
TABLE
  2
STYLE
  70
4
  0
STYLE
  2
KICAD
  70
0
  40
0
  41
1
  42
1
  50
0
  71
0
  3
isocp.shx
  0
STYLE
  2
KICADB
  70
0
  40
0
  41
1
  42
1
  50
0
  71
0
  3
isocp.shx
  0
STYLE
  2
KICADI
  70
0
  40
0
  41
1
  42
1
  50
15
  71
0
  3
isocp.shx
  0
STYLE
  2
KICADBI
  70
0
  40
0
  41
1
  42
1
  50
15
  71
0
  3
isocp.shx
  0
ENDTAB
  0
TABLE
  2
LAYER
  70
1
  0
LAYER
  2
BLACK
  70
0
  62
7
  6
CONTINUOUS
  0
ENDTAB
  0
ENDSEC
  0
SECTION
  2
ENTITIES
0
LINE
8
BLACK
6
CONTINUOUS
10
5.31906
20
-3.72087
11
5.99578
21
-3.72047
0
LINE
8
BLACK
6
CONTINUOUS
10
5.27969
20
-3.76024
11
5.28063
21
-4.24094
0
LINE
8
BLACK
6
CONTINUOUS
10
5.32
20
-4.28031
11
5.99578
21
-4.28318
0
LINE
8
BLACK
6
CONTINUOUS
10
6.03515
20
-3.75984
11
6.03515
21
-4.24381
0
ARC
8
BLACK
10
5.31906
20
-3.76024
40
0.0393701
50
-270
51
-180
0
ARC
8
BLACK
10
5.32
20
-4.24094
40
0.0393701
50
-180
51
-90
0
ARC
8
BLACK
10
5.99578
20
-4.24381
40
0.0393701
50
-90
51
-0
0
ARC
8
BLACK
10
5.99578
20
-3.75984
40
0.0393701
50
-0
51
90
0
LINE
8
BLACK
6
CONTINUOUS
10
5.29409
20
-4.09055
11
5.30591
21
-4.10236
0
LINE
8
BLACK
6
CONTINUOUS
10
5.30591
20
-4.09055
11
5.29409
21
-4.10236
0
LINE
8
BLACK
6
CONTINUOUS
10
5.31409
20
-4.00358
11
5.32591
21
-4.01539
0
LINE
8
BLACK
6
CONTINUOUS
10
5.32591
20
-4.00358
11
5.31409
21
-4.01539
0
LINE
8
BLACK
6
CONTINUOUS
10
5.32409
20
-4.11409
11
5.33591
21
-4.12591
0
LINE
8
BLACK
6
CONTINUOUS
10
5.33591
20
-4.11409
11
5.32409
21
-4.12591
0
LINE
8
BLACK
6
CONTINUOUS
10
5.3626
20
-3.80039
11
5.37441
21
-3.8122
0
LINE
8
BLACK
6
CONTINUOUS
10
5.37441
20
-3.80039
11
5.3626
21
-3.8122
0
LINE
8
BLACK
6
CONTINUOUS
10
5.37323
20
-4.06772
11
5.38504
21
-4.07953
0
LINE
8
BLACK
6
CONTINUOUS
10
5.38504
20
-4.06772
11
5.37323
21
-4.07953
0
LINE
8
BLACK
6
CONTINUOUS
10
5.37409
20
-4.00409
11
5.38591
21
-4.01591
0
LINE
8
BLACK
6
CONTINUOUS
10
5.38591
20
-4.00409
11
5.37409
21
-4.01591
0
LINE
8
BLACK
6
CONTINUOUS
10
5.37409
20
-4.11409
11
5.38591
21
-4.12591
0
LINE
8
BLACK
6
CONTINUOUS
10
5.38591
20
-4.11409
11
5.37409
21
-4.12591
0
LINE
8
BLACK
6
CONTINUOUS
10
5.43409
20
-4.00358
11
5.44591
21
-4.01539
0
LINE
8
BLACK
6
CONTINUOUS
10
5.44591
20
-4.00358
11
5.43409
21
-4.01539
0
LINE
8
BLACK
6
CONTINUOUS
10
5.43409
20
-4.11409
11
5.44591
21
-4.12591
0
LINE
8
BLACK
6
CONTINUOUS
10
5.44591
20
-4.11409
11
5.43409
21
-4.12591
0
LINE
8
BLACK
6
CONTINUOUS
10
5.47409
20
-4.01409
11
5.48591
21
-4.02591
0
LINE
8
BLACK
6
CONTINUOUS
10
5.48591
20
-4.01409
11
5.47409
21
-4.02591
0
LINE
8
BLACK
6
CONTINUOUS
10
5.52409
20
-4.16409
11
5.53591
21
-4.17591
0
LINE
8
BLACK
6
CONTINUOUS
10
5.53591
20
-4.16409
11
5.52409
21
-4.17591
0
LINE
8
BLACK
6
CONTINUOUS
10
5.58409
20
-4.16409
11
5.59591
21
-4.17591
0
LINE
8
BLACK
6
CONTINUOUS
10
5.59591
20
-4.16409
11
5.58409
21
-4.17591
0
LINE
8
BLACK
6
CONTINUOUS
10
5.61378
20
-3.9752
11
5.62559
21
-3.98701
0
LINE
8
BLACK
6
CONTINUOUS
10
5.62559
20
-3.9752
11
5.61378
21
-3.98701
0
LINE
8
BLACK
6
CONTINUOUS
10
5.65409
20
-4.05409
11
5.66591
21
-4.06591
0
LINE
8
BLACK
6
CONTINUOUS
10
5.66591
20
-4.05409
11
5.65409
21
-4.06591
0
LINE
8
BLACK
6
CONTINUOUS
10
5.65409
20
-4.08409
11
5.66591
21
-4.09591
0
LINE
8
BLACK
6
CONTINUOUS
10
5.66591
20
-4.08409
11
5.65409
21
-4.09591
0
LINE
8
BLACK
6
CONTINUOUS
10
5.65409
20
-4.11409
11
5.66591
21
-4.12591
0
LINE
8
BLACK
6
CONTINUOUS
10
5.66591
20
-4.11409
11
5.65409
21
-4.12591
0
LINE
8
BLACK
6
CONTINUOUS
10
5.65409
20
-4.16409
11
5.66591
21
-4.17591
0
LINE
8
BLACK
6
CONTINUOUS
10
5.66591
20
-4.16409
11
5.65409
21
-4.17591
0
LINE
8
BLACK
6
CONTINUOUS
10
5.71575
20
-4.16378
11
5.72756
21
-4.17559
0
LINE
8
BLACK
6
CONTINUOUS
10
5.72756
20
-4.16378
11
5.71575
21
-4.17559
0
LINE
8
BLACK
6
CONTINUOUS
10
5.80433
20
-3.96496
11
5.81614
21
-3.97677
0
LINE
8
BLACK
6
CONTINUOUS
10
5.81614
20
-3.96496
11
5.80433
21
-3.97677
0
LINE
8
BLACK
6
CONTINUOUS
10
5.8622
20
-3.93543
11
5.87402
21
-3.94724
0
LINE
8
BLACK
6
CONTINUOUS
10
5.87402
20
-3.93543
11
5.8622
21
-3.94724
0
CIRCLE
8
BLACK
10
5.42992
20
-3.80039
40
0.019685
0
CIRCLE
8
BLACK
10
5.42992
20
-3.90039
40
0.019685
0
CIRCLE
8
BLACK
10
5.52992
20
-3.80039
40
0.019685
0
CIRCLE
8
BLACK
10
5.52992
20
-3.90039
40
0.019685
0
CIRCLE
8
BLACK
10
5.62992
20
-3.80039
40
0.019685
0
CIRCLE
8
BLACK
10
5.62992
20
-3.90039
40
0.019685
0
CIRCLE
8
BLACK
10
5.72992
20
-3.80039
40
0.019685
0
CIRCLE
8
BLACK
10
5.72992
20
-3.90039
40
0.019685
0
CIRCLE
8
BLACK
10
5.82992
20
-3.80039
40
0.019685
0
CIRCLE
8
BLACK
10
5.82992
20
-3.90039
40
0.019685
0
LINE
8
BLACK
6
CONTINUOUS
10
5.38013
20
-4.4064
11
5.38013
21
-4.32766
0
LINE
8
BLACK
6
CONTINUOUS
10
5.38013
20
-4.32766
11
5.39887
21
-4.32766
0
LINE
8
BLACK
6
CONTINUOUS
10
5.39887
20
-4.32766
11
5.41012
21
-4.33141
0
LINE
8
BLACK
6
CONTINUOUS
10
5.41012
20
-4.33141
11
5.41762
21
-4.33891
0
LINE
8
BLACK
6
CONTINUOUS
10
5.41762
20
-4.33891
11
5.42137
21
-4.34641
0
LINE
8
BLACK
6
CONTINUOUS
10
5.42137
20
-4.34641
11
5.42512
21
-4.36141
0
LINE
8
BLACK
6
CONTINUOUS
10
5.42512
20
-4.36141
11
5.42512
21
-4.37266
0
LINE
8
BLACK
6
CONTINUOUS
10
5.42512
20
-4.37266
11
5.42137
21
-4.38766
0
LINE
8
BLACK
6
CONTINUOUS
10
5.42137
20
-4.38766
11
5.41762
21
-4.39516
0
LINE
8
BLACK
6
CONTINUOUS
10
5.41762
20
-4.39516
11
5.41012
21
-4.40265
0
LINE
8
BLACK
6
CONTINUOUS
10
5.41012
20
-4.40265
11
5.39887
21
-4.4064
0
LINE
8
BLACK
6
CONTINUOUS
10
5.39887
20
-4.4064
11
5.38013
21
-4.4064
0
LINE
8
BLACK
6
CONTINUOUS
10
5.45887
20
-4.4064
11
5.45887
21
-4.35391
0
LINE
8
BLACK
6
CONTINUOUS
10
5.45887
20
-4.36891
11
5.46262
21
-4.36141
0
LINE
8
BLACK
6
CONTINUOUS
10
5.46262
20
-4.36141
11
5.46636
21
-4.35766
0
LINE
8
BLACK
6
CONTINUOUS
10
5.46636
20
-4.35766
11
5.47386
21
-4.35391
0
LINE
8
BLACK
6
CONTINUOUS
10
5.47386
20
-4.35391
11
5.48136
21
-4.35391
0
LINE
8
BLACK
6
CONTINUOUS
10
5.50761
20
-4.4064
11
5.50761
21
-4.35391
0
LINE
8
BLACK
6
CONTINUOUS
10
5.50761
20
-4.32766
11
5.50386
21
-4.33141
0
LINE
8
BLACK
6
CONTINUOUS
10
5.50386
20
-4.33141
11
5.50761
21
-4.33516
0
LINE
8
BLACK
6
CONTINUOUS
10
5.50761
20
-4.33516
11
5.51136
21
-4.33141
0
LINE
8
BLACK
6
CONTINUOUS
10
5.51136
20
-4.33141
11
5.50761
21
-4.32766
0
LINE
8
BLACK
6
CONTINUOUS
10
5.50761
20
-4.32766
11
5.50761
21
-4.33516
0
LINE
8
BLACK
6
CONTINUOUS
10
5.55635
20
-4.4064
11
5.54885
21
-4.40265
0
LINE
8
BLACK
6
CONTINUOUS
10
5.54885
20
-4.40265
11
5.5451
21
-4.39516
0
LINE
8
BLACK
6
CONTINUOUS
10
5.5451
20
-4.39516
11
5.5451
21
-4.32766
0
LINE
8
BLACK
6
CONTINUOUS
10
5.5976
20
-4.4064
11
5.5901
21
-4.40265
0
LINE
8
BLACK
6
CONTINUOUS
10
5.5901
20
-4.40265
11
5.58635
21
-4.39516
0
LINE
8
BLACK
6
CONTINUOUS
10
5.58635
20
-4.39516
11
5.58635
21
-4.32766
0
LINE
8
BLACK
6
CONTINUOUS
10
5.68759
20
-4.4064
11
5.68759
21
-4.32766
0
LINE
8
BLACK
6
CONTINUOUS
10
5.68759
20
-4.32766
11
5.71383
21
-4.38391
0
LINE
8
BLACK
6
CONTINUOUS
10
5.71383
20
-4.38391
11
5.74008
21
-4.32766
0
LINE
8
BLACK
6
CONTINUOUS
10
5.74008
20
-4.32766
11
5.74008
21
-4.4064
0
LINE
8
BLACK
6
CONTINUOUS
10
5.81132
20
-4.4064
11
5.81132
21
-4.36516
0
LINE
8
BLACK
6
CONTINUOUS
10
5.81132
20
-4.36516
11
5.80757
21
-4.35766
0
LINE
8
BLACK
6
CONTINUOUS
10
5.80757
20
-4.35766
11
5.80007
21
-4.35391
0
LINE
8
BLACK
6
CONTINUOUS
10
5.80007
20
-4.35391
11
5.78507
21
-4.35391
0
LINE
8
BLACK
6
CONTINUOUS
10
5.78507
20
-4.35391
11
5.77758
21
-4.35766
0
LINE
8
BLACK
6
CONTINUOUS
10
5.81132
20
-4.40265
11
5.80382
21
-4.4064
0
LINE
8
BLACK
6
CONTINUOUS
10
5.80382
20
-4.4064
11
5.78507
21
-4.4064
0
LINE
8
BLACK
6
CONTINUOUS
10
5.78507
20
-4.4064
11
5.77758
21
-4.40265
0
LINE
8
BLACK
6
CONTINUOUS
10
5.77758
20
-4.40265
11
5.77383
21
-4.39516
0
LINE
8
BLACK
6
CONTINUOUS
10
5.77383
20
-4.39516
11
5.77383
21
-4.38766
0
LINE
8
BLACK
6
CONTINUOUS
10
5.77383
20
-4.38766
11
5.77758
21
-4.38016
0
LINE
8
BLACK
6
CONTINUOUS
10
5.77758
20
-4.38016
11
5.78507
21
-4.37641
0
LINE
8
BLACK
6
CONTINUOUS
10
5.78507
20
-4.37641
11
5.80382
21
-4.37641
0
LINE
8
BLACK
6
CONTINUOUS
10
5.80382
20
-4.37641
11
5.81132
21
-4.37266
0
LINE
8
BLACK
6
CONTINUOUS
10
5.84882
20
-4.35391
11
5.84882
21
-4.43265
0
LINE
8
BLACK
6
CONTINUOUS
10
5.84882
20
-4.35766
11
5.85632
21
-4.35391
0
LINE
8
BLACK
6
CONTINUOUS
10
5.85632
20
-4.35391
11
5.87131
21
-4.35391
0
LINE
8
BLACK
6
CONTINUOUS
10
5.87131
20
-4.35391
11
5.87881
21
-4.35766
0
LINE
8
BLACK
6
CONTINUOUS
10
5.87881
20
-4.35766
11
5.88256
21
-4.36141
0
LINE
8
BLACK
6
CONTINUOUS
10
5.88256
20
-4.36141
11
5.88631
21
-4.36891
0
LINE
8
BLACK
6
CONTINUOUS
10
5.88631
20
-4.36891
11
5.88631
21
-4.39141
0
LINE
8
BLACK
6
CONTINUOUS
10
5.88631
20
-4.39141
11
5.88256
21
-4.3989
0
LINE
8
BLACK
6
CONTINUOUS
10
5.88256
20
-4.3989
11
5.87881
21
-4.40265
0
LINE
8
BLACK
6
CONTINUOUS
10
5.87881
20
-4.40265
11
5.87131
21
-4.4064
0
LINE
8
BLACK
6
CONTINUOUS
10
5.87131
20
-4.4064
11
5.85632
21
-4.4064
0
LINE
8
BLACK
6
CONTINUOUS
10
5.85632
20
-4.4064
11
5.84882
21
-4.40265
0
LINE
8
BLACK
6
CONTINUOUS
10
5.92006
20
-4.3989
11
5.92381
21
-4.40265
0
LINE
8
BLACK
6
CONTINUOUS
10
5.92381
20
-4.40265
11
5.92006
21
-4.4064
0
LINE
8
BLACK
6
CONTINUOUS
10
5.92006
20
-4.4064
11
5.91631
21
-4.40265
0
LINE
8
BLACK
6
CONTINUOUS
10
5.91631
20
-4.40265
11
5.92006
21
-4.3989
0
LINE
8
BLACK
6
CONTINUOUS
10
5.92006
20
-4.3989
11
5.92006
21
-4.4064
0
LINE
8
BLACK
6
CONTINUOUS
10
5.92006
20
-4.35766
11
5.92381
21
-4.36141
0
LINE
8
BLACK
6
CONTINUOUS
10
5.92381
20
-4.36141
11
5.92006
21
-4.36516
0
LINE
8
BLACK
6
CONTINUOUS
10
5.92006
20
-4.36516
11
5.91631
21
-4.36141
0
LINE
8
BLACK
6
CONTINUOUS
10
5.91631
20
-4.36141
11
5.92006
21
-4.35766
0
LINE
8
BLACK
6
CONTINUOUS
10
5.92006
20
-4.35766
11
5.92006
21
-4.36516
0
LINE
8
BLACK
6
CONTINUOUS
10
5.26689
20
-4.53023
11
5.2787
21
-4.54204
0
LINE
8
BLACK
6
CONTINUOUS
10
5.2787
20
-4.53023
11
5.26689
21
-4.54204
0
LINE
8
BLACK
6
CONTINUOUS
10
5.39512
20
-4.49302
11
5.40262
21
-4.49302
0
LINE
8
BLACK
6
CONTINUOUS
10
5.40262
20
-4.49302
11
5.41012
21
-4.49677
0
LINE
8
BLACK
6
CONTINUOUS
10
5.41012
20
-4.49677
11
5.41387
21
-4.50052
0
LINE
8
BLACK
6
CONTINUOUS
10
5.41387
20
-4.50052
11
5.41762
21
-4.50802
0
LINE
8
BLACK
6
CONTINUOUS
10
5.41762
20
-4.50802
11
5.42137
21
-4.52301
0
LINE
8
BLACK
6
CONTINUOUS
10
5.42137
20
-4.52301
11
5.42137
21
-4.54176
0
LINE
8
BLACK
6
CONTINUOUS
10
5.42137
20
-4.54176
11
5.41762
21
-4.55676
0
LINE
8
BLACK
6
CONTINUOUS
10
5.41762
20
-4.55676
11
5.41387
21
-4.56426
0
LINE
8
BLACK
6
CONTINUOUS
10
5.41387
20
-4.56426
11
5.41012
21
-4.56801
0
LINE
8
BLACK
6
CONTINUOUS
10
5.41012
20
-4.56801
11
5.40262
21
-4.57176
0
LINE
8
BLACK
6
CONTINUOUS
10
5.40262
20
-4.57176
11
5.39512
21
-4.57176
0
LINE
8
BLACK
6
CONTINUOUS
10
5.39512
20
-4.57176
11
5.38762
21
-4.56801
0
LINE
8
BLACK
6
CONTINUOUS
10
5.38762
20
-4.56801
11
5.38388
21
-4.56426
0
LINE
8
BLACK
6
CONTINUOUS
10
5.38388
20
-4.56426
11
5.38013
21
-4.55676
0
LINE
8
BLACK
6
CONTINUOUS
10
5.38013
20
-4.55676
11
5.37638
21
-4.54176
0
LINE
8
BLACK
6
CONTINUOUS
10
5.37638
20
-4.54176
11
5.37638
21
-4.52301
0
LINE
8
BLACK
6
CONTINUOUS
10
5.37638
20
-4.52301
11
5.38013
21
-4.50802
0
LINE
8
BLACK
6
CONTINUOUS
10
5.38013
20
-4.50802
11
5.38388
21
-4.50052
0
LINE
8
BLACK
6
CONTINUOUS
10
5.38388
20
-4.50052
11
5.38762
21
-4.49677
0
LINE
8
BLACK
6
CONTINUOUS
10
5.38762
20
-4.49677
11
5.39512
21
-4.49302
0
LINE
8
BLACK
6
CONTINUOUS
10
5.45512
20
-4.56426
11
5.45887
21
-4.56801
0
LINE
8
BLACK
6
CONTINUOUS
10
5.45887
20
-4.56801
11
5.45512
21
-4.57176
0
LINE
8
BLACK
6
CONTINUOUS
10
5.45512
20
-4.57176
11
5.45137
21
-4.56801
0
LINE
8
BLACK
6
CONTINUOUS
10
5.45137
20
-4.56801
11
5.45512
21
-4.56426
0
LINE
8
BLACK
6
CONTINUOUS
10
5.45512
20
-4.56426
11
5.45512
21
-4.57176
0
LINE
8
BLACK
6
CONTINUOUS
10
5.48511
20
-4.49302
11
5.53386
21
-4.49302
0
LINE
8
BLACK
6
CONTINUOUS
10
5.53386
20
-4.49302
11
5.50761
21
-4.52301
0
LINE
8
BLACK
6
CONTINUOUS
10
5.50761
20
-4.52301
11
5.51886
21
-4.52301
0
LINE
8
BLACK
6
CONTINUOUS
10
5.51886
20
-4.52301
11
5.52636
21
-4.52676
0
LINE
8
BLACK
6
CONTINUOUS
10
5.52636
20
-4.52676
11
5.53011
21
-4.53051
0
LINE
8
BLACK
6
CONTINUOUS
10
5.53011
20
-4.53051
11
5.53386
21
-4.53801
0
LINE
8
BLACK
6
CONTINUOUS
10
5.53386
20
-4.53801
11
5.53386
21
-4.55676
0
LINE
8
BLACK
6
CONTINUOUS
10
5.53386
20
-4.55676
11
5.53011
21
-4.56426
0
LINE
8
BLACK
6
CONTINUOUS
10
5.53011
20
-4.56426
11
5.52636
21
-4.56801
0
LINE
8
BLACK
6
CONTINUOUS
10
5.52636
20
-4.56801
11
5.51886
21
-4.57176
0
LINE
8
BLACK
6
CONTINUOUS
10
5.51886
20
-4.57176
11
5.49636
21
-4.57176
0
LINE
8
BLACK
6
CONTINUOUS
10
5.49636
20
-4.57176
11
5.48886
21
-4.56801
0
LINE
8
BLACK
6
CONTINUOUS
10
5.48886
20
-4.56801
11
5.48511
21
-4.56426
0
LINE
8
BLACK
6
CONTINUOUS
10
5.5826
20
-4.49302
11
5.5901
21
-4.49302
0
LINE
8
BLACK
6
CONTINUOUS
10
5.5901
20
-4.49302
11
5.5976
21
-4.49677
0
LINE
8
BLACK
6
CONTINUOUS
10
5.5976
20
-4.49677
11
5.60135
21
-4.50052
0
LINE
8
BLACK
6
CONTINUOUS
10
5.60135
20
-4.50052
11
5.6051
21
-4.50802
0
LINE
8
BLACK
6
CONTINUOUS
10
5.6051
20
-4.50802
11
5.60885
21
-4.52301
0
LINE
8
BLACK
6
CONTINUOUS
10
5.60885
20
-4.52301
11
5.60885
21
-4.54176
0
LINE
8
BLACK
6
CONTINUOUS
10
5.60885
20
-4.54176
11
5.6051
21
-4.55676
0
LINE
8
BLACK
6
CONTINUOUS
10
5.6051
20
-4.55676
11
5.60135
21
-4.56426
0
LINE
8
BLACK
6
CONTINUOUS
10
5.60135
20
-4.56426
11
5.5976
21
-4.56801
0
LINE
8
BLACK
6
CONTINUOUS
10
5.5976
20
-4.56801
11
5.5901
21
-4.57176
0
LINE
8
BLACK
6
CONTINUOUS
10
5.5901
20
-4.57176
11
5.5826
21
-4.57176
0
LINE
8
BLACK
6
CONTINUOUS
10
5.5826
20
-4.57176
11
5.5751
21
-4.56801
0
LINE
8
BLACK
6
CONTINUOUS
10
5.5751
20
-4.56801
11
5.57135
21
-4.56426
0
LINE
8
BLACK
6
CONTINUOUS
10
5.57135
20
-4.56426
11
5.5676
21
-4.55676
0
LINE
8
BLACK
6
CONTINUOUS
10
5.5676
20
-4.55676
11
5.56385
21
-4.54176
0
LINE
8
BLACK
6
CONTINUOUS
10
5.56385
20
-4.54176
11
5.56385
21
-4.52301
0
LINE
8
BLACK
6
CONTINUOUS
10
5.56385
20
-4.52301
11
5.5676
21
-4.50802
0
LINE
8
BLACK
6
CONTINUOUS
10
5.5676
20
-4.50802
11
5.57135
21
-4.50052
0
LINE
8
BLACK
6
CONTINUOUS
10
5.57135
20
-4.50052
11
5.5751
21
-4.49677
0
LINE
8
BLACK
6
CONTINUOUS
10
5.5751
20
-4.49677
11
5.5826
21
-4.49302
0
LINE
8
BLACK
6
CONTINUOUS
10
5.65759
20
-4.49302
11
5.66509
21
-4.49302
0
LINE
8
BLACK
6
CONTINUOUS
10
5.66509
20
-4.49302
11
5.67259
21
-4.49677
0
LINE
8
BLACK
6
CONTINUOUS
10
5.67259
20
-4.49677
11
5.67634
21
-4.50052
0
LINE
8
BLACK
6
CONTINUOUS
10
5.67634
20
-4.50052
11
5.68009
21
-4.50802
0
LINE
8
BLACK
6
CONTINUOUS
10
5.68009
20
-4.50802
11
5.68384
21
-4.52301
0
LINE
8
BLACK
6
CONTINUOUS
10
5.68384
20
-4.52301
11
5.68384
21
-4.54176
0
LINE
8
BLACK
6
CONTINUOUS
10
5.68384
20
-4.54176
11
5.68009
21
-4.55676
0
LINE
8
BLACK
6
CONTINUOUS
10
5.68009
20
-4.55676
11
5.67634
21
-4.56426
0
LINE
8
BLACK
6
CONTINUOUS
10
5.67634
20
-4.56426
11
5.67259
21
-4.56801
0
LINE
8
BLACK
6
CONTINUOUS
10
5.67259
20
-4.56801
11
5.66509
21
-4.57176
0
LINE
8
BLACK
6
CONTINUOUS
10
5.66509
20
-4.57176
11
5.65759
21
-4.57176
0
LINE
8
BLACK
6
CONTINUOUS
10
5.65759
20
-4.57176
11
5.65009
21
-4.56801
0
LINE
8
BLACK
6
CONTINUOUS
10
5.65009
20
-4.56801
11
5.64634
21
-4.56426
0
LINE
8
BLACK
6
CONTINUOUS
10
5.64634
20
-4.56426
11
5.64259
21
-4.55676
0
LINE
8
BLACK
6
CONTINUOUS
10
5.64259
20
-4.55676
11
5.63884
21
-4.54176
0
LINE
8
BLACK
6
CONTINUOUS
10
5.63884
20
-4.54176
11
5.63884
21
-4.52301
0
LINE
8
BLACK
6
CONTINUOUS
10
5.63884
20
-4.52301
11
5.64259
21
-4.50802
0
LINE
8
BLACK
6
CONTINUOUS
10
5.64259
20
-4.50802
11
5.64634
21
-4.50052
0
LINE
8
BLACK
6
CONTINUOUS
10
5.64634
20
-4.50052
11
5.65009
21
-4.49677
0
LINE
8
BLACK
6
CONTINUOUS
10
5.65009
20
-4.49677
11
5.65759
21
-4.49302
0
LINE
8
BLACK
6
CONTINUOUS
10
5.71758
20
-4.57176
11
5.71758
21
-4.51926
0
LINE
8
BLACK
6
CONTINUOUS
10
5.71758
20
-4.52676
11
5.72133
21
-4.52301
0
LINE
8
BLACK
6
CONTINUOUS
10
5.72133
20
-4.52301
11
5.72883
21
-4.51926
0
LINE
8
BLACK
6
CONTINUOUS
10
5.72883
20
-4.51926
11
5.74008
21
-4.51926
0
LINE
8
BLACK
6
CONTINUOUS
10
5.74008
20
-4.51926
11
5.74758
21
-4.52301
0
LINE
8
BLACK
6
CONTINUOUS
10
5.74758
20
-4.52301
11
5.75133
21
-4.53051
0
LINE
8
BLACK
6
CONTINUOUS
10
5.75133
20
-4.53051
11
5.75133
21
-4.57176
0
LINE
8
BLACK
6
CONTINUOUS
10
5.75133
20
-4.53051
11
5.75508
21
-4.52301
0
LINE
8
BLACK
6
CONTINUOUS
10
5.75508
20
-4.52301
11
5.76258
21
-4.51926
0
LINE
8
BLACK
6
CONTINUOUS
10
5.76258
20
-4.51926
11
5.77383
21
-4.51926
0
LINE
8
BLACK
6
CONTINUOUS
10
5.77383
20
-4.51926
11
5.78133
21
-4.52301
0
LINE
8
BLACK
6
CONTINUOUS
10
5.78133
20
-4.52301
11
5.78507
21
-4.53051
0
LINE
8
BLACK
6
CONTINUOUS
10
5.78507
20
-4.53051
11
5.78507
21
-4.57176
0
LINE
8
BLACK
6
CONTINUOUS
10
5.82257
20
-4.57176
11
5.82257
21
-4.51926
0
LINE
8
BLACK
6
CONTINUOUS
10
5.82257
20
-4.52676
11
5.82632
21
-4.52301
0
LINE
8
BLACK
6
CONTINUOUS
10
5.82632
20
-4.52301
11
5.83382
21
-4.51926
0
LINE
8
BLACK
6
CONTINUOUS
10
5.83382
20
-4.51926
11
5.84507
21
-4.51926
0
LINE
8
BLACK
6
CONTINUOUS
10
5.84507
20
-4.51926
11
5.85257
21
-4.52301
0
LINE
8
BLACK
6
CONTINUOUS
10
5.85257
20
-4.52301
11
5.85632
21
-4.53051
0
LINE
8
BLACK
6
CONTINUOUS
10
5.85632
20
-4.53051
11
5.85632
21
-4.57176
0
LINE
8
BLACK
6
CONTINUOUS
10
5.85632
20
-4.53051
11
5.86007
21
-4.52301
0
LINE
8
BLACK
6
CONTINUOUS
10
5.86007
20
-4.52301
11
5.86756
21
-4.51926
0
LINE
8
BLACK
6
CONTINUOUS
10
5.86756
20
-4.51926
11
5.87881
21
-4.51926
0
LINE
8
BLACK
6
CONTINUOUS
10
5.87881
20
-4.51926
11
5.88631
21
-4.52301
0
LINE
8
BLACK
6
CONTINUOUS
10
5.88631
20
-4.52301
11
5.89006
21
-4.53051
0
LINE
8
BLACK
6
CONTINUOUS
10
5.89006
20
-4.53051
11
5.89006
21
-4.57176
0
LINE
8
BLACK
6
CONTINUOUS
10
6.04379
20
-4.48927
11
5.9763
21
-4.59051
0
LINE
8
BLACK
6
CONTINUOUS
10
6.14503
20
-4.49302
11
6.15253
21
-4.49302
0
LINE
8
BLACK
6
CONTINUOUS
10
6.15253
20
-4.49302
11
6.16003
21
-4.49677
0
LINE
8
BLACK
6
CONTINUOUS
10
6.16003
20
-4.49677
11
6.16378
21
-4.50052
0
LINE
8
BLACK
6
CONTINUOUS
10
6.16378
20
-4.50052
11
6.16753
21
-4.50802
0
LINE
8
BLACK
6
CONTINUOUS
10
6.16753
20
-4.50802
11
6.17128
21
-4.52301
0
LINE
8
BLACK
6
CONTINUOUS
10
6.17128
20
-4.52301
11
6.17128
21
-4.54176
0
LINE
8
BLACK
6
CONTINUOUS
10
6.17128
20
-4.54176
11
6.16753
21
-4.55676
0
LINE
8
BLACK
6
CONTINUOUS
10
6.16753
20
-4.55676
11
6.16378
21
-4.56426
0
LINE
8
BLACK
6
CONTINUOUS
10
6.16378
20
-4.56426
11
6.16003
21
-4.56801
0
LINE
8
BLACK
6
CONTINUOUS
10
6.16003
20
-4.56801
11
6.15253
21
-4.57176
0
LINE
8
BLACK
6
CONTINUOUS
10
6.15253
20
-4.57176
11
6.14503
21
-4.57176
0
LINE
8
BLACK
6
CONTINUOUS
10
6.14503
20
-4.57176
11
6.13753
21
-4.56801
0
LINE
8
BLACK
6
CONTINUOUS
10
6.13753
20
-4.56801
11
6.13378
21
-4.56426
0
LINE
8
BLACK
6
CONTINUOUS
10
6.13378
20
-4.56426
11
6.13003
21
-4.55676
0
LINE
8
BLACK
6
CONTINUOUS
10
6.13003
20
-4.55676
11
6.12628
21
-4.54176
0
LINE
8
BLACK
6
CONTINUOUS
10
6.12628
20
-4.54176
11
6.12628
21
-4.52301
0
LINE
8
BLACK
6
CONTINUOUS
10
6.12628
20
-4.52301
11
6.13003
21
-4.50802
0
LINE
8
BLACK
6
CONTINUOUS
10
6.13003
20
-4.50802
11
6.13378
21
-4.50052
0
LINE
8
BLACK
6
CONTINUOUS
10
6.13378
20
-4.50052
11
6.13753
21
-4.49677
0
LINE
8
BLACK
6
CONTINUOUS
10
6.13753
20
-4.49677
11
6.14503
21
-4.49302
0
LINE
8
BLACK
6
CONTINUOUS
10
6.20502
20
-4.56426
11
6.20877
21
-4.56801
0
LINE
8
BLACK
6
CONTINUOUS
10
6.20877
20
-4.56801
11
6.20502
21
-4.57176
0
LINE
8
BLACK
6
CONTINUOUS
10
6.20502
20
-4.57176
11
6.20127
21
-4.56801
0
LINE
8
BLACK
6
CONTINUOUS
10
6.20127
20
-4.56801
11
6.20502
21
-4.56426
0
LINE
8
BLACK
6
CONTINUOUS
10
6.20502
20
-4.56426
11
6.20502
21
-4.57176
0
LINE
8
BLACK
6
CONTINUOUS
10
6.25752
20
-4.49302
11
6.26501
21
-4.49302
0
LINE
8
BLACK
6
CONTINUOUS
10
6.26501
20
-4.49302
11
6.27251
21
-4.49677
0
LINE
8
BLACK
6
CONTINUOUS
10
6.27251
20
-4.49677
11
6.27626
21
-4.50052
0
LINE
8
BLACK
6
CONTINUOUS
10
6.27626
20
-4.50052
11
6.28001
21
-4.50802
0
LINE
8
BLACK
6
CONTINUOUS
10
6.28001
20
-4.50802
11
6.28376
21
-4.52301
0
LINE
8
BLACK
6
CONTINUOUS
10
6.28376
20
-4.52301
11
6.28376
21
-4.54176
0
LINE
8
BLACK
6
CONTINUOUS
10
6.28376
20
-4.54176
11
6.28001
21
-4.55676
0
LINE
8
BLACK
6
CONTINUOUS
10
6.28001
20
-4.55676
11
6.27626
21
-4.56426
0
LINE
8
BLACK
6
CONTINUOUS
10
6.27626
20
-4.56426
11
6.27251
21
-4.56801
0
LINE
8
BLACK
6
CONTINUOUS
10
6.27251
20
-4.56801
11
6.26501
21
-4.57176
0
LINE
8
BLACK
6
CONTINUOUS
10
6.26501
20
-4.57176
11
6.25752
21
-4.57176
0
LINE
8
BLACK
6
CONTINUOUS
10
6.25752
20
-4.57176
11
6.25002
21
-4.56801
0
LINE
8
BLACK
6
CONTINUOUS
10
6.25002
20
-4.56801
11
6.24627
21
-4.56426
0
LINE
8
BLACK
6
CONTINUOUS
10
6.24627
20
-4.56426
11
6.24252
21
-4.55676
0
LINE
8
BLACK
6
CONTINUOUS
10
6.24252
20
-4.55676
11
6.23877
21
-4.54176
0
LINE
8
BLACK
6
CONTINUOUS
10
6.23877
20
-4.54176
11
6.23877
21
-4.52301
0
LINE
8
BLACK
6
CONTINUOUS
10
6.23877
20
-4.52301
11
6.24252
21
-4.50802
0
LINE
8
BLACK
6
CONTINUOUS
10
6.24252
20
-4.50802
11
6.24627
21
-4.50052
0
LINE
8
BLACK
6
CONTINUOUS
10
6.24627
20
-4.50052
11
6.25002
21
-4.49677
0
LINE
8
BLACK
6
CONTINUOUS
10
6.25002
20
-4.49677
11
6.25752
21
-4.49302
0
LINE
8
BLACK
6
CONTINUOUS
10
6.35875
20
-4.57176
11
6.31376
21
-4.57176
0
LINE
8
BLACK
6
CONTINUOUS
10
6.33626
20
-4.57176
11
6.33626
21
-4.49302
0
LINE
8
BLACK
6
CONTINUOUS
10
6.33626
20
-4.49302
11
6.32876
21
-4.50427
0
LINE
8
BLACK
6
CONTINUOUS
10
6.32876
20
-4.50427
11
6.32126
21
-4.51177
0
LINE
8
BLACK
6
CONTINUOUS
10
6.32126
20
-4.51177
11
6.31376
21
-4.51552
0
LINE
8
BLACK
6
CONTINUOUS
10
6.43374
20
-4.57176
11
6.38875
21
-4.57176
0
LINE
8
BLACK
6
CONTINUOUS
10
6.41125
20
-4.57176
11
6.41125
21
-4.49302
0
LINE
8
BLACK
6
CONTINUOUS
10
6.41125
20
-4.49302
11
6.40375
21
-4.50427
0
LINE
8
BLACK
6
CONTINUOUS
10
6.40375
20
-4.50427
11
6.39625
21
-4.51177
0
LINE
8
BLACK
6
CONTINUOUS
10
6.39625
20
-4.51177
11
6.38875
21
-4.51552
0
LINE
8
BLACK
6
CONTINUOUS
10
6.47874
20
-4.52676
11
6.47124
21
-4.52301
0
LINE
8
BLACK
6
CONTINUOUS
10
6.47124
20
-4.52301
11
6.46749
21
-4.51926
0
LINE
8
BLACK
6
CONTINUOUS
10
6.46749
20
-4.51926
11
6.46374
21
-4.51177
0
LINE
8
BLACK
6
CONTINUOUS
10
6.46374
20
-4.51177
11
6.46374
21
-4.50802
0
LINE
8
BLACK
6
CONTINUOUS
10
6.46374
20
-4.50802
11
6.46749
21
-4.50052
0
LINE
8
BLACK
6
CONTINUOUS
10
6.46749
20
-4.50052
11
6.47124
21
-4.49677
0
LINE
8
BLACK
6
CONTINUOUS
10
6.47124
20
-4.49677
11
6.47874
21
-4.49302
0
LINE
8
BLACK
6
CONTINUOUS
10
6.47874
20
-4.49302
11
6.49374
21
-4.49302
0
LINE
8
BLACK
6
CONTINUOUS
10
6.49374
20
-4.49302
11
6.50124
21
-4.49677
0
LINE
8
BLACK
6
CONTINUOUS
10
6.50124
20
-4.49677
11
6.50498
21
-4.50052
0
LINE
8
BLACK
6
CONTINUOUS
10
6.50498
20
-4.50052
11
6.50873
21
-4.50802
0
LINE
8
BLACK
6
CONTINUOUS
10
6.50873
20
-4.50802
11
6.50873
21
-4.51177
0
LINE
8
BLACK
6
CONTINUOUS
10
6.50873
20
-4.51177
11
6.50498
21
-4.51926
0
LINE
8
BLACK
6
CONTINUOUS
10
6.50498
20
-4.51926
11
6.50124
21
-4.52301
0
LINE
8
BLACK
6
CONTINUOUS
10
6.50124
20
-4.52301
11
6.49374
21
-4.52676
0
LINE
8
BLACK
6
CONTINUOUS
10
6.49374
20
-4.52676
11
6.47874
21
-4.52676
0
LINE
8
BLACK
6
CONTINUOUS
10
6.47874
20
-4.52676
11
6.47124
21
-4.53051
0
LINE
8
BLACK
6
CONTINUOUS
10
6.47124
20
-4.53051
11
6.46749
21
-4.53426
0
LINE
8
BLACK
6
CONTINUOUS
10
6.46749
20
-4.53426
11
6.46374
21
-4.54176
0
LINE
8
BLACK
6
CONTINUOUS
10
6.46374
20
-4.54176
11
6.46374
21
-4.55676
0
LINE
8
BLACK
6
CONTINUOUS
10
6.46374
20
-4.55676
11
6.46749
21
-4.56426
0
LINE
8
BLACK
6
CONTINUOUS
10
6.46749
20
-4.56426
11
6.47124
21
-4.56801
0
LINE
8
BLACK
6
CONTINUOUS
10
6.47124
20
-4.56801
11
6.47874
21
-4.57176
0
LINE
8
BLACK
6
CONTINUOUS
10
6.47874
20
-4.57176
11
6.49374
21
-4.57176
0
LINE
8
BLACK
6
CONTINUOUS
10
6.49374
20
-4.57176
11
6.50124
21
-4.56801
0
LINE
8
BLACK
6
CONTINUOUS
10
6.50124
20
-4.56801
11
6.50498
21
-4.56426
0
LINE
8
BLACK
6
CONTINUOUS
10
6.50498
20
-4.56426
11
6.50873
21
-4.55676
0
LINE
8
BLACK
6
CONTINUOUS
10
6.50873
20
-4.55676
11
6.50873
21
-4.54176
0
LINE
8
BLACK
6
CONTINUOUS
10
6.50873
20
-4.54176
11
6.50498
21
-4.53426
0
LINE
8
BLACK
6
CONTINUOUS
10
6.50498
20
-4.53426
11
6.50124
21
-4.53051
0
LINE
8
BLACK
6
CONTINUOUS
10
6.50124
20
-4.53051
11
6.49374
21
-4.52676
0
LINE
8
BLACK
6
CONTINUOUS
10
6.53873
20
-4.49302
11
6.53873
21
-4.50802
0
LINE
8
BLACK
6
CONTINUOUS
10
6.56873
20
-4.49302
11
6.56873
21
-4.50802
0
LINE
8
BLACK
6
CONTINUOUS
10
6.68496
20
-4.60175
11
6.68121
21
-4.598
0
LINE
8
BLACK
6
CONTINUOUS
10
6.68121
20
-4.598
11
6.67371
21
-4.58676
0
LINE
8
BLACK
6
CONTINUOUS
10
6.67371
20
-4.58676
11
6.66996
21
-4.57926
0
LINE
8
BLACK
6
CONTINUOUS
10
6.66996
20
-4.57926
11
6.66621
21
-4.56801
0
LINE
8
BLACK
6
CONTINUOUS
10
6.66621
20
-4.56801
11
6.66247
21
-4.54926
0
LINE
8
BLACK
6
CONTINUOUS
10
6.66247
20
-4.54926
11
6.66247
21
-4.53426
0
LINE
8
BLACK
6
CONTINUOUS
10
6.66247
20
-4.53426
11
6.66621
21
-4.51552
0
LINE
8
BLACK
6
CONTINUOUS
10
6.66621
20
-4.51552
11
6.66996
21
-4.50427
0
LINE
8
BLACK
6
CONTINUOUS
10
6.66996
20
-4.50427
11
6.67371
21
-4.49677
0
LINE
8
BLACK
6
CONTINUOUS
10
6.67371
20
-4.49677
11
6.68121
21
-4.48552
0
LINE
8
BLACK
6
CONTINUOUS
10
6.68121
20
-4.48552
11
6.68496
21
-4.48177
0
LINE
8
BLACK
6
CONTINUOUS
10
6.71121
20
-4.50052
11
6.71496
21
-4.49677
0
LINE
8
BLACK
6
CONTINUOUS
10
6.71496
20
-4.49677
11
6.72246
21
-4.49302
0
LINE
8
BLACK
6
CONTINUOUS
10
6.72246
20
-4.49302
11
6.74121
21
-4.49302
0
LINE
8
BLACK
6
CONTINUOUS
10
6.74121
20
-4.49302
11
6.7487
21
-4.49677
0
LINE
8
BLACK
6
CONTINUOUS
10
6.7487
20
-4.49677
11
6.75245
21
-4.50052
0
LINE
8
BLACK
6
CONTINUOUS
10
6.75245
20
-4.50052
11
6.7562
21
-4.50802
0
LINE
8
BLACK
6
CONTINUOUS
10
6.7562
20
-4.50802
11
6.7562
21
-4.51552
0
LINE
8
BLACK
6
CONTINUOUS
10
6.7562
20
-4.51552
11
6.75245
21
-4.52676
0
LINE
8
BLACK
6
CONTINUOUS
10
6.75245
20
-4.52676
11
6.70746
21
-4.57176
0
LINE
8
BLACK
6
CONTINUOUS
10
6.70746
20
-4.57176
11
6.7562
21
-4.57176
0
LINE
8
BLACK
6
CONTINUOUS
10
6.80495
20
-4.49302
11
6.81245
21
-4.49302
0
LINE
8
BLACK
6
CONTINUOUS
10
6.81245
20
-4.49302
11
6.81995
21
-4.49677
0
LINE
8
BLACK
6
CONTINUOUS
10
6.81995
20
-4.49677
11
6.8237
21
-4.50052
0
LINE
8
BLACK
6
CONTINUOUS
10
6.8237
20
-4.50052
11
6.82744
21
-4.50802
0
LINE
8
BLACK
6
CONTINUOUS
10
6.82744
20
-4.50802
11
6.83119
21
-4.52301
0
LINE
8
BLACK
6
CONTINUOUS
10
6.83119
20
-4.52301
11
6.83119
21
-4.54176
0
LINE
8
BLACK
6
CONTINUOUS
10
6.83119
20
-4.54176
11
6.82744
21
-4.55676
0
LINE
8
BLACK
6
CONTINUOUS
10
6.82744
20
-4.55676
11
6.8237
21
-4.56426
0
LINE
8
BLACK
6
CONTINUOUS
10
6.8237
20
-4.56426
11
6.81995
21
-4.56801
0
LINE
8
BLACK
6
CONTINUOUS
10
6.81995
20
-4.56801
11
6.81245
21
-4.57176
0
LINE
8
BLACK
6
CONTINUOUS
10
6.81245
20
-4.57176
11
6.80495
21
-4.57176
0
LINE
8
BLACK
6
CONTINUOUS
10
6.80495
20
-4.57176
11
6.79745
21
-4.56801
0
LINE
8
BLACK
6
CONTINUOUS
10
6.79745
20
-4.56801
11
6.7937
21
-4.56426
0
LINE
8
BLACK
6
CONTINUOUS
10
6.7937
20
-4.56426
11
6.78995
21
-4.55676
0
LINE
8
BLACK
6
CONTINUOUS
10
6.78995
20
-4.55676
11
6.7862
21
-4.54176
0
LINE
8
BLACK
6
CONTINUOUS
10
6.7862
20
-4.54176
11
6.7862
21
-4.52301
0
LINE
8
BLACK
6
CONTINUOUS
10
6.7862
20
-4.52301
11
6.78995
21
-4.50802
0
LINE
8
BLACK
6
CONTINUOUS
10
6.78995
20
-4.50802
11
6.7937
21
-4.50052
0
LINE
8
BLACK
6
CONTINUOUS
10
6.7937
20
-4.50052
11
6.79745
21
-4.49677
0
LINE
8
BLACK
6
CONTINUOUS
10
6.79745
20
-4.49677
11
6.80495
21
-4.49302
0
LINE
8
BLACK
6
CONTINUOUS
10
6.92493
20
-4.57176
11
6.92493
21
-4.49302
0
LINE
8
BLACK
6
CONTINUOUS
10
6.95868
20
-4.57176
11
6.95868
21
-4.53051
0
LINE
8
BLACK
6
CONTINUOUS
10
6.95868
20
-4.53051
11
6.95493
21
-4.52301
0
LINE
8
BLACK
6
CONTINUOUS
10
6.95493
20
-4.52301
11
6.94743
21
-4.51926
0
LINE
8
BLACK
6
CONTINUOUS
10
6.94743
20
-4.51926
11
6.93618
21
-4.51926
0
LINE
8
BLACK
6
CONTINUOUS
10
6.93618
20
-4.51926
11
6.92868
21
-4.52301
0
LINE
8
BLACK
6
CONTINUOUS
10
6.92868
20
-4.52301
11
6.92493
21
-4.52676
0
LINE
8
BLACK
6
CONTINUOUS
10
7.00742
20
-4.57176
11
6.99992
21
-4.56801
0
LINE
8
BLACK
6
CONTINUOUS
10
6.99992
20
-4.56801
11
6.99617
21
-4.56426
0
LINE
8
BLACK
6
CONTINUOUS
10
6.99617
20
-4.56426
11
6.99242
21
-4.55676
0
LINE
8
BLACK
6
CONTINUOUS
10
6.99242
20
-4.55676
11
6.99242
21
-4.53426
0
LINE
8
BLACK
6
CONTINUOUS
10
6.99242
20
-4.53426
11
6.99617
21
-4.52676
0
LINE
8
BLACK
6
CONTINUOUS
10
6.99617
20
-4.52676
11
6.99992
21
-4.52301
0
LINE
8
BLACK
6
CONTINUOUS
10
6.99992
20
-4.52301
11
7.00742
21
-4.51926
0
LINE
8
BLACK
6
CONTINUOUS
10
7.00742
20
-4.51926
11
7.01867
21
-4.51926
0
LINE
8
BLACK
6
CONTINUOUS
10
7.01867
20
-4.51926
11
7.02617
21
-4.52301
0
LINE
8
BLACK
6
CONTINUOUS
10
7.02617
20
-4.52301
11
7.02992
21
-4.52676
0
LINE
8
BLACK
6
CONTINUOUS
10
7.02992
20
-4.52676
11
7.03367
21
-4.53426
0
LINE
8
BLACK
6
CONTINUOUS
10
7.03367
20
-4.53426
11
7.03367
21
-4.55676
0
LINE
8
BLACK
6
CONTINUOUS
10
7.03367
20
-4.55676
11
7.02992
21
-4.56426
0
LINE
8
BLACK
6
CONTINUOUS
10
7.02992
20
-4.56426
11
7.02617
21
-4.56801
0
LINE
8
BLACK
6
CONTINUOUS
10
7.02617
20
-4.56801
11
7.01867
21
-4.57176
0
LINE
8
BLACK
6
CONTINUOUS
10
7.01867
20
-4.57176
11
7.00742
21
-4.57176
0
LINE
8
BLACK
6
CONTINUOUS
10
7.07866
20
-4.57176
11
7.07116
21
-4.56801
0
LINE
8
BLACK
6
CONTINUOUS
10
7.07116
20
-4.56801
11
7.06741
21
-4.56051
0
LINE
8
BLACK
6
CONTINUOUS
10
7.06741
20
-4.56051
11
7.06741
21
-4.49302
0
LINE
8
BLACK
6
CONTINUOUS
10
7.13866
20
-4.56801
11
7.13116
21
-4.57176
0
LINE
8
BLACK
6
CONTINUOUS
10
7.13116
20
-4.57176
11
7.11616
21
-4.57176
0
LINE
8
BLACK
6
CONTINUOUS
10
7.11616
20
-4.57176
11
7.10866
21
-4.56801
0
LINE
8
BLACK
6
CONTINUOUS
10
7.10866
20
-4.56801
11
7.10491
21
-4.56051
0
LINE
8
BLACK
6
CONTINUOUS
10
7.10491
20
-4.56051
11
7.10491
21
-4.53051
0
LINE
8
BLACK
6
CONTINUOUS
10
7.10491
20
-4.53051
11
7.10866
21
-4.52301
0
LINE
8
BLACK
6
CONTINUOUS
10
7.10866
20
-4.52301
11
7.11616
21
-4.51926
0
LINE
8
BLACK
6
CONTINUOUS
10
7.11616
20
-4.51926
11
7.13116
21
-4.51926
0
LINE
8
BLACK
6
CONTINUOUS
10
7.13116
20
-4.51926
11
7.13866
21
-4.52301
0
LINE
8
BLACK
6
CONTINUOUS
10
7.13866
20
-4.52301
11
7.14241
21
-4.53051
0
LINE
8
BLACK
6
CONTINUOUS
10
7.14241
20
-4.53051
11
7.14241
21
-4.53801
0
LINE
8
BLACK
6
CONTINUOUS
10
7.14241
20
-4.53801
11
7.10491
21
-4.54551
0
LINE
8
BLACK
6
CONTINUOUS
10
7.1724
20
-4.56801
11
7.1799
21
-4.57176
0
LINE
8
BLACK
6
CONTINUOUS
10
7.1799
20
-4.57176
11
7.1949
21
-4.57176
0
LINE
8
BLACK
6
CONTINUOUS
10
7.1949
20
-4.57176
11
7.2024
21
-4.56801
0
LINE
8
BLACK
6
CONTINUOUS
10
7.2024
20
-4.56801
11
7.20615
21
-4.56051
0
LINE
8
BLACK
6
CONTINUOUS
10
7.20615
20
-4.56051
11
7.20615
21
-4.55676
0
LINE
8
BLACK
6
CONTINUOUS
10
7.20615
20
-4.55676
11
7.2024
21
-4.54926
0
LINE
8
BLACK
6
CONTINUOUS
10
7.2024
20
-4.54926
11
7.1949
21
-4.54551
0
LINE
8
BLACK
6
CONTINUOUS
10
7.1949
20
-4.54551
11
7.18365
21
-4.54551
0
LINE
8
BLACK
6
CONTINUOUS
10
7.18365
20
-4.54551
11
7.17615
21
-4.54176
0
LINE
8
BLACK
6
CONTINUOUS
10
7.17615
20
-4.54176
11
7.1724
21
-4.53426
0
LINE
8
BLACK
6
CONTINUOUS
10
7.1724
20
-4.53426
11
7.1724
21
-4.53051
0
LINE
8
BLACK
6
CONTINUOUS
10
7.1724
20
-4.53051
11
7.17615
21
-4.52301
0
LINE
8
BLACK
6
CONTINUOUS
10
7.17615
20
-4.52301
11
7.18365
21
-4.51926
0
LINE
8
BLACK
6
CONTINUOUS
10
7.18365
20
-4.51926
11
7.1949
21
-4.51926
0
LINE
8
BLACK
6
CONTINUOUS
10
7.1949
20
-4.51926
11
7.2024
21
-4.52301
0
LINE
8
BLACK
6
CONTINUOUS
10
7.23239
20
-4.60175
11
7.23614
21
-4.598
0
LINE
8
BLACK
6
CONTINUOUS
10
7.23614
20
-4.598
11
7.24364
21
-4.58676
0
LINE
8
BLACK
6
CONTINUOUS
10
7.24364
20
-4.58676
11
7.24739
21
-4.57926
0
LINE
8
BLACK
6
CONTINUOUS
10
7.24739
20
-4.57926
11
7.25114
21
-4.56801
0
LINE
8
BLACK
6
CONTINUOUS
10
7.25114
20
-4.56801
11
7.25489
21
-4.54926
0
LINE
8
BLACK
6
CONTINUOUS
10
7.25489
20
-4.54926
11
7.25489
21
-4.53426
0
LINE
8
BLACK
6
CONTINUOUS
10
7.25489
20
-4.53426
11
7.25114
21
-4.51552
0
LINE
8
BLACK
6
CONTINUOUS
10
7.25114
20
-4.51552
11
7.24739
21
-4.50427
0
LINE
8
BLACK
6
CONTINUOUS
10
7.24739
20
-4.50427
11
7.24364
21
-4.49677
0
LINE
8
BLACK
6
CONTINUOUS
10
7.24364
20
-4.49677
11
7.23614
21
-4.48552
0
LINE
8
BLACK
6
CONTINUOUS
10
7.23614
20
-4.48552
11
7.23239
21
-4.48177
0
CIRCLE
8
BLACK
10
5.25902
20
-4.64007
40
0.019685
0
LINE
8
BLACK
6
CONTINUOUS
10
5.42137
20
-4.6757
11
5.37638
21
-4.6757
0
LINE
8
BLACK
6
CONTINUOUS
10
5.39887
20
-4.6757
11
5.39887
21
-4.59695
0
LINE
8
BLACK
6
CONTINUOUS
10
5.39887
20
-4.59695
11
5.39137
21
-4.6082
0
LINE
8
BLACK
6
CONTINUOUS
10
5.39137
20
-4.6082
11
5.38388
21
-4.6157
0
LINE
8
BLACK
6
CONTINUOUS
10
5.38388
20
-4.6157
11
5.37638
21
-4.61945
0
LINE
8
BLACK
6
CONTINUOUS
10
5.45512
20
-4.6682
11
5.45887
21
-4.67195
0
LINE
8
BLACK
6
CONTINUOUS
10
5.45887
20
-4.67195
11
5.45512
21
-4.6757
0
LINE
8
BLACK
6
CONTINUOUS
10
5.45512
20
-4.6757
11
5.45137
21
-4.67195
0
LINE
8
BLACK
6
CONTINUOUS
10
5.45137
20
-4.67195
11
5.45512
21
-4.6682
0
LINE
8
BLACK
6
CONTINUOUS
10
5.45512
20
-4.6682
11
5.45512
21
-4.6757
0
LINE
8
BLACK
6
CONTINUOUS
10
5.50761
20
-4.59695
11
5.51511
21
-4.59695
0
LINE
8
BLACK
6
CONTINUOUS
10
5.51511
20
-4.59695
11
5.52261
21
-4.6007
0
LINE
8
BLACK
6
CONTINUOUS
10
5.52261
20
-4.6007
11
5.52636
21
-4.60445
0
LINE
8
BLACK
6
CONTINUOUS
10
5.52636
20
-4.60445
11
5.53011
21
-4.61195
0
LINE
8
BLACK
6
CONTINUOUS
10
5.53011
20
-4.61195
11
5.53386
21
-4.62695
0
LINE
8
BLACK
6
CONTINUOUS
10
5.53386
20
-4.62695
11
5.53386
21
-4.6457
0
LINE
8
BLACK
6
CONTINUOUS
10
5.53386
20
-4.6457
11
5.53011
21
-4.6607
0
LINE
8
BLACK
6
CONTINUOUS
10
5.53011
20
-4.6607
11
5.52636
21
-4.6682
0
LINE
8
BLACK
6
CONTINUOUS
10
5.52636
20
-4.6682
11
5.52261
21
-4.67195
0
LINE
8
BLACK
6
CONTINUOUS
10
5.52261
20
-4.67195
11
5.51511
21
-4.6757
0
LINE
8
BLACK
6
CONTINUOUS
10
5.51511
20
-4.6757
11
5.50761
21
-4.6757
0
LINE
8
BLACK
6
CONTINUOUS
10
5.50761
20
-4.6757
11
5.50011
21
-4.67195
0
LINE
8
BLACK
6
CONTINUOUS
10
5.50011
20
-4.67195
11
5.49636
21
-4.6682
0
LINE
8
BLACK
6
CONTINUOUS
10
5.49636
20
-4.6682
11
5.49261
21
-4.6607
0
LINE
8
BLACK
6
CONTINUOUS
10
5.49261
20
-4.6607
11
5.48886
21
-4.6457
0
LINE
8
BLACK
6
CONTINUOUS
10
5.48886
20
-4.6457
11
5.48886
21
-4.62695
0
LINE
8
BLACK
6
CONTINUOUS
10
5.48886
20
-4.62695
11
5.49261
21
-4.61195
0
LINE
8
BLACK
6
CONTINUOUS
10
5.49261
20
-4.61195
11
5.49636
21
-4.60445
0
LINE
8
BLACK
6
CONTINUOUS
10
5.49636
20
-4.60445
11
5.50011
21
-4.6007
0
LINE
8
BLACK
6
CONTINUOUS
10
5.50011
20
-4.6007
11
5.50761
21
-4.59695
0
LINE
8
BLACK
6
CONTINUOUS
10
5.5826
20
-4.59695
11
5.5901
21
-4.59695
0
LINE
8
BLACK
6
CONTINUOUS
10
5.5901
20
-4.59695
11
5.5976
21
-4.6007
0
LINE
8
BLACK
6
CONTINUOUS
10
5.5976
20
-4.6007
11
5.60135
21
-4.60445
0
LINE
8
BLACK
6
CONTINUOUS
10
5.60135
20
-4.60445
11
5.6051
21
-4.61195
0
LINE
8
BLACK
6
CONTINUOUS
10
5.6051
20
-4.61195
11
5.60885
21
-4.62695
0
LINE
8
BLACK
6
CONTINUOUS
10
5.60885
20
-4.62695
11
5.60885
21
-4.6457
0
LINE
8
BLACK
6
CONTINUOUS
10
5.60885
20
-4.6457
11
5.6051
21
-4.6607
0
LINE
8
BLACK
6
CONTINUOUS
10
5.6051
20
-4.6607
11
5.60135
21
-4.6682
0
LINE
8
BLACK
6
CONTINUOUS
10
5.60135
20
-4.6682
11
5.5976
21
-4.67195
0
LINE
8
BLACK
6
CONTINUOUS
10
5.5976
20
-4.67195
11
5.5901
21
-4.6757
0
LINE
8
BLACK
6
CONTINUOUS
10
5.5901
20
-4.6757
11
5.5826
21
-4.6757
0
LINE
8
BLACK
6
CONTINUOUS
10
5.5826
20
-4.6757
11
5.5751
21
-4.67195
0
LINE
8
BLACK
6
CONTINUOUS
10
5.5751
20
-4.67195
11
5.57135
21
-4.6682
0
LINE
8
BLACK
6
CONTINUOUS
10
5.57135
20
-4.6682
11
5.5676
21
-4.6607
0
LINE
8
BLACK
6
CONTINUOUS
10
5.5676
20
-4.6607
11
5.56385
21
-4.6457
0
LINE
8
BLACK
6
CONTINUOUS
10
5.56385
20
-4.6457
11
5.56385
21
-4.62695
0
LINE
8
BLACK
6
CONTINUOUS
10
5.56385
20
-4.62695
11
5.5676
21
-4.61195
0
LINE
8
BLACK
6
CONTINUOUS
10
5.5676
20
-4.61195
11
5.57135
21
-4.60445
0
LINE
8
BLACK
6
CONTINUOUS
10
5.57135
20
-4.60445
11
5.5751
21
-4.6007
0
LINE
8
BLACK
6
CONTINUOUS
10
5.5751
20
-4.6007
11
5.5826
21
-4.59695
0
LINE
8
BLACK
6
CONTINUOUS
10
5.65759
20
-4.59695
11
5.66509
21
-4.59695
0
LINE
8
BLACK
6
CONTINUOUS
10
5.66509
20
-4.59695
11
5.67259
21
-4.6007
0
LINE
8
BLACK
6
CONTINUOUS
10
5.67259
20
-4.6007
11
5.67634
21
-4.60445
0
LINE
8
BLACK
6
CONTINUOUS
10
5.67634
20
-4.60445
11
5.68009
21
-4.61195
0
LINE
8
BLACK
6
CONTINUOUS
10
5.68009
20
-4.61195
11
5.68384
21
-4.62695
0
LINE
8
BLACK
6
CONTINUOUS
10
5.68384
20
-4.62695
11
5.68384
21
-4.6457
0
LINE
8
BLACK
6
CONTINUOUS
10
5.68384
20
-4.6457
11
5.68009
21
-4.6607
0
LINE
8
BLACK
6
CONTINUOUS
10
5.68009
20
-4.6607
11
5.67634
21
-4.6682
0
LINE
8
BLACK
6
CONTINUOUS
10
5.67634
20
-4.6682
11
5.67259
21
-4.67195
0
LINE
8
BLACK
6
CONTINUOUS
10
5.67259
20
-4.67195
11
5.66509
21
-4.6757
0
LINE
8
BLACK
6
CONTINUOUS
10
5.66509
20
-4.6757
11
5.65759
21
-4.6757
0
LINE
8
BLACK
6
CONTINUOUS
10
5.65759
20
-4.6757
11
5.65009
21
-4.67195
0
LINE
8
BLACK
6
CONTINUOUS
10
5.65009
20
-4.67195
11
5.64634
21
-4.6682
0
LINE
8
BLACK
6
CONTINUOUS
10
5.64634
20
-4.6682
11
5.64259
21
-4.6607
0
LINE
8
BLACK
6
CONTINUOUS
10
5.64259
20
-4.6607
11
5.63884
21
-4.6457
0
LINE
8
BLACK
6
CONTINUOUS
10
5.63884
20
-4.6457
11
5.63884
21
-4.62695
0
LINE
8
BLACK
6
CONTINUOUS
10
5.63884
20
-4.62695
11
5.64259
21
-4.61195
0
LINE
8
BLACK
6
CONTINUOUS
10
5.64259
20
-4.61195
11
5.64634
21
-4.60445
0
LINE
8
BLACK
6
CONTINUOUS
10
5.64634
20
-4.60445
11
5.65009
21
-4.6007
0
LINE
8
BLACK
6
CONTINUOUS
10
5.65009
20
-4.6007
11
5.65759
21
-4.59695
0
LINE
8
BLACK
6
CONTINUOUS
10
5.71758
20
-4.6757
11
5.71758
21
-4.6232
0
LINE
8
BLACK
6
CONTINUOUS
10
5.71758
20
-4.6307
11
5.72133
21
-4.62695
0
LINE
8
BLACK
6
CONTINUOUS
10
5.72133
20
-4.62695
11
5.72883
21
-4.6232
0
LINE
8
BLACK
6
CONTINUOUS
10
5.72883
20
-4.6232
11
5.74008
21
-4.6232
0
LINE
8
BLACK
6
CONTINUOUS
10
5.74008
20
-4.6232
11
5.74758
21
-4.62695
0
LINE
8
BLACK
6
CONTINUOUS
10
5.74758
20
-4.62695
11
5.75133
21
-4.63445
0
LINE
8
BLACK
6
CONTINUOUS
10
5.75133
20
-4.63445
11
5.75133
21
-4.6757
0
LINE
8
BLACK
6
CONTINUOUS
10
5.75133
20
-4.63445
11
5.75508
21
-4.62695
0
LINE
8
BLACK
6
CONTINUOUS
10
5.75508
20
-4.62695
11
5.76258
21
-4.6232
0
LINE
8
BLACK
6
CONTINUOUS
10
5.76258
20
-4.6232
11
5.77383
21
-4.6232
0
LINE
8
BLACK
6
CONTINUOUS
10
5.77383
20
-4.6232
11
5.78133
21
-4.62695
0
LINE
8
BLACK
6
CONTINUOUS
10
5.78133
20
-4.62695
11
5.78507
21
-4.63445
0
LINE
8
BLACK
6
CONTINUOUS
10
5.78507
20
-4.63445
11
5.78507
21
-4.6757
0
LINE
8
BLACK
6
CONTINUOUS
10
5.82257
20
-4.6757
11
5.82257
21
-4.6232
0
LINE
8
BLACK
6
CONTINUOUS
10
5.82257
20
-4.6307
11
5.82632
21
-4.62695
0
LINE
8
BLACK
6
CONTINUOUS
10
5.82632
20
-4.62695
11
5.83382
21
-4.6232
0
LINE
8
BLACK
6
CONTINUOUS
10
5.83382
20
-4.6232
11
5.84507
21
-4.6232
0
LINE
8
BLACK
6
CONTINUOUS
10
5.84507
20
-4.6232
11
5.85257
21
-4.62695
0
LINE
8
BLACK
6
CONTINUOUS
10
5.85257
20
-4.62695
11
5.85632
21
-4.63445
0
LINE
8
BLACK
6
CONTINUOUS
10
5.85632
20
-4.63445
11
5.85632
21
-4.6757
0
LINE
8
BLACK
6
CONTINUOUS
10
5.85632
20
-4.63445
11
5.86007
21
-4.62695
0
LINE
8
BLACK
6
CONTINUOUS
10
5.86007
20
-4.62695
11
5.86756
21
-4.6232
0
LINE
8
BLACK
6
CONTINUOUS
10
5.86756
20
-4.6232
11
5.87881
21
-4.6232
0
LINE
8
BLACK
6
CONTINUOUS
10
5.87881
20
-4.6232
11
5.88631
21
-4.62695
0
LINE
8
BLACK
6
CONTINUOUS
10
5.88631
20
-4.62695
11
5.89006
21
-4.63445
0
LINE
8
BLACK
6
CONTINUOUS
10
5.89006
20
-4.63445
11
5.89006
21
-4.6757
0
LINE
8
BLACK
6
CONTINUOUS
10
6.04379
20
-4.59321
11
5.9763
21
-4.69444
0
LINE
8
BLACK
6
CONTINUOUS
10
6.14503
20
-4.59695
11
6.15253
21
-4.59695
0
LINE
8
BLACK
6
CONTINUOUS
10
6.15253
20
-4.59695
11
6.16003
21
-4.6007
0
LINE
8
BLACK
6
CONTINUOUS
10
6.16003
20
-4.6007
11
6.16378
21
-4.60445
0
LINE
8
BLACK
6
CONTINUOUS
10
6.16378
20
-4.60445
11
6.16753
21
-4.61195
0
LINE
8
BLACK
6
CONTINUOUS
10
6.16753
20
-4.61195
11
6.17128
21
-4.62695
0
LINE
8
BLACK
6
CONTINUOUS
10
6.17128
20
-4.62695
11
6.17128
21
-4.6457
0
LINE
8
BLACK
6
CONTINUOUS
10
6.17128
20
-4.6457
11
6.16753
21
-4.6607
0
LINE
8
BLACK
6
CONTINUOUS
10
6.16753
20
-4.6607
11
6.16378
21
-4.6682
0
LINE
8
BLACK
6
CONTINUOUS
10
6.16378
20
-4.6682
11
6.16003
21
-4.67195
0
LINE
8
BLACK
6
CONTINUOUS
10
6.16003
20
-4.67195
11
6.15253
21
-4.6757
0
LINE
8
BLACK
6
CONTINUOUS
10
6.15253
20
-4.6757
11
6.14503
21
-4.6757
0
LINE
8
BLACK
6
CONTINUOUS
10
6.14503
20
-4.6757
11
6.13753
21
-4.67195
0
LINE
8
BLACK
6
CONTINUOUS
10
6.13753
20
-4.67195
11
6.13378
21
-4.6682
0
LINE
8
BLACK
6
CONTINUOUS
10
6.13378
20
-4.6682
11
6.13003
21
-4.6607
0
LINE
8
BLACK
6
CONTINUOUS
10
6.13003
20
-4.6607
11
6.12628
21
-4.6457
0
LINE
8
BLACK
6
CONTINUOUS
10
6.12628
20
-4.6457
11
6.12628
21
-4.62695
0
LINE
8
BLACK
6
CONTINUOUS
10
6.12628
20
-4.62695
11
6.13003
21
-4.61195
0
LINE
8
BLACK
6
CONTINUOUS
10
6.13003
20
-4.61195
11
6.13378
21
-4.60445
0
LINE
8
BLACK
6
CONTINUOUS
10
6.13378
20
-4.60445
11
6.13753
21
-4.6007
0
LINE
8
BLACK
6
CONTINUOUS
10
6.13753
20
-4.6007
11
6.14503
21
-4.59695
0
LINE
8
BLACK
6
CONTINUOUS
10
6.20502
20
-4.6682
11
6.20877
21
-4.67195
0
LINE
8
BLACK
6
CONTINUOUS
10
6.20877
20
-4.67195
11
6.20502
21
-4.6757
0
LINE
8
BLACK
6
CONTINUOUS
10
6.20502
20
-4.6757
11
6.20127
21
-4.67195
0
LINE
8
BLACK
6
CONTINUOUS
10
6.20127
20
-4.67195
11
6.20502
21
-4.6682
0
LINE
8
BLACK
6
CONTINUOUS
10
6.20502
20
-4.6682
11
6.20502
21
-4.6757
0
LINE
8
BLACK
6
CONTINUOUS
10
6.25752
20
-4.59695
11
6.26501
21
-4.59695
0
LINE
8
BLACK
6
CONTINUOUS
10
6.26501
20
-4.59695
11
6.27251
21
-4.6007
0
LINE
8
BLACK
6
CONTINUOUS
10
6.27251
20
-4.6007
11
6.27626
21
-4.60445
0
LINE
8
BLACK
6
CONTINUOUS
10
6.27626
20
-4.60445
11
6.28001
21
-4.61195
0
LINE
8
BLACK
6
CONTINUOUS
10
6.28001
20
-4.61195
11
6.28376
21
-4.62695
0
LINE
8
BLACK
6
CONTINUOUS
10
6.28376
20
-4.62695
11
6.28376
21
-4.6457
0
LINE
8
BLACK
6
CONTINUOUS
10
6.28376
20
-4.6457
11
6.28001
21
-4.6607
0
LINE
8
BLACK
6
CONTINUOUS
10
6.28001
20
-4.6607
11
6.27626
21
-4.6682
0
LINE
8
BLACK
6
CONTINUOUS
10
6.27626
20
-4.6682
11
6.27251
21
-4.67195
0
LINE
8
BLACK
6
CONTINUOUS
10
6.27251
20
-4.67195
11
6.26501
21
-4.6757
0
LINE
8
BLACK
6
CONTINUOUS
10
6.26501
20
-4.6757
11
6.25752
21
-4.6757
0
LINE
8
BLACK
6
CONTINUOUS
10
6.25752
20
-4.6757
11
6.25002
21
-4.67195
0
LINE
8
BLACK
6
CONTINUOUS
10
6.25002
20
-4.67195
11
6.24627
21
-4.6682
0
LINE
8
BLACK
6
CONTINUOUS
10
6.24627
20
-4.6682
11
6.24252
21
-4.6607
0
LINE
8
BLACK
6
CONTINUOUS
10
6.24252
20
-4.6607
11
6.23877
21
-4.6457
0
LINE
8
BLACK
6
CONTINUOUS
10
6.23877
20
-4.6457
11
6.23877
21
-4.62695
0
LINE
8
BLACK
6
CONTINUOUS
10
6.23877
20
-4.62695
11
6.24252
21
-4.61195
0
LINE
8
BLACK
6
CONTINUOUS
10
6.24252
20
-4.61195
11
6.24627
21
-4.60445
0
LINE
8
BLACK
6
CONTINUOUS
10
6.24627
20
-4.60445
11
6.25002
21
-4.6007
0
LINE
8
BLACK
6
CONTINUOUS
10
6.25002
20
-4.6007
11
6.25752
21
-4.59695
0
LINE
8
BLACK
6
CONTINUOUS
10
6.31001
20
-4.59695
11
6.35875
21
-4.59695
0
LINE
8
BLACK
6
CONTINUOUS
10
6.35875
20
-4.59695
11
6.33251
21
-4.62695
0
LINE
8
BLACK
6
CONTINUOUS
10
6.33251
20
-4.62695
11
6.34376
21
-4.62695
0
LINE
8
BLACK
6
CONTINUOUS
10
6.34376
20
-4.62695
11
6.35125
21
-4.6307
0
LINE
8
BLACK
6
CONTINUOUS
10
6.35125
20
-4.6307
11
6.355
21
-4.63445
0
LINE
8
BLACK
6
CONTINUOUS
10
6.355
20
-4.63445
11
6.35875
21
-4.64195
0
LINE
8
BLACK
6
CONTINUOUS
10
6.35875
20
-4.64195
11
6.35875
21
-4.6607
0
LINE
8
BLACK
6
CONTINUOUS
10
6.35875
20
-4.6607
11
6.355
21
-4.6682
0
LINE
8
BLACK
6
CONTINUOUS
10
6.355
20
-4.6682
11
6.35125
21
-4.67195
0
LINE
8
BLACK
6
CONTINUOUS
10
6.35125
20
-4.67195
11
6.34376
21
-4.6757
0
LINE
8
BLACK
6
CONTINUOUS
10
6.34376
20
-4.6757
11
6.32126
21
-4.6757
0
LINE
8
BLACK
6
CONTINUOUS
10
6.32126
20
-4.6757
11
6.31376
21
-4.67195
0
LINE
8
BLACK
6
CONTINUOUS
10
6.31376
20
-4.67195
11
6.31001
21
-4.6682
0
LINE
8
BLACK
6
CONTINUOUS
10
6.39625
20
-4.6757
11
6.41125
21
-4.6757
0
LINE
8
BLACK
6
CONTINUOUS
10
6.41125
20
-4.6757
11
6.41875
21
-4.67195
0
LINE
8
BLACK
6
CONTINUOUS
10
6.41875
20
-4.67195
11
6.4225
21
-4.6682
0
LINE
8
BLACK
6
CONTINUOUS
10
6.4225
20
-4.6682
11
6.42999
21
-4.65695
0
LINE
8
BLACK
6
CONTINUOUS
10
6.42999
20
-4.65695
11
6.43374
21
-4.64195
0
LINE
8
BLACK
6
CONTINUOUS
10
6.43374
20
-4.64195
11
6.43374
21
-4.61195
0
LINE
8
BLACK
6
CONTINUOUS
10
6.43374
20
-4.61195
11
6.42999
21
-4.60445
0
LINE
8
BLACK
6
CONTINUOUS
10
6.42999
20
-4.60445
11
6.42624
21
-4.6007
0
LINE
8
BLACK
6
CONTINUOUS
10
6.42624
20
-4.6007
11
6.41875
21
-4.59695
0
LINE
8
BLACK
6
CONTINUOUS
10
6.41875
20
-4.59695
11
6.40375
21
-4.59695
0
LINE
8
BLACK
6
CONTINUOUS
10
6.40375
20
-4.59695
11
6.39625
21
-4.6007
0
LINE
8
BLACK
6
CONTINUOUS
10
6.39625
20
-4.6007
11
6.3925
21
-4.60445
0
LINE
8
BLACK
6
CONTINUOUS
10
6.3925
20
-4.60445
11
6.38875
21
-4.61195
0
LINE
8
BLACK
6
CONTINUOUS
10
6.38875
20
-4.61195
11
6.38875
21
-4.6307
0
LINE
8
BLACK
6
CONTINUOUS
10
6.38875
20
-4.6307
11
6.3925
21
-4.6382
0
LINE
8
BLACK
6
CONTINUOUS
10
6.3925
20
-4.6382
11
6.39625
21
-4.64195
0
LINE
8
BLACK
6
CONTINUOUS
10
6.39625
20
-4.64195
11
6.40375
21
-4.6457
0
LINE
8
BLACK
6
CONTINUOUS
10
6.40375
20
-4.6457
11
6.41875
21
-4.6457
0
LINE
8
BLACK
6
CONTINUOUS
10
6.41875
20
-4.6457
11
6.42624
21
-4.64195
0
LINE
8
BLACK
6
CONTINUOUS
10
6.42624
20
-4.64195
11
6.42999
21
-4.6382
0
LINE
8
BLACK
6
CONTINUOUS
10
6.42999
20
-4.6382
11
6.43374
21
-4.6307
0
LINE
8
BLACK
6
CONTINUOUS
10
6.50124
20
-4.6232
11
6.50124
21
-4.6757
0
LINE
8
BLACK
6
CONTINUOUS
10
6.48249
20
-4.59321
11
6.46374
21
-4.64945
0
LINE
8
BLACK
6
CONTINUOUS
10
6.46374
20
-4.64945
11
6.51248
21
-4.64945
0
LINE
8
BLACK
6
CONTINUOUS
10
6.53873
20
-4.59695
11
6.53873
21
-4.61195
0
LINE
8
BLACK
6
CONTINUOUS
10
6.56873
20
-4.59695
11
6.56873
21
-4.61195
0
LINE
8
BLACK
6
CONTINUOUS
10
6.68496
20
-4.70569
11
6.68121
21
-4.70194
0
LINE
8
BLACK
6
CONTINUOUS
10
6.68121
20
-4.70194
11
6.67371
21
-4.69069
0
LINE
8
BLACK
6
CONTINUOUS
10
6.67371
20
-4.69069
11
6.66996
21
-4.68319
0
LINE
8
BLACK
6
CONTINUOUS
10
6.66996
20
-4.68319
11
6.66621
21
-4.67195
0
LINE
8
BLACK
6
CONTINUOUS
10
6.66621
20
-4.67195
11
6.66247
21
-4.6532
0
LINE
8
BLACK
6
CONTINUOUS
10
6.66247
20
-4.6532
11
6.66247
21
-4.6382
0
LINE
8
BLACK
6
CONTINUOUS
10
6.66247
20
-4.6382
11
6.66621
21
-4.61945
0
LINE
8
BLACK
6
CONTINUOUS
10
6.66621
20
-4.61945
11
6.66996
21
-4.6082
0
LINE
8
BLACK
6
CONTINUOUS
10
6.66996
20
-4.6082
11
6.67371
21
-4.6007
0
LINE
8
BLACK
6
CONTINUOUS
10
6.67371
20
-4.6007
11
6.68121
21
-4.58946
0
LINE
8
BLACK
6
CONTINUOUS
10
6.68121
20
-4.58946
11
6.68496
21
-4.58571
0
LINE
8
BLACK
6
CONTINUOUS
10
6.7562
20
-4.6757
11
6.71121
21
-4.6757
0
LINE
8
BLACK
6
CONTINUOUS
10
6.73371
20
-4.6757
11
6.73371
21
-4.59695
0
LINE
8
BLACK
6
CONTINUOUS
10
6.73371
20
-4.59695
11
6.72621
21
-4.6082
0
LINE
8
BLACK
6
CONTINUOUS
10
6.72621
20
-4.6082
11
6.71871
21
-4.6157
0
LINE
8
BLACK
6
CONTINUOUS
10
6.71871
20
-4.6157
11
6.71121
21
-4.61945
0
LINE
8
BLACK
6
CONTINUOUS
10
6.80495
20
-4.59695
11
6.81245
21
-4.59695
0
LINE
8
BLACK
6
CONTINUOUS
10
6.81245
20
-4.59695
11
6.81995
21
-4.6007
0
LINE
8
BLACK
6
CONTINUOUS
10
6.81995
20
-4.6007
11
6.8237
21
-4.60445
0
LINE
8
BLACK
6
CONTINUOUS
10
6.8237
20
-4.60445
11
6.82744
21
-4.61195
0
LINE
8
BLACK
6
CONTINUOUS
10
6.82744
20
-4.61195
11
6.83119
21
-4.62695
0
LINE
8
BLACK
6
CONTINUOUS
10
6.83119
20
-4.62695
11
6.83119
21
-4.6457
0
LINE
8
BLACK
6
CONTINUOUS
10
6.83119
20
-4.6457
11
6.82744
21
-4.6607
0
LINE
8
BLACK
6
CONTINUOUS
10
6.82744
20
-4.6607
11
6.8237
21
-4.6682
0
LINE
8
BLACK
6
CONTINUOUS
10
6.8237
20
-4.6682
11
6.81995
21
-4.67195
0
LINE
8
BLACK
6
CONTINUOUS
10
6.81995
20
-4.67195
11
6.81245
21
-4.6757
0
LINE
8
BLACK
6
CONTINUOUS
10
6.81245
20
-4.6757
11
6.80495
21
-4.6757
0
LINE
8
BLACK
6
CONTINUOUS
10
6.80495
20
-4.6757
11
6.79745
21
-4.67195
0
LINE
8
BLACK
6
CONTINUOUS
10
6.79745
20
-4.67195
11
6.7937
21
-4.6682
0
LINE
8
BLACK
6
CONTINUOUS
10
6.7937
20
-4.6682
11
6.78995
21
-4.6607
0
LINE
8
BLACK
6
CONTINUOUS
10
6.78995
20
-4.6607
11
6.7862
21
-4.6457
0
LINE
8
BLACK
6
CONTINUOUS
10
6.7862
20
-4.6457
11
6.7862
21
-4.62695
0
LINE
8
BLACK
6
CONTINUOUS
10
6.7862
20
-4.62695
11
6.78995
21
-4.61195
0
LINE
8
BLACK
6
CONTINUOUS
10
6.78995
20
-4.61195
11
6.7937
21
-4.60445
0
LINE
8
BLACK
6
CONTINUOUS
10
6.7937
20
-4.60445
11
6.79745
21
-4.6007
0
LINE
8
BLACK
6
CONTINUOUS
10
6.79745
20
-4.6007
11
6.80495
21
-4.59695
0
LINE
8
BLACK
6
CONTINUOUS
10
6.92493
20
-4.6757
11
6.92493
21
-4.59695
0
LINE
8
BLACK
6
CONTINUOUS
10
6.95868
20
-4.6757
11
6.95868
21
-4.63445
0
LINE
8
BLACK
6
CONTINUOUS
10
6.95868
20
-4.63445
11
6.95493
21
-4.62695
0
LINE
8
BLACK
6
CONTINUOUS
10
6.95493
20
-4.62695
11
6.94743
21
-4.6232
0
LINE
8
BLACK
6
CONTINUOUS
10
6.94743
20
-4.6232
11
6.93618
21
-4.6232
0
LINE
8
BLACK
6
CONTINUOUS
10
6.93618
20
-4.6232
11
6.92868
21
-4.62695
0
LINE
8
BLACK
6
CONTINUOUS
10
6.92868
20
-4.62695
11
6.92493
21
-4.6307
0
LINE
8
BLACK
6
CONTINUOUS
10
7.00742
20
-4.6757
11
6.99992
21
-4.67195
0
LINE
8
BLACK
6
CONTINUOUS
10
6.99992
20
-4.67195
11
6.99617
21
-4.6682
0
LINE
8
BLACK
6
CONTINUOUS
10
6.99617
20
-4.6682
11
6.99242
21
-4.6607
0
LINE
8
BLACK
6
CONTINUOUS
10
6.99242
20
-4.6607
11
6.99242
21
-4.6382
0
LINE
8
BLACK
6
CONTINUOUS
10
6.99242
20
-4.6382
11
6.99617
21
-4.6307
0
LINE
8
BLACK
6
CONTINUOUS
10
6.99617
20
-4.6307
11
6.99992
21
-4.62695
0
LINE
8
BLACK
6
CONTINUOUS
10
6.99992
20
-4.62695
11
7.00742
21
-4.6232
0
LINE
8
BLACK
6
CONTINUOUS
10
7.00742
20
-4.6232
11
7.01867
21
-4.6232
0
LINE
8
BLACK
6
CONTINUOUS
10
7.01867
20
-4.6232
11
7.02617
21
-4.62695
0
LINE
8
BLACK
6
CONTINUOUS
10
7.02617
20
-4.62695
11
7.02992
21
-4.6307
0
LINE
8
BLACK
6
CONTINUOUS
10
7.02992
20
-4.6307
11
7.03367
21
-4.6382
0
LINE
8
BLACK
6
CONTINUOUS
10
7.03367
20
-4.6382
11
7.03367
21
-4.6607
0
LINE
8
BLACK
6
CONTINUOUS
10
7.03367
20
-4.6607
11
7.02992
21
-4.6682
0
LINE
8
BLACK
6
CONTINUOUS
10
7.02992
20
-4.6682
11
7.02617
21
-4.67195
0
LINE
8
BLACK
6
CONTINUOUS
10
7.02617
20
-4.67195
11
7.01867
21
-4.6757
0
LINE
8
BLACK
6
CONTINUOUS
10
7.01867
20
-4.6757
11
7.00742
21
-4.6757
0
LINE
8
BLACK
6
CONTINUOUS
10
7.07866
20
-4.6757
11
7.07116
21
-4.67195
0
LINE
8
BLACK
6
CONTINUOUS
10
7.07116
20
-4.67195
11
7.06741
21
-4.66445
0
LINE
8
BLACK
6
CONTINUOUS
10
7.06741
20
-4.66445
11
7.06741
21
-4.59695
0
LINE
8
BLACK
6
CONTINUOUS
10
7.13866
20
-4.67195
11
7.13116
21
-4.6757
0
LINE
8
BLACK
6
CONTINUOUS
10
7.13116
20
-4.6757
11
7.11616
21
-4.6757
0
LINE
8
BLACK
6
CONTINUOUS
10
7.11616
20
-4.6757
11
7.10866
21
-4.67195
0
LINE
8
BLACK
6
CONTINUOUS
10
7.10866
20
-4.67195
11
7.10491
21
-4.66445
0
LINE
8
BLACK
6
CONTINUOUS
10
7.10491
20
-4.66445
11
7.10491
21
-4.63445
0
LINE
8
BLACK
6
CONTINUOUS
10
7.10491
20
-4.63445
11
7.10866
21
-4.62695
0
LINE
8
BLACK
6
CONTINUOUS
10
7.10866
20
-4.62695
11
7.11616
21
-4.6232
0
LINE
8
BLACK
6
CONTINUOUS
10
7.11616
20
-4.6232
11
7.13116
21
-4.6232
0
LINE
8
BLACK
6
CONTINUOUS
10
7.13116
20
-4.6232
11
7.13866
21
-4.62695
0
LINE
8
BLACK
6
CONTINUOUS
10
7.13866
20
-4.62695
11
7.14241
21
-4.63445
0
LINE
8
BLACK
6
CONTINUOUS
10
7.14241
20
-4.63445
11
7.14241
21
-4.64195
0
LINE
8
BLACK
6
CONTINUOUS
10
7.14241
20
-4.64195
11
7.10491
21
-4.64945
0
LINE
8
BLACK
6
CONTINUOUS
10
7.1724
20
-4.67195
11
7.1799
21
-4.6757
0
LINE
8
BLACK
6
CONTINUOUS
10
7.1799
20
-4.6757
11
7.1949
21
-4.6757
0
LINE
8
BLACK
6
CONTINUOUS
10
7.1949
20
-4.6757
11
7.2024
21
-4.67195
0
LINE
8
BLACK
6
CONTINUOUS
10
7.2024
20
-4.67195
11
7.20615
21
-4.66445
0
LINE
8
BLACK
6
CONTINUOUS
10
7.20615
20
-4.66445
11
7.20615
21
-4.6607
0
LINE
8
BLACK
6
CONTINUOUS
10
7.20615
20
-4.6607
11
7.2024
21
-4.6532
0
LINE
8
BLACK
6
CONTINUOUS
10
7.2024
20
-4.6532
11
7.1949
21
-4.64945
0
LINE
8
BLACK
6
CONTINUOUS
10
7.1949
20
-4.64945
11
7.18365
21
-4.64945
0
LINE
8
BLACK
6
CONTINUOUS
10
7.18365
20
-4.64945
11
7.17615
21
-4.6457
0
LINE
8
BLACK
6
CONTINUOUS
10
7.17615
20
-4.6457
11
7.1724
21
-4.6382
0
LINE
8
BLACK
6
CONTINUOUS
10
7.1724
20
-4.6382
11
7.1724
21
-4.63445
0
LINE
8
BLACK
6
CONTINUOUS
10
7.1724
20
-4.63445
11
7.17615
21
-4.62695
0
LINE
8
BLACK
6
CONTINUOUS
10
7.17615
20
-4.62695
11
7.18365
21
-4.6232
0
LINE
8
BLACK
6
CONTINUOUS
10
7.18365
20
-4.6232
11
7.1949
21
-4.6232
0
LINE
8
BLACK
6
CONTINUOUS
10
7.1949
20
-4.6232
11
7.2024
21
-4.62695
0
LINE
8
BLACK
6
CONTINUOUS
10
7.23239
20
-4.70569
11
7.23614
21
-4.70194
0
LINE
8
BLACK
6
CONTINUOUS
10
7.23614
20
-4.70194
11
7.24364
21
-4.69069
0
LINE
8
BLACK
6
CONTINUOUS
10
7.24364
20
-4.69069
11
7.24739
21
-4.68319
0
LINE
8
BLACK
6
CONTINUOUS
10
7.24739
20
-4.68319
11
7.25114
21
-4.67195
0
LINE
8
BLACK
6
CONTINUOUS
10
7.25114
20
-4.67195
11
7.25489
21
-4.6532
0
LINE
8
BLACK
6
CONTINUOUS
10
7.25489
20
-4.6532
11
7.25489
21
-4.6382
0
LINE
8
BLACK
6
CONTINUOUS
10
7.25489
20
-4.6382
11
7.25114
21
-4.61945
0
LINE
8
BLACK
6
CONTINUOUS
10
7.25114
20
-4.61945
11
7.24739
21
-4.6082
0
LINE
8
BLACK
6
CONTINUOUS
10
7.24739
20
-4.6082
11
7.24364
21
-4.6007
0
LINE
8
BLACK
6
CONTINUOUS
10
7.24364
20
-4.6007
11
7.23614
21
-4.58946
0
LINE
8
BLACK
6
CONTINUOUS
10
7.23614
20
-4.58946
11
7.23239
21
-4.58571
  0
ENDSEC
  0
EOF
