%TF.GenerationSoftware,KiCad,Pcbnew,(6.0.10)*%
%TF.CreationDate,2023-12-30T01:12:33+11:00*%
%TF.ProjectId,1-Chip,312d4368-6970-42e6-9b69-6361645f7063,3.2*%
%TF.SameCoordinates,Original*%
%TF.FileFunction,Copper,L1,Top*%
%TF.FilePolarity,Positive*%
%FSLAX46Y46*%
G04 Gerber Fmt 4.6, Leading zero omitted, Abs format (unit mm)*
G04 Created by KiCad (PCBNEW (6.0.10)) date 2023-12-30 01:12:33*
%MOMM*%
%LPD*%
G01*
G04 APERTURE LIST*
G04 Aperture macros list*
%AMRoundRect*
0 Rectangle with rounded corners*
0 $1 Rounding radius*
0 $2 $3 $4 $5 $6 $7 $8 $9 X,Y pos of 4 corners*
0 Add a 4 corners polygon primitive as box body*
4,1,4,$2,$3,$4,$5,$6,$7,$8,$9,$2,$3,0*
0 Add four circle primitives for the rounded corners*
1,1,$1+$1,$2,$3*
1,1,$1+$1,$4,$5*
1,1,$1+$1,$6,$7*
1,1,$1+$1,$8,$9*
0 Add four rect primitives between the rounded corners*
20,1,$1+$1,$2,$3,$4,$5,0*
20,1,$1+$1,$4,$5,$6,$7,0*
20,1,$1+$1,$6,$7,$8,$9,0*
20,1,$1+$1,$8,$9,$2,$3,0*%
G04 Aperture macros list end*
%TA.AperFunction,SMDPad,CuDef*%
%ADD10RoundRect,0.225000X-0.250000X0.225000X-0.250000X-0.225000X0.250000X-0.225000X0.250000X0.225000X0*%
%TD*%
%TA.AperFunction,ComponentPad*%
%ADD11C,1.700000*%
%TD*%
%TA.AperFunction,ComponentPad*%
%ADD12O,1.700000X1.700000*%
%TD*%
%TA.AperFunction,SMDPad,CuDef*%
%ADD13R,1.050000X2.100000*%
%TD*%
%TA.AperFunction,SMDPad,CuDef*%
%ADD14R,0.750000X0.500000*%
%TD*%
%TA.AperFunction,SMDPad,CuDef*%
%ADD15RoundRect,0.150000X-0.150000X0.512500X-0.150000X-0.512500X0.150000X-0.512500X0.150000X0.512500X0*%
%TD*%
%TA.AperFunction,SMDPad,CuDef*%
%ADD16RoundRect,0.225000X0.225000X0.250000X-0.225000X0.250000X-0.225000X-0.250000X0.225000X-0.250000X0*%
%TD*%
%TA.AperFunction,SMDPad,CuDef*%
%ADD17R,0.500000X0.750000*%
%TD*%
%TA.AperFunction,SMDPad,CuDef*%
%ADD18RoundRect,0.225000X-0.225000X-0.250000X0.225000X-0.250000X0.225000X0.250000X-0.225000X0.250000X0*%
%TD*%
%TA.AperFunction,SMDPad,CuDef*%
%ADD19RoundRect,0.075000X-0.650000X-0.075000X0.650000X-0.075000X0.650000X0.075000X-0.650000X0.075000X0*%
%TD*%
%TA.AperFunction,SMDPad,CuDef*%
%ADD20RoundRect,0.075000X-0.550000X-0.075000X0.550000X-0.075000X0.550000X0.075000X-0.550000X0.075000X0*%
%TD*%
%TA.AperFunction,SMDPad,CuDef*%
%ADD21R,1.680000X1.880000*%
%TD*%
%TA.AperFunction,SMDPad,CuDef*%
%ADD22RoundRect,0.075000X-0.225000X-0.075000X0.225000X-0.075000X0.225000X0.075000X-0.225000X0.075000X0*%
%TD*%
%TA.AperFunction,ViaPad*%
%ADD23C,0.550000*%
%TD*%
%TA.AperFunction,Conductor*%
%ADD24C,0.254000*%
%TD*%
%TA.AperFunction,Conductor*%
%ADD25C,0.250000*%
%TD*%
%TA.AperFunction,Conductor*%
%ADD26C,0.300000*%
%TD*%
%TA.AperFunction,Conductor*%
%ADD27C,0.500000*%
%TD*%
%TA.AperFunction,Conductor*%
%ADD28C,0.750000*%
%TD*%
G04 APERTURE END LIST*
D10*
X152250000Y-100975000D03*
X152250000Y-102525000D03*
X152250000Y-97725000D03*
X152250000Y-99275000D03*
D11*
X148080000Y-99070000D03*
X148080000Y-96530000D03*
D12*
X145540000Y-99070000D03*
X145540000Y-96530000D03*
X143000000Y-99070000D03*
X143000000Y-96530000D03*
X137920000Y-99070000D03*
X137920000Y-96530000D03*
D13*
X150490000Y-104700000D03*
X150490000Y-107420000D03*
D10*
X150550000Y-100975000D03*
X150550000Y-102525000D03*
X150550000Y-97725000D03*
X150550000Y-99275000D03*
D12*
X140460000Y-99070000D03*
X140460000Y-96530000D03*
D13*
X140409000Y-107401000D03*
X142009000Y-107401000D03*
X143609000Y-107401000D03*
D10*
X136652000Y-105397000D03*
X136652000Y-106947000D03*
X138176000Y-101066000D03*
X138176000Y-102616000D03*
X136652000Y-101079000D03*
X136652000Y-102629000D03*
X147320000Y-107455000D03*
X147320000Y-105905000D03*
X135128000Y-101066000D03*
X135128000Y-102616000D03*
D13*
X145288000Y-107442000D03*
D14*
X148844000Y-106159000D03*
X148844000Y-106809000D03*
D15*
X147574000Y-101854000D03*
X148524000Y-101854000D03*
X148524000Y-104129000D03*
X146624000Y-101854000D03*
X146624000Y-104129000D03*
D16*
X145047000Y-101092000D03*
X143497000Y-101092000D03*
D17*
X136002000Y-97790000D03*
X136652000Y-97790000D03*
D10*
X135128000Y-105423000D03*
X135128000Y-106973000D03*
D18*
X140435000Y-101100000D03*
X141985000Y-101100000D03*
D10*
X138176000Y-105410000D03*
X138176000Y-106960000D03*
D19*
X140432000Y-102670000D03*
X140432000Y-103170000D03*
X140432000Y-103670000D03*
X140432000Y-104170000D03*
D20*
X144732000Y-104170000D03*
X144732000Y-103670000D03*
X144732000Y-103170000D03*
D21*
X142582000Y-103670000D03*
D22*
X144732000Y-104670000D03*
D19*
X144732000Y-102670000D03*
X140432000Y-104670000D03*
D23*
X145330000Y-105910000D03*
X147580000Y-100860000D03*
X142740000Y-101120000D03*
X149050000Y-100110000D03*
X140462000Y-105918000D03*
X135382000Y-104648000D03*
X138176000Y-101841000D03*
X136652000Y-104648000D03*
X141986000Y-105918000D03*
X136652000Y-101854000D03*
X138176000Y-104648000D03*
X143764000Y-105918000D03*
X135128000Y-101841000D03*
X136360000Y-96680000D03*
X143764000Y-103124000D03*
X139192000Y-102108000D03*
X143764000Y-103886000D03*
X136630000Y-103470000D03*
X143764000Y-104648000D03*
X134620000Y-104050000D03*
D24*
X149050000Y-100110000D02*
X149470000Y-99690000D01*
X149470000Y-98600000D02*
X149470000Y-99590000D01*
X149470000Y-99690000D02*
X149470000Y-99590000D01*
X149470000Y-98520000D02*
X149470000Y-98600000D01*
X148760000Y-97810000D02*
X149470000Y-98520000D01*
D25*
X139180000Y-100140000D02*
X139180000Y-97790000D01*
X140140000Y-101100000D02*
X139180000Y-100140000D01*
X140435000Y-101100000D02*
X140140000Y-101100000D01*
X139180000Y-97790000D02*
X137920000Y-96530000D01*
X140435000Y-101100000D02*
X140350000Y-101100000D01*
X137920000Y-96530000D02*
X137920000Y-97170000D01*
X152250000Y-99275000D02*
X152250000Y-100975000D01*
X150550000Y-99275000D02*
X150550000Y-100975000D01*
X150580000Y-107420000D02*
X152250000Y-105750000D01*
X150490000Y-107420000D02*
X150490000Y-107260000D01*
X150490000Y-107420000D02*
X150580000Y-107420000D01*
X150490000Y-107420000D02*
X150490000Y-106790000D01*
X152250000Y-105750000D02*
X152250000Y-102525000D01*
X150490000Y-104700000D02*
X150490000Y-102585000D01*
X150490000Y-102585000D02*
X150550000Y-102525000D01*
X150550000Y-97200000D02*
X148690000Y-95340000D01*
X150550000Y-97725000D02*
X150550000Y-97200000D01*
X149640000Y-94890000D02*
X141900000Y-94890000D01*
X141900000Y-94890000D02*
X140460000Y-96330000D01*
X152250000Y-97500000D02*
X149640000Y-94890000D01*
X140460000Y-96330000D02*
X140460000Y-96530000D01*
X152250000Y-97725000D02*
X152250000Y-97500000D01*
X150550000Y-97725000D02*
X150700000Y-97725000D01*
X150550000Y-100975000D02*
X150700000Y-100975000D01*
X150550000Y-102550000D02*
X150550000Y-102525000D01*
X142110000Y-95340000D02*
X148690000Y-95340000D01*
X141680000Y-95770000D02*
X142110000Y-95340000D01*
X140960000Y-99070000D02*
X141680000Y-98350000D01*
X140460000Y-99070000D02*
X140960000Y-99070000D01*
X141680000Y-98350000D02*
X141680000Y-95770000D01*
X140460000Y-96530000D02*
X140930000Y-96060000D01*
D26*
X141985000Y-101100000D02*
X143489000Y-101100000D01*
D25*
X147580000Y-101848000D02*
X147574000Y-101854000D01*
D27*
X140881000Y-105119000D02*
X141009511Y-105247511D01*
X140785000Y-105023000D02*
X140881000Y-105119000D01*
X144667511Y-105247511D02*
X145330000Y-105910000D01*
D24*
X144620000Y-97810000D02*
X148760000Y-97810000D01*
D28*
X143002000Y-96520000D02*
X143002000Y-99060000D01*
D24*
X136652000Y-106947000D02*
X136639000Y-106947000D01*
X143523000Y-101079000D02*
X143510000Y-101092000D01*
X135128000Y-106973000D02*
X135128000Y-107302000D01*
D27*
X140113000Y-105023000D02*
X138176000Y-106960000D01*
X141009511Y-105247511D02*
X144667511Y-105247511D01*
X140113000Y-105023000D02*
X140785000Y-105023000D01*
D24*
X143002000Y-99060000D02*
X143370000Y-99060000D01*
D27*
X135128000Y-106973000D02*
X138163000Y-106973000D01*
D25*
X138176000Y-106960000D02*
X138176000Y-106926000D01*
D24*
X136652000Y-106947000D02*
X136665000Y-106947000D01*
D27*
X140432000Y-104670000D02*
X140881000Y-105119000D01*
D24*
X143497000Y-99555000D02*
X143002000Y-99060000D01*
D27*
X147580000Y-100860000D02*
X147580000Y-101848000D01*
D25*
X138163000Y-106973000D02*
X138176000Y-106960000D01*
X140432000Y-104670000D02*
X140432000Y-104704000D01*
D27*
X140432000Y-104704000D02*
X140113000Y-105023000D01*
D24*
X143370000Y-99060000D02*
X144620000Y-97810000D01*
D25*
X140432000Y-104170000D02*
X140432000Y-104670000D01*
D26*
X143489000Y-101100000D02*
X143497000Y-101092000D01*
D25*
X136403673Y-104048489D02*
X137286299Y-104048489D01*
X137739820Y-103594969D02*
X138439933Y-103594969D01*
X140462000Y-107348000D02*
X140409000Y-107401000D01*
X140462000Y-105918000D02*
X140462000Y-107348000D01*
X139364902Y-102670000D02*
X140432000Y-102670000D01*
D24*
X140409000Y-107401000D02*
X140409000Y-106479000D01*
D25*
X135382000Y-104648000D02*
X135382000Y-105169000D01*
X135382000Y-105169000D02*
X135128000Y-105423000D01*
X138439933Y-103594969D02*
X139364902Y-102670000D01*
X135382000Y-104648000D02*
X135804162Y-104648000D01*
X137286299Y-104048489D02*
X137739820Y-103594969D01*
X135804162Y-104648000D02*
X136403673Y-104048489D01*
X138176000Y-101066000D02*
X138176000Y-101841000D01*
D24*
X136652000Y-104648000D02*
X137325334Y-104648000D01*
X142009000Y-105941000D02*
X141986000Y-105918000D01*
X137926845Y-104046489D02*
X138626959Y-104046489D01*
X138626959Y-104046489D02*
X139503448Y-103170000D01*
X139503448Y-103170000D02*
X140432000Y-103170000D01*
X142009000Y-107401000D02*
X142009000Y-105941000D01*
X136652000Y-104648000D02*
X136652000Y-105397000D01*
X137325334Y-104648000D02*
X137926845Y-104046489D01*
D25*
X136652000Y-101079000D02*
X136652000Y-101854000D01*
X143764000Y-107246000D02*
X143609000Y-107401000D01*
X143764000Y-105918000D02*
X143764000Y-107246000D01*
X138176000Y-104648000D02*
X138176000Y-105410000D01*
X138663994Y-104648000D02*
X139641994Y-103670000D01*
X139641994Y-103670000D02*
X140432000Y-103670000D01*
X138176000Y-104648000D02*
X138663994Y-104648000D01*
D24*
X143609000Y-107401000D02*
X143609000Y-106525000D01*
D25*
X135128000Y-101066000D02*
X135128000Y-101841000D01*
D24*
X149102920Y-104897080D02*
X148844000Y-105156000D01*
X148390480Y-100384480D02*
X149102920Y-101096920D01*
X145542000Y-99060000D02*
X145542000Y-99696316D01*
X148844000Y-105156000D02*
X148844000Y-106159000D01*
X146230163Y-100384480D02*
X148390480Y-100384480D01*
X145542000Y-99696316D02*
X146230163Y-100384480D01*
D25*
X136360000Y-96680000D02*
X136652000Y-96972000D01*
D24*
X147574000Y-106159000D02*
X147320000Y-105905000D01*
X148844000Y-106159000D02*
X147574000Y-106159000D01*
D25*
X136652000Y-96972000D02*
X136652000Y-97790000D01*
D24*
X149102920Y-101096920D02*
X149102920Y-104897080D01*
D25*
X145288000Y-107442000D02*
X145472520Y-107626520D01*
X145472520Y-107626520D02*
X147320000Y-107626520D01*
X148198000Y-107455000D02*
X148844000Y-106809000D01*
X147320000Y-107455000D02*
X148198000Y-107455000D01*
D24*
X136643000Y-99060000D02*
X137922000Y-99060000D01*
X136002000Y-98419000D02*
X136643000Y-99060000D01*
X136002000Y-97790000D02*
X136002000Y-98419000D01*
X146584480Y-101893520D02*
X146624000Y-101854000D01*
D25*
X145499618Y-100292480D02*
X146624000Y-101416862D01*
X146624000Y-101854000D02*
X146624000Y-102224000D01*
X146624000Y-102224000D02*
X147230000Y-102830000D01*
X147305310Y-102841020D02*
X147920552Y-102841020D01*
X140435000Y-101100000D02*
X141242520Y-100292480D01*
X146586480Y-101891520D02*
X146624000Y-101854000D01*
D24*
X146611000Y-101841000D02*
X146624000Y-101854000D01*
D25*
X146624000Y-101854000D02*
X146624000Y-102334000D01*
X146681454Y-101796546D02*
X146624000Y-101854000D01*
X148524000Y-101854000D02*
X148524000Y-102237572D01*
X141242520Y-100292480D02*
X145499618Y-100292480D01*
X146624000Y-101854000D02*
X146624000Y-102237572D01*
X146624000Y-101416862D02*
X146624000Y-101854000D01*
X148524000Y-102237572D02*
X147920552Y-102841020D01*
X137922000Y-102616000D02*
X138176000Y-102616000D01*
X143810000Y-103170000D02*
X144732000Y-103170000D01*
X143764000Y-103124000D02*
X143810000Y-103170000D01*
X138176000Y-102616000D02*
X137917138Y-102616000D01*
X138684000Y-102616000D02*
X139192000Y-102108000D01*
X138176000Y-102616000D02*
X138684000Y-102616000D01*
X144041994Y-103670000D02*
X144732000Y-103670000D01*
X136652000Y-103448000D02*
X136630000Y-103470000D01*
X136652000Y-102629000D02*
X136652000Y-103448000D01*
X143764000Y-103886000D02*
X143825994Y-103886000D01*
X136652000Y-103328000D02*
X136630000Y-103350000D01*
X143825994Y-103886000D02*
X144041994Y-103670000D01*
X134874000Y-102616000D02*
X135128000Y-102362000D01*
X134610000Y-104040000D02*
X134620000Y-104050000D01*
X135128000Y-102792000D02*
X134610000Y-103310000D01*
X144732000Y-104170000D02*
X144332978Y-104170000D01*
X143854978Y-104648000D02*
X143764000Y-104648000D01*
X134610000Y-103310000D02*
X134610000Y-104040000D01*
X144732000Y-104170000D02*
X144327838Y-104170000D01*
X144332978Y-104170000D02*
X143854978Y-104648000D01*
X144327838Y-104170000D02*
X144302358Y-104195480D01*
X145422006Y-102670000D02*
X144732000Y-102670000D01*
X145546003Y-102793997D02*
X145422006Y-102670000D01*
X145712006Y-102960000D02*
X145546003Y-102793997D01*
X145882006Y-103140289D02*
X146001717Y-103260000D01*
X144732000Y-102670000D02*
X144157838Y-102670000D01*
X147957572Y-104129000D02*
X147083427Y-103254855D01*
X146001717Y-103260000D02*
X147078283Y-103260000D01*
X145546003Y-102793997D02*
X145882006Y-103130000D01*
X145882006Y-103130000D02*
X145882006Y-103140289D01*
X147957572Y-104129000D02*
X148524000Y-104129000D01*
X145047000Y-102294994D02*
X145546003Y-102793997D01*
D24*
X145060000Y-100838000D02*
X145060000Y-101092000D01*
D25*
X145047000Y-101092000D02*
X145047000Y-102294994D01*
%TA.AperFunction,Conductor*%
G36*
X137648640Y-106701176D02*
G01*
X137649441Y-106697493D01*
X137688548Y-106706000D01*
X138304000Y-106706000D01*
X138372121Y-106726002D01*
X138418614Y-106779658D01*
X138430000Y-106832000D01*
X138430000Y-107899885D01*
X138434475Y-107915124D01*
X138435865Y-107916329D01*
X138443548Y-107918000D01*
X138471438Y-107918000D01*
X138477953Y-107917663D01*
X138570057Y-107908106D01*
X138583456Y-107905212D01*
X138732107Y-107855619D01*
X138745286Y-107849445D01*
X138878173Y-107767212D01*
X138889574Y-107758176D01*
X138999986Y-107647571D01*
X139008998Y-107636160D01*
X139091004Y-107503120D01*
X139097151Y-107489939D01*
X139129907Y-107391184D01*
X139170338Y-107332824D01*
X139235902Y-107305588D01*
X139305784Y-107318122D01*
X139357796Y-107366447D01*
X139375500Y-107430852D01*
X139375500Y-108102997D01*
X139355498Y-108171118D01*
X139301842Y-108217611D01*
X139248966Y-108228996D01*
X137021221Y-108219536D01*
X135178181Y-108211709D01*
X135159331Y-108210210D01*
X135143148Y-108207690D01*
X135143145Y-108207690D01*
X135134276Y-108206309D01*
X135125374Y-108207473D01*
X135125250Y-108207489D01*
X135094808Y-108207760D01*
X135074130Y-108205430D01*
X135032736Y-108200766D01*
X135005229Y-108194487D01*
X134928147Y-108167515D01*
X134902727Y-108155274D01*
X134887662Y-108145808D01*
X134878328Y-108139943D01*
X134831291Y-108086766D01*
X134820470Y-108016598D01*
X134850139Y-107950744D01*
X134872329Y-107925135D01*
X134874000Y-107917452D01*
X134874000Y-107912885D01*
X135382000Y-107912885D01*
X135386475Y-107928124D01*
X135387865Y-107929329D01*
X135395548Y-107931000D01*
X135423438Y-107931000D01*
X135429953Y-107930663D01*
X135522057Y-107921106D01*
X135535456Y-107918212D01*
X135684107Y-107868619D01*
X135697286Y-107862445D01*
X135830179Y-107780208D01*
X135831653Y-107779040D01*
X135832850Y-107778556D01*
X135836401Y-107776358D01*
X135836777Y-107776966D01*
X135897463Y-107752403D01*
X135967227Y-107765574D01*
X135976032Y-107770526D01*
X136083880Y-107837004D01*
X136097061Y-107843151D01*
X136245814Y-107892491D01*
X136259190Y-107895358D01*
X136350097Y-107904672D01*
X136356513Y-107905000D01*
X136379885Y-107905000D01*
X136395124Y-107900525D01*
X136396329Y-107899135D01*
X136398000Y-107891452D01*
X136398000Y-107886885D01*
X136906000Y-107886885D01*
X136910475Y-107902124D01*
X136911865Y-107903329D01*
X136919548Y-107905000D01*
X136947438Y-107905000D01*
X136953953Y-107904663D01*
X137046057Y-107895106D01*
X137059456Y-107892212D01*
X137208107Y-107842619D01*
X137221286Y-107836445D01*
X137337054Y-107764806D01*
X137405506Y-107745968D01*
X137469473Y-107764690D01*
X137607880Y-107850004D01*
X137621061Y-107856151D01*
X137769814Y-107905491D01*
X137783190Y-107908358D01*
X137874097Y-107917672D01*
X137880513Y-107918000D01*
X137903885Y-107918000D01*
X137919124Y-107913525D01*
X137920329Y-107912135D01*
X137922000Y-107904452D01*
X137922000Y-107232115D01*
X137917525Y-107216876D01*
X137916135Y-107215671D01*
X137908452Y-107214000D01*
X137207205Y-107214000D01*
X137179360Y-107205824D01*
X137178559Y-107209507D01*
X137139452Y-107201000D01*
X136924115Y-107201000D01*
X136908876Y-107205475D01*
X136907671Y-107206865D01*
X136906000Y-107214548D01*
X136906000Y-107886885D01*
X136398000Y-107886885D01*
X136398000Y-107219115D01*
X136393525Y-107203876D01*
X136392135Y-107202671D01*
X136384452Y-107201000D01*
X136169115Y-107201000D01*
X136125996Y-107213661D01*
X136113184Y-107221895D01*
X136077682Y-107227000D01*
X135400115Y-107227000D01*
X135384876Y-107231475D01*
X135383671Y-107232865D01*
X135382000Y-107240548D01*
X135382000Y-107912885D01*
X134874000Y-107912885D01*
X134874000Y-106845000D01*
X134894002Y-106776879D01*
X134947658Y-106730386D01*
X135000000Y-106719000D01*
X135610885Y-106719000D01*
X135654004Y-106706339D01*
X135666816Y-106698105D01*
X135702318Y-106693000D01*
X137620795Y-106693000D01*
X137648640Y-106701176D01*
G37*
%TD.AperFunction*%
%TA.AperFunction,Conductor*%
G36*
X145766016Y-104701927D02*
G01*
X145816813Y-104751527D01*
X145827950Y-104778073D01*
X145862643Y-104897488D01*
X145864855Y-104905101D01*
X145868892Y-104911927D01*
X145945509Y-105041480D01*
X145945511Y-105041483D01*
X145949547Y-105048307D01*
X146067193Y-105165953D01*
X146074017Y-105169989D01*
X146074020Y-105169991D01*
X146181589Y-105233607D01*
X146210399Y-105250645D01*
X146218009Y-105252856D01*
X146218014Y-105252858D01*
X146293820Y-105274881D01*
X146353656Y-105313094D01*
X146383334Y-105377590D01*
X146378261Y-105435544D01*
X146346851Y-105530243D01*
X146336500Y-105631268D01*
X146336500Y-105896941D01*
X146316498Y-105965062D01*
X146262842Y-106011555D01*
X146192568Y-106021659D01*
X146134935Y-105997767D01*
X146075644Y-105953331D01*
X146059705Y-105941385D01*
X145923316Y-105890255D01*
X145861134Y-105883500D01*
X144714866Y-105883500D01*
X144711474Y-105883868D01*
X144711464Y-105883869D01*
X144675415Y-105887785D01*
X144605533Y-105875256D01*
X144553518Y-105826935D01*
X144536594Y-105776569D01*
X144533649Y-105750316D01*
X144532864Y-105743318D01*
X144475057Y-105577319D01*
X144468874Y-105567424D01*
X144440034Y-105521269D01*
X144420898Y-105452900D01*
X144441764Y-105385039D01*
X144496005Y-105339231D01*
X144546888Y-105328500D01*
X144995244Y-105328500D01*
X144999330Y-105327962D01*
X144999331Y-105327962D01*
X145042991Y-105322214D01*
X145109324Y-105313481D01*
X145116951Y-105310322D01*
X145116954Y-105310321D01*
X145199739Y-105276030D01*
X145251268Y-105254686D01*
X145373157Y-105161157D01*
X145466686Y-105039267D01*
X145525481Y-104897324D01*
X145533851Y-104833750D01*
X145562574Y-104768823D01*
X145582068Y-104750236D01*
X145604926Y-104732696D01*
X145630249Y-104713264D01*
X145696467Y-104687663D01*
X145766016Y-104701927D01*
G37*
%TD.AperFunction*%
%TA.AperFunction,Conductor*%
G36*
X140524121Y-104348502D02*
G01*
X140570614Y-104402158D01*
X140582000Y-104454500D01*
X140582000Y-104742000D01*
X140561998Y-104810121D01*
X140508342Y-104856614D01*
X140456000Y-104868000D01*
X140408000Y-104868000D01*
X140339879Y-104847998D01*
X140293386Y-104794342D01*
X140282000Y-104742000D01*
X140282000Y-104454500D01*
X140302002Y-104386379D01*
X140355658Y-104339886D01*
X140408000Y-104328500D01*
X140456000Y-104328500D01*
X140524121Y-104348502D01*
G37*
%TD.AperFunction*%
%TA.AperFunction,Conductor*%
G36*
X143693121Y-100945982D02*
G01*
X143739614Y-100999638D01*
X143751000Y-101051980D01*
X143751000Y-101220000D01*
X143730998Y-101288121D01*
X143677342Y-101334614D01*
X143625000Y-101346000D01*
X143001115Y-101346000D01*
X142991252Y-101348896D01*
X142955754Y-101354000D01*
X141857000Y-101354000D01*
X141788879Y-101333998D01*
X141742386Y-101280342D01*
X141731000Y-101228000D01*
X141731000Y-101051980D01*
X141751002Y-100983859D01*
X141804658Y-100937366D01*
X141857000Y-100925980D01*
X143625000Y-100925980D01*
X143693121Y-100945982D01*
G37*
%TD.AperFunction*%
%TA.AperFunction,Conductor*%
G36*
X149521492Y-99544472D02*
G01*
X149566320Y-99599526D01*
X149575485Y-99635329D01*
X149577113Y-99651019D01*
X149579295Y-99657559D01*
X149624469Y-99792960D01*
X149631244Y-99813268D01*
X149635096Y-99819492D01*
X149635096Y-99819493D01*
X149691209Y-99910170D01*
X149721248Y-99958713D01*
X149726430Y-99963886D01*
X149726434Y-99963891D01*
X149798466Y-100035797D01*
X149832546Y-100098079D01*
X149827543Y-100168899D01*
X149798623Y-100213987D01*
X149720448Y-100292298D01*
X149630698Y-100437899D01*
X149628394Y-100444847D01*
X149628392Y-100444850D01*
X149623237Y-100460391D01*
X149582806Y-100518750D01*
X149517241Y-100545986D01*
X149447360Y-100533452D01*
X149414550Y-100509817D01*
X149077183Y-100172450D01*
X149043157Y-100110138D01*
X149048222Y-100039323D01*
X149077337Y-99994105D01*
X149118096Y-99953489D01*
X149138961Y-99924453D01*
X149245435Y-99776277D01*
X149248453Y-99772077D01*
X149286300Y-99695500D01*
X149337201Y-99592508D01*
X149385314Y-99540301D01*
X149454016Y-99522394D01*
X149521492Y-99544472D01*
G37*
%TD.AperFunction*%
%TA.AperFunction,Conductor*%
G36*
X143196121Y-96296002D02*
G01*
X143242614Y-96349658D01*
X143254000Y-96402000D01*
X143254000Y-99198000D01*
X143233998Y-99266121D01*
X143180342Y-99312614D01*
X143128000Y-99324000D01*
X142872000Y-99324000D01*
X142803879Y-99303998D01*
X142757386Y-99250342D01*
X142746000Y-99198000D01*
X142746000Y-96402000D01*
X142766002Y-96333879D01*
X142819658Y-96287386D01*
X142872000Y-96276000D01*
X143128000Y-96276000D01*
X143196121Y-96296002D01*
G37*
%TD.AperFunction*%
%TA.AperFunction,Conductor*%
G36*
X149499689Y-97048586D02*
G01*
X149517450Y-97063354D01*
X149578539Y-97124443D01*
X149612565Y-97186755D01*
X149609037Y-97253205D01*
X149576851Y-97350243D01*
X149566500Y-97451268D01*
X149566500Y-97998732D01*
X149577113Y-98101019D01*
X149579295Y-98107559D01*
X149621015Y-98232607D01*
X149631244Y-98263268D01*
X149635096Y-98269492D01*
X149635096Y-98269493D01*
X149697333Y-98370066D01*
X149721248Y-98408713D01*
X149726430Y-98413886D01*
X149730975Y-98419620D01*
X149729055Y-98421142D01*
X149757545Y-98473206D01*
X149752544Y-98544026D01*
X149729118Y-98580552D01*
X149730157Y-98581372D01*
X149725619Y-98587118D01*
X149720448Y-98592298D01*
X149630698Y-98737899D01*
X149628897Y-98743329D01*
X149582414Y-98796122D01*
X149514137Y-98815583D01*
X149446177Y-98795042D01*
X149400111Y-98741019D01*
X149392932Y-98720282D01*
X149371692Y-98635723D01*
X149370431Y-98630702D01*
X149281354Y-98425840D01*
X149180209Y-98269493D01*
X149162822Y-98242617D01*
X149162820Y-98242614D01*
X149160014Y-98238277D01*
X149009670Y-98073051D01*
X149005619Y-98069852D01*
X149005615Y-98069848D01*
X148838414Y-97937800D01*
X148838410Y-97937798D01*
X148834359Y-97934598D01*
X148793053Y-97911796D01*
X148743084Y-97861364D01*
X148728312Y-97791921D01*
X148753428Y-97725516D01*
X148780780Y-97698909D01*
X148824603Y-97667650D01*
X148959860Y-97571173D01*
X149118096Y-97413489D01*
X149152110Y-97366154D01*
X149245435Y-97236277D01*
X149248453Y-97232077D01*
X149315399Y-97096620D01*
X149363511Y-97044415D01*
X149432212Y-97026508D01*
X149499689Y-97048586D01*
G37*
%TD.AperFunction*%
%TA.AperFunction,Conductor*%
G36*
X144351751Y-97204678D02*
G01*
X144379579Y-97236511D01*
X144439987Y-97335088D01*
X144586250Y-97503938D01*
X144758126Y-97646632D01*
X144828595Y-97687811D01*
X144831445Y-97689476D01*
X144880169Y-97741114D01*
X144893240Y-97810897D01*
X144866509Y-97876669D01*
X144826055Y-97910027D01*
X144813607Y-97916507D01*
X144809474Y-97919610D01*
X144809471Y-97919612D01*
X144639100Y-98047530D01*
X144634965Y-98050635D01*
X144480629Y-98212138D01*
X144373204Y-98369618D01*
X144372898Y-98370066D01*
X144317987Y-98415069D01*
X144247462Y-98423240D01*
X144183715Y-98391986D01*
X144163018Y-98367502D01*
X144082426Y-98242926D01*
X144076136Y-98234757D01*
X143932806Y-98077240D01*
X143925273Y-98070215D01*
X143758139Y-97938222D01*
X143749552Y-97932517D01*
X143712116Y-97911851D01*
X143662146Y-97861419D01*
X143647374Y-97791976D01*
X143672490Y-97725571D01*
X143699842Y-97698964D01*
X143875327Y-97573792D01*
X143883200Y-97567139D01*
X144034052Y-97416812D01*
X144040730Y-97408965D01*
X144168022Y-97231819D01*
X144169279Y-97232722D01*
X144216373Y-97189362D01*
X144286311Y-97177145D01*
X144351751Y-97204678D01*
G37*
%TD.AperFunction*%
M02*
