M48
; DRILL file {KiCad (6.0.10)} date Sat Dec 30 01:12:32 2023
; FORMAT={2:4/ absolute / inch / suppress leading zeros}
; #@! TF.CreationDate,2023-12-30T01:12:32+11:00
; #@! TF.GenerationSoftware,Kicad,Pcbnew,(6.0.10)
; #@! TF.FileFunction,Plated,1,2,PTH
FMAT,2
INCH,TZ
; #@! TA.AperFunction,Plated,PTH,ViaDrill
T1C0.0118
; #@! TA.AperFunction,Plated,PTH,ComponentDrill
T2C0.0394
%
G90
G05
T1
X53000Y-40965
X53200Y-40095
X53300Y-41200
X53685Y-38063
X53791Y-40736
X53800Y-40100
X53800Y-41200
X54400Y-40095
X54400Y-41200
X54800Y-40200
X55300Y-41700
X55900Y-41700
X56197Y-39811
X56600Y-40600
X56600Y-40900
X56600Y-41200
X56600Y-41700
X57217Y-41697
X58102Y-39709
X58681Y-39413
T2
X54299Y-38004
X54299Y-39004
X55299Y-38004
X55299Y-39004
X56299Y-38004
X56299Y-39004
X57299Y-38004
X57299Y-39004
X58299Y-38004
X58299Y-39004
T0
M30
